ply
format ascii 1.0
element vertex 3240
property float x
property float y
property float z
end_header
-0.047302 0.172851 1.085000
-0.045711 0.173169 1.087000
-0.044114 0.173488 1.089000
-0.042550 0.173966 1.092000
-0.040939 0.174284 1.094000
-0.059918 0.172276 1.071000
-0.058319 0.172437 1.072000
-0.052037 0.173562 1.079000
-0.050465 0.173884 1.081000
-0.048887 0.174206 1.083000
-0.047302 0.174528 1.085000
-0.045669 0.174689 1.086000
-0.044114 0.175171 1.089000
-0.042511 0.175493 1.091000
-0.040939 0.175975 1.094000
-0.039358 0.176458 1.097000
-0.036069 0.176940 1.100000
-0.034465 0.177423 1.103000
-0.032851 0.177906 1.106000
-0.031228 0.178388 1.109000
-0.113420 0.169871 1.046000
-0.111698 0.169709 1.045000
-0.109980 0.169546 1.044000
-0.108264 0.169384 1.043000
-0.106552 0.169222 1.042000
-0.104843 0.169059 1.041000
-0.103236 0.169059 1.041000
-0.101531 0.168897 1.040000
-0.099830 0.168734 1.039000
-0.098226 0.168734 1.039000
-0.096529 0.168572 1.038000
-0.094926 0.168572 1.038000
-0.093234 0.168410 1.037000
-0.091545 0.168247 1.036000
-0.089946 0.168247 1.036000
-0.088346 0.168247 1.036000
-0.061571 0.173931 1.071000
-0.059974 0.174094 1.072000
-0.058374 0.174256 1.073000
-0.056717 0.174256 1.073000
-0.055163 0.174581 1.075000
-0.053554 0.174743 1.076000
-0.051989 0.175068 1.078000
-0.050418 0.175393 1.080000
-0.048887 0.175880 1.083000
-0.047258 0.176042 1.084000
-0.045669 0.176367 1.086000
-0.044114 0.176854 1.089000
-0.042511 0.177179 1.091000
-0.040939 0.177666 1.094000
-0.039358 0.178154 1.097000
-0.036069 0.178641 1.100000
-0.034465 0.179128 1.103000
-0.032851 0.179615 1.106000
-0.031228 0.180102 1.109000
-0.029596 0.180590 1.112000
-0.027980 0.181239 1.116000
-0.026328 0.181726 1.119000
-0.024644 0.182051 1.121000
-0.022975 0.182538 1.124000
-0.021297 0.183026 1.127000
-0.019574 0.183188 1.128000
-0.132664 0.175587 1.071000
-0.130644 0.175095 1.068000
-0.128633 0.174603 1.065000
-0.126750 0.174275 1.063000
-0.124756 0.173783 1.060000
-0.122771 0.173291 1.057000
-0.115035 0.171488 1.046000
-0.113312 0.171324 1.045000
-0.111698 0.171324 1.045000
-0.109980 0.171160 1.044000
-0.108264 0.170996 1.043000
-0.106552 0.170832 1.042000
-0.104843 0.170668 1.041000
-0.103137 0.170504 1.040000
-0.101434 0.170340 1.039000
-0.099830 0.170340 1.039000
-0.098131 0.170176 1.038000
-0.096529 0.170176 1.038000
-0.094835 0.170012 1.037000
-0.093234 0.170012 1.037000
-0.091633 0.170012 1.037000
-0.090032 0.170012 1.037000
-0.088432 0.170012 1.037000
-0.086831 0.170012 1.037000
-0.063166 0.175423 1.070000
-0.061571 0.175587 1.071000
-0.059974 0.175751 1.072000
-0.058428 0.176078 1.074000
-0.056823 0.176242 1.075000
-0.055215 0.176406 1.076000
-0.053603 0.176570 1.077000
-0.052037 0.176898 1.079000
-0.050418 0.177062 1.080000
-0.048841 0.177390 1.082000
-0.047258 0.177718 1.084000
-0.045627 0.177882 1.085000
-0.044074 0.178374 1.088000
-0.042511 0.178866 1.091000
-0.040902 0.179193 1.093000
-0.039322 0.179685 1.096000
-0.036037 0.180177 1.099000
-0.034465 0.180833 1.103000
-0.032851 0.181325 1.106000
-0.031228 0.181817 1.109000
-0.029596 0.182308 1.112000
-0.027955 0.182800 1.115000
-0.026304 0.183292 1.118000
-0.024644 0.183784 1.121000
-0.022975 0.184276 1.124000
-0.021278 0.184604 1.126000
-0.019574 0.184932 1.128000
-0.017865 0.185259 1.130000
-0.145314 0.178566 1.079000
-0.143516 0.178401 1.078000
-0.141720 0.178235 1.077000
-0.139927 0.178070 1.076000
-0.138138 0.177904 1.075000
-0.136224 0.177573 1.073000
-0.134317 0.177242 1.071000
-0.132416 0.176911 1.069000
-0.130399 0.176415 1.066000
-0.128512 0.176084 1.064000
-0.126512 0.175587 1.061000
-0.124638 0.175256 1.059000
-0.122423 0.174429 1.054000
-0.120452 0.173932 1.051000
-0.118603 0.173601 1.049000
-0.116872 0.173436 1.048000
-0.115035 0.173105 1.046000
-0.113312 0.172939 1.045000
-0.111698 0.172939 1.045000
-0.109980 0.172774 1.044000
-0.108368 0.172774 1.044000
-0.106552 0.172443 1.042000
-0.104944 0.172443 1.042000
-0.103236 0.172277 1.041000
-0.101531 0.172112 1.040000
-0.099926 0.172112 1.040000
-0.098226 0.171946 1.039000
-0.096622 0.171946 1.039000
-0.094926 0.171781 1.038000
-0.093324 0.171781 1.038000
-0.091633 0.171615 1.037000
-0.090032 0.171615 1.037000
-0.088432 0.171615 1.037000
-0.080815 0.172443 1.042000
-0.079283 0.172608 1.043000
-0.077822 0.172939 1.045000
-0.066283 0.176580 1.067000
-0.064757 0.176911 1.069000
-0.063225 0.177242 1.071000
-0.061629 0.177408 1.072000
-0.060030 0.177573 1.073000
-0.058482 0.177904 1.075000
-0.056823 0.177904 1.075000
-0.055215 0.178070 1.076000
-0.053653 0.178401 1.078000
-0.052037 0.178566 1.079000
-0.050465 0.178897 1.081000
-0.048841 0.179063 1.082000
-0.047258 0.179394 1.084000
-0.045669 0.179724 1.086000
-0.044074 0.180055 1.088000
-0.042472 0.180386 1.090000
-0.040864 0.180717 1.092000
-0.039322 0.181379 1.096000
-0.036037 0.181876 1.099000
-0.034434 0.182372 1.102000
-0.032851 0.183034 1.106000
-0.031228 0.183531 1.109000
-0.029596 0.184027 1.112000
-0.027955 0.184524 1.115000
-0.026304 0.185020 1.118000
-0.024644 0.185517 1.121000
-0.022975 0.186013 1.124000
-0.021278 0.186344 1.126000
-0.019574 0.186675 1.128000
-0.017865 0.187006 1.130000
-0.016163 0.187503 1.133000
-0.152118 0.180401 1.080000
-0.150451 0.180401 1.080000
-0.148646 0.180234 1.079000
-0.146844 0.180067 1.078000
-0.145045 0.179900 1.077000
-0.143249 0.179733 1.076000
-0.141457 0.179566 1.075000
-0.139537 0.179232 1.073000
-0.137752 0.179065 1.072000
-0.135971 0.178898 1.071000
-0.134066 0.178563 1.069000
-0.132168 0.178229 1.067000
-0.130277 0.177895 1.065000
-0.128270 0.177394 1.062000
-0.126392 0.177060 1.060000
-0.124521 0.176726 1.058000
-0.122423 0.176058 1.054000
-0.120452 0.175557 1.051000
-0.118716 0.175390 1.050000
-0.116872 0.175056 1.048000
-0.115035 0.174722 1.046000
-0.113420 0.174722 1.046000
-0.111698 0.174555 1.045000
-0.109980 0.174388 1.044000
-0.108264 0.174221 1.043000
-0.106552 0.174053 1.042000
-0.104944 0.174053 1.042000
-0.103236 0.173886 1.041000
-0.101531 0.173719 1.040000
-0.099926 0.173719 1.040000
-0.098226 0.173552 1.039000
-0.096622 0.173552 1.039000
-0.094926 0.173385 1.038000
-0.093324 0.173385 1.038000
-0.091722 0.173385 1.038000
-0.090119 0.173385 1.038000
-0.088517 0.173385 1.038000
-0.086915 0.173385 1.038000
-0.080815 0.174053 1.042000
-0.079283 0.174221 1.043000
-0.077747 0.174388 1.044000
-0.076354 0.174889 1.047000
-0.074952 0.175390 1.050000
-0.073541 0.175891 1.053000
-0.070824 0.177227 1.061000
-0.067739 0.177728 1.064000
-0.066283 0.178229 1.067000
-0.064757 0.178563 1.069000
-0.063225 0.178898 1.071000
-0.061686 0.179232 1.073000
-0.060030 0.179232 1.073000
-0.058482 0.179566 1.075000
-0.056876 0.179733 1.076000
-0.055266 0.179900 1.077000
-0.053653 0.180067 1.078000
-0.052086 0.180401 1.080000
-0.050465 0.180568 1.081000
-0.048841 0.180735 1.082000
-0.047215 0.180902 1.083000
-0.045627 0.181236 1.085000
-0.044074 0.181737 1.088000
-0.042472 0.182071 1.090000
-0.040864 0.182405 1.092000
-0.039286 0.182906 1.095000
-0.036037 0.183575 1.099000
-0.034402 0.183909 1.101000
-0.032851 0.184744 1.106000
-0.031228 0.185245 1.109000
-0.029596 0.185746 1.112000
-0.027930 0.186080 1.114000
-0.026304 0.186748 1.118000
-0.024644 0.187249 1.121000
-0.022975 0.187751 1.124000
-0.021278 0.188085 1.126000
-0.019574 0.188419 1.128000
-0.017896 0.189087 1.132000
-0.016163 0.189254 1.133000
-0.153785 0.182070 1.080000
-0.151977 0.181902 1.079000
-0.150311 0.181902 1.079000
-0.148508 0.181733 1.078000
-0.146572 0.181396 1.076000
-0.144776 0.181227 1.075000
-0.142983 0.181059 1.074000
-0.141194 0.180890 1.073000
-0.139407 0.180722 1.072000
-0.137624 0.180553 1.071000
-0.135717 0.180216 1.069000
-0.133816 0.179879 1.067000
-0.131921 0.179542 1.065000
-0.130032 0.179204 1.063000
-0.128149 0.178867 1.061000
-0.126273 0.178530 1.059000
-0.124168 0.177856 1.055000
-0.122307 0.177519 1.053000
-0.120452 0.177181 1.051000
-0.118716 0.177013 1.050000
-0.116872 0.176676 1.048000
-0.115035 0.176338 1.046000
-0.113420 0.176338 1.046000
-0.111698 0.176170 1.045000
-0.109980 0.176001 1.044000
-0.108368 0.176001 1.044000
-0.106552 0.175664 1.042000
-0.104944 0.175664 1.042000
-0.103236 0.175496 1.041000
-0.101531 0.175327 1.040000
-0.099926 0.175327 1.040000
-0.098226 0.175158 1.039000
-0.096622 0.175158 1.039000
-0.094926 0.174990 1.038000
-0.093324 0.174990 1.038000
-0.091722 0.174990 1.038000
-0.090119 0.174990 1.038000
-0.088517 0.174990 1.038000
-0.086915 0.174990 1.038000
-0.085394 0.175158 1.039000
-0.083871 0.175327 1.040000
-0.082345 0.175496 1.041000
-0.080738 0.175496 1.041000
-0.079283 0.175833 1.043000
-0.077747 0.176001 1.044000
-0.076281 0.176338 1.046000
-0.074881 0.176844 1.049000
-0.073471 0.177350 1.052000
-0.072120 0.178024 1.056000
-0.070757 0.178699 1.060000
-0.069316 0.179204 1.063000
-0.066283 0.179879 1.067000
-0.064757 0.180216 1.069000
-0.063284 0.180722 1.072000
-0.061686 0.180890 1.073000
-0.060142 0.181227 1.075000
-0.058537 0.181396 1.076000
-0.056929 0.181565 1.077000
-0.055317 0.181733 1.078000
-0.053703 0.181902 1.079000
-0.052086 0.182070 1.080000
-0.050465 0.182239 1.081000
-0.048841 0.182407 1.082000
-0.047215 0.182576 1.083000
-0.045627 0.182913 1.085000
-0.044074 0.183419 1.088000
-0.042433 0.183588 1.089000
-0.040864 0.184093 1.092000
-0.039286 0.184599 1.095000
-0.037699 0.185105 1.098000
-0.034434 0.185779 1.102000
-0.032851 0.186453 1.106000
-0.031228 0.186959 1.109000
-0.029596 0.187465 1.112000
-0.027955 0.187971 1.115000
-0.026304 0.188476 1.118000
-0.024644 0.188982 1.121000
-0.022955 0.189319 1.123000
-0.021297 0.189994 1.127000
-0.019592 0.190331 1.129000
-0.017881 0.190668 1.131000
-0.016177 0.191174 1.134000
-0.012710 0.191680 1.137000
-0.010974 0.192017 1.139000
-0.009232 0.192354 1.141000
-0.007483 0.192691 1.143000
-0.005719 0.192691 1.143000
-0.153643 0.183570 1.079000
-0.151977 0.183570 1.079000
-0.150033 0.183229 1.077000
-0.148233 0.183059 1.076000
-0.146435 0.182889 1.075000
-0.144641 0.182719 1.074000
-0.142717 0.182379 1.072000
-0.140930 0.182209 1.071000
-0.139277 0.182209 1.071000
-0.137238 0.181698 1.068000
-0.135463 0.181528 1.067000
-0.133690 0.181358 1.066000
-0.131797 0.181018 1.064000
-0.129910 0.180677 1.062000
-0.128029 0.180337 1.060000
-0.126154 0.179997 1.058000
-0.124168 0.179486 1.055000
-0.122190 0.178976 1.052000
-0.120452 0.178806 1.051000
-0.118603 0.178466 1.049000
-0.116872 0.178296 1.048000
-0.115145 0.178125 1.047000
-0.113528 0.178125 1.047000
-0.111698 0.177785 1.045000
-0.110085 0.177785 1.045000
-0.108368 0.177615 1.044000
-0.106757 0.177615 1.044000
-0.104944 0.177275 1.042000
-0.103236 0.177105 1.041000
-0.101531 0.176935 1.040000
-0.099926 0.176935 1.040000
-0.098226 0.176764 1.039000
-0.096622 0.176764 1.039000
-0.095018 0.176764 1.039000
-0.093414 0.176764 1.039000
-0.091810 0.176764 1.039000
-0.090119 0.176594 1.038000
-0.088517 0.176594 1.038000
-0.086998 0.176764 1.039000
-0.085394 0.176764 1.039000
-0.083871 0.176935 1.040000
-0.082345 0.177105 1.041000
-0.080815 0.177275 1.042000
-0.079283 0.177445 1.043000
-0.077747 0.177615 1.044000
-0.076281 0.177955 1.046000
-0.074881 0.178466 1.049000
-0.073471 0.178976 1.052000
-0.072052 0.179486 1.055000
-0.070690 0.180167 1.059000
-0.069251 0.180677 1.062000
-0.066221 0.181358 1.066000
-0.064757 0.181868 1.069000
-0.063225 0.182209 1.071000
-0.061686 0.182549 1.073000
-0.060142 0.182889 1.075000
-0.058591 0.183229 1.077000
-0.056981 0.183399 1.078000
-0.055369 0.183570 1.079000
-0.053753 0.183740 1.080000
-0.052086 0.183740 1.080000
-0.050512 0.184080 1.082000
-0.048841 0.184080 1.082000
-0.047215 0.184250 1.083000
-0.045627 0.184590 1.085000
-0.044074 0.185101 1.088000
-0.042433 0.185271 1.089000
-0.040864 0.185781 1.092000
-0.039250 0.186122 1.094000
-0.037699 0.186802 1.098000
-0.034402 0.187312 1.101000
-0.032822 0.187993 1.105000
-0.031200 0.188503 1.108000
-0.029570 0.189014 1.111000
-0.027930 0.189524 1.114000
-0.026304 0.190205 1.118000
-0.024644 0.190715 1.121000
-0.022975 0.191225 1.124000
-0.021278 0.191566 1.126000
-0.019609 0.192246 1.130000
-0.017896 0.192586 1.132000
-0.014440 0.193097 1.135000
-0.012710 0.193437 1.137000
-0.010983 0.193947 1.140000
-0.009232 0.194118 1.141000
-0.007483 0.194458 1.143000
-0.005724 0.194628 1.144000
-0.003955 0.194458 1.143000
-0.149894 0.184722 1.076000
-0.148095 0.184551 1.075000
-0.146435 0.184551 1.075000
-0.144506 0.184207 1.073000
-0.142717 0.184036 1.072000
-0.140930 0.183864 1.071000
-0.139017 0.183521 1.069000
-0.137238 0.183349 1.068000
-0.135336 0.183006 1.066000
-0.133439 0.182662 1.064000
-0.131673 0.182491 1.063000
-0.129665 0.181976 1.060000
-0.127908 0.181804 1.059000
-0.125796 0.181117 1.055000
-0.124050 0.180946 1.054000
-0.122190 0.180602 1.052000
-0.120452 0.180431 1.051000
-0.118716 0.180259 1.050000
-0.116984 0.180087 1.049000
-0.115145 0.179744 1.047000
-0.113420 0.179572 1.046000
-0.111805 0.179572 1.046000
-0.110085 0.179400 1.045000
-0.108368 0.179229 1.044000
-0.106757 0.179229 1.044000
-0.104944 0.178885 1.042000
-0.103335 0.178885 1.042000
-0.101629 0.178714 1.041000
-0.099926 0.178542 1.040000
-0.098320 0.178542 1.040000
-0.096622 0.178370 1.039000
-0.095018 0.178370 1.039000
-0.093414 0.178370 1.039000
-0.091810 0.178370 1.039000
-0.090206 0.178370 1.039000
-0.088517 0.178199 1.038000
-0.086998 0.178370 1.039000
-0.085394 0.178370 1.039000
-0.083871 0.178542 1.040000
-0.082266 0.178542 1.040000
-0.080815 0.178885 1.042000
-0.079207 0.178885 1.042000
-0.077747 0.179229 1.044000
-0.076281 0.179572 1.046000
-0.074809 0.179915 1.048000
-0.073401 0.180431 1.051000
-0.071984 0.180946 1.054000
-0.070624 0.181632 1.058000
-0.069186 0.182147 1.061000
-0.066159 0.182834 1.065000
-0.064757 0.183521 1.069000
-0.063225 0.183864 1.071000
-0.061744 0.184379 1.074000
-0.060198 0.184722 1.076000
-0.058591 0.184894 1.077000
-0.057034 0.185237 1.079000
-0.055420 0.185409 1.080000
-0.053753 0.185409 1.080000
-0.052182 0.185752 1.082000
-0.050512 0.185752 1.082000
-0.048887 0.185924 1.083000
-0.047258 0.186096 1.084000
-0.045627 0.186267 1.085000
-0.044074 0.186782 1.088000
-0.042433 0.186954 1.089000
-0.040827 0.187298 1.091000
-0.039250 0.187813 1.094000
-0.037664 0.188328 1.097000
-0.034371 0.188843 1.100000
-0.032762 0.189358 1.103000
-0.031172 0.190044 1.107000
-0.029543 0.190559 1.110000
-0.027930 0.191246 1.114000
-0.026281 0.191761 1.117000
-0.024644 0.192448 1.121000
-0.022975 0.192963 1.124000
-0.021316 0.193649 1.128000
-0.019609 0.193993 1.130000
-0.017912 0.194508 1.133000
-0.014440 0.194851 1.135000
-0.012721 0.195366 1.138000
-0.010974 0.195538 1.139000
-0.009240 0.196053 1.142000
-0.007483 0.196225 1.143000
-0.005724 0.196396 1.144000
-0.003958 0.196396 1.144000
-0.148095 0.186212 1.075000
-0.146163 0.185866 1.073000
-0.144372 0.185693 1.072000
-0.142584 0.185520 1.071000
-0.140667 0.185173 1.069000
-0.138887 0.185000 1.068000
-0.136981 0.184653 1.066000
-0.135082 0.184307 1.064000
-0.133314 0.184134 1.063000
-0.131425 0.183787 1.061000
-0.129543 0.183441 1.059000
-0.127666 0.183094 1.057000
-0.125677 0.182575 1.054000
-0.123932 0.182402 1.053000
-0.122074 0.182055 1.051000
-0.120337 0.181882 1.050000
-0.118603 0.181709 1.049000
-0.116984 0.181709 1.049000
-0.115145 0.181362 1.047000
-0.113528 0.181362 1.047000
-0.111805 0.181189 1.046000
-0.110085 0.181016 1.045000
-0.108472 0.181016 1.045000
-0.106757 0.180843 1.044000
-0.105044 0.180669 1.043000
-0.103335 0.180496 1.042000
-0.101629 0.180323 1.041000
-0.099926 0.180150 1.040000
-0.098226 0.179976 1.039000
-0.096622 0.179976 1.039000
-0.095018 0.179976 1.039000
-0.093414 0.179976 1.039000
-0.091810 0.179976 1.039000
-0.090119 0.179803 1.038000
-0.088602 0.179976 1.039000
-0.086998 0.179976 1.039000
-0.085394 0.179976 1.039000
-0.083871 0.180150 1.040000
-0.082345 0.180323 1.041000
-0.080738 0.180323 1.041000
-0.079207 0.180496 1.042000
-0.077747 0.180843 1.044000
-0.076208 0.181016 1.045000
-0.074809 0.181535 1.048000
-0.073401 0.182055 1.051000
-0.071984 0.182575 1.054000
-0.070557 0.183094 1.057000
-0.069121 0.183614 1.060000
-0.066097 0.184307 1.064000
-0.064696 0.185000 1.068000
-0.063225 0.185520 1.071000
-0.061686 0.185866 1.073000
-0.060198 0.186386 1.076000
-0.058646 0.186732 1.078000
-0.057034 0.186905 1.079000
-0.055420 0.187078 1.080000
-0.053803 0.187252 1.081000
-0.052182 0.187425 1.082000
-0.050558 0.187598 1.083000
-0.048932 0.187771 1.084000
-0.047302 0.187945 1.085000
-0.045669 0.188118 1.086000
-0.044074 0.188464 1.088000
-0.042433 0.188637 1.089000
-0.040827 0.188984 1.091000
-0.039250 0.189504 1.094000
-0.037630 0.189850 1.096000
-0.034340 0.190370 1.099000
-0.032762 0.191063 1.103000
-0.031144 0.191582 1.106000
-0.029517 0.192102 1.109000
-0.027905 0.192795 1.113000
-0.026304 0.193661 1.118000
-0.024622 0.194007 1.120000
-0.022975 0.194700 1.124000
-0.021316 0.195393 1.128000
-0.019626 0.195913 1.131000
-0.017912 0.196259 1.133000
-0.014452 0.196779 1.136000
-0.012732 0.197298 1.139000
-0.010983 0.197472 1.140000
-0.009240 0.197818 1.142000
-0.007483 0.197991 1.143000
-0.005719 0.197991 1.143000
-0.003958 0.198165 1.144000
-0.002194 0.198338 1.145000
-0.151414 0.187874 1.075000
-0.149615 0.187699 1.074000
-0.147819 0.187524 1.073000
-0.145890 0.187175 1.071000
-0.144102 0.187000 1.070000
-0.142318 0.186825 1.069000
-0.140404 0.186476 1.067000
-0.138497 0.186126 1.065000
-0.136724 0.185952 1.064000
-0.134955 0.185777 1.063000
-0.133063 0.185427 1.061000
-0.131301 0.185253 1.060000
-0.129420 0.184903 1.058000
-0.127304 0.184204 1.054000
-0.125677 0.184204 1.054000
-0.123814 0.183854 1.052000
-0.122190 0.183854 1.052000
-0.120452 0.183680 1.051000
-0.118716 0.183505 1.050000
-0.116984 0.183330 1.049000
-0.115255 0.183155 1.048000
-0.113528 0.182981 1.047000
-0.111805 0.182806 1.046000
-0.110085 0.182631 1.045000
-0.108472 0.182631 1.045000
-0.106757 0.182456 1.044000
-0.105044 0.182282 1.043000
-0.103335 0.182107 1.042000
-0.101629 0.181932 1.041000
-0.099926 0.181757 1.040000
-0.098226 0.181582 1.039000
-0.096622 0.181582 1.039000
-0.095018 0.181582 1.039000
-0.093324 0.181408 1.038000
-0.091810 0.181582 1.039000
-0.090119 0.181408 1.038000
-0.088602 0.181582 1.039000
-0.086998 0.181582 1.039000
-0.085394 0.181582 1.039000
-0.083871 0.181757 1.040000
-0.082266 0.181757 1.040000
-0.080738 0.181932 1.041000
-0.079207 0.182107 1.042000
-0.077673 0.182282 1.043000
-0.076208 0.182631 1.045000
-0.074738 0.182981 1.047000
-0.073331 0.183505 1.050000
-0.071847 0.183854 1.052000
-0.070490 0.184553 1.056000
-0.069121 0.185253 1.060000
-0.067675 0.185777 1.063000
-0.064636 0.186476 1.067000
-0.063225 0.187175 1.071000
-0.061686 0.187524 1.073000
-0.060198 0.188049 1.076000
-0.058646 0.188398 1.078000
-0.057087 0.188748 1.080000
-0.055471 0.188923 1.081000
-0.053852 0.189097 1.082000
-0.052230 0.189272 1.083000
-0.050605 0.189447 1.084000
-0.048977 0.189622 1.085000
-0.047346 0.189796 1.086000
-0.045711 0.189971 1.087000
-0.044114 0.190321 1.089000
-0.042472 0.190496 1.090000
-0.040827 0.190670 1.091000
-0.039250 0.191195 1.094000
-0.037630 0.191544 1.096000
-0.034340 0.192068 1.099000
-0.032733 0.192593 1.102000
-0.031116 0.193117 1.105000
-0.029517 0.193816 1.109000
-0.027905 0.194515 1.113000
-0.026281 0.195214 1.117000
-0.024644 0.195913 1.121000
-0.022996 0.196612 1.125000
-0.021335 0.197311 1.129000
-0.019644 0.197836 1.132000
-0.016192 0.198360 1.135000
-0.014465 0.198710 1.137000
-0.012732 0.199059 1.139000
-0.010993 0.199409 1.141000
-0.009240 0.199583 1.142000
-0.007483 0.199758 1.143000
-0.005719 0.199758 1.143000
-0.003958 0.199933 1.144000
-0.002194 0.200108 1.145000
-0.156392 0.189536 1.075000
-0.154733 0.189536 1.075000
-0.152931 0.189359 1.074000
-0.151132 0.189183 1.073000
-0.149336 0.189007 1.072000
-0.147544 0.188830 1.071000
-0.145618 0.188478 1.069000
-0.143968 0.188478 1.069000
-0.142184 0.188302 1.068000
-0.140273 0.187949 1.066000
-0.138497 0.187773 1.065000
-0.136596 0.187420 1.063000
-0.134701 0.187067 1.061000
-0.132938 0.186891 1.060000
-0.131177 0.186715 1.059000
-0.129298 0.186362 1.057000
-0.127546 0.186186 1.056000
-0.125558 0.185657 1.053000
-0.123814 0.185481 1.052000
-0.122190 0.185481 1.052000
-0.120452 0.185304 1.051000
-0.118716 0.185128 1.050000
-0.116984 0.184952 1.049000
-0.115365 0.184952 1.049000
-0.113528 0.184599 1.047000
-0.111805 0.184423 1.046000
-0.110085 0.184246 1.045000
-0.108472 0.184246 1.045000
-0.106757 0.184070 1.044000
-0.105044 0.183894 1.043000
-0.103335 0.183717 1.042000
-0.101629 0.183541 1.041000
-0.099926 0.183365 1.040000
-0.098226 0.183188 1.039000
-0.096622 0.183188 1.039000
-0.094926 0.183012 1.038000
-0.093324 0.183012 1.038000
-0.091722 0.183012 1.038000
-0.090119 0.183012 1.038000
-0.088517 0.183012 1.038000
-0.086998 0.183188 1.039000
-0.085394 0.183188 1.039000
-0.083790 0.183188 1.039000
-0.082266 0.183365 1.040000
-0.080738 0.183541 1.041000
-0.079131 0.183541 1.041000
-0.077598 0.183717 1.042000
-0.076136 0.184070 1.044000
-0.074667 0.184423 1.046000
-0.073261 0.184952 1.049000
-0.071847 0.185481 1.052000
-0.070423 0.186009 1.055000
-0.069055 0.186715 1.059000
-0.067675 0.187420 1.063000
-0.064636 0.188125 1.067000
-0.063225 0.188830 1.071000
-0.061686 0.189183 1.073000
-0.060198 0.189712 1.076000
-0.058646 0.190065 1.078000
-0.057087 0.190417 1.080000
-0.055523 0.190770 1.082000
-0.053852 0.190770 1.082000
-0.052230 0.190946 1.083000
-0.050652 0.191299 1.085000
-0.048977 0.191299 1.085000
-0.047346 0.191475 1.086000
-0.045711 0.191651 1.087000
-0.044114 0.192004 1.089000
-0.042472 0.192180 1.090000
-0.040864 0.192533 1.092000
-0.039250 0.192886 1.094000
-0.037596 0.193062 1.095000
-0.036004 0.193591 1.098000
-0.032703 0.194120 1.101000
-0.031116 0.194825 1.105000
-0.029517 0.195530 1.109000
-0.027905 0.196236 1.113000
-0.026304 0.197117 1.118000
-0.024644 0.197646 1.121000
-0.023016 0.198528 1.126000
-0.021353 0.199233 1.130000
-0.019661 0.199762 1.133000
-0.016206 0.200291 1.136000
-0.014478 0.200643 1.138000
-0.012743 0.200996 1.140000
-0.010993 0.201172 1.141000
-0.009248 0.201525 1.143000
-0.007483 0.201525 1.143000
-0.005719 0.201525 1.143000
-0.003958 0.201701 1.144000
-0.002194 0.201878 1.145000
-0.158199 0.191375 1.076000
-0.156392 0.191197 1.075000
-0.154733 0.191197 1.075000
-0.152788 0.190842 1.073000
-0.150991 0.190664 1.072000
-0.149336 0.190664 1.072000
-0.147406 0.190308 1.070000
-0.145618 0.190130 1.069000
-0.143833 0.189952 1.068000
-0.142051 0.189774 1.067000
-0.140141 0.189419 1.065000
-0.138367 0.189241 1.064000
-0.136596 0.189063 1.063000
-0.134701 0.188707 1.061000
-0.132938 0.188529 1.060000
-0.131177 0.188352 1.059000
-0.129298 0.187996 1.057000
-0.127546 0.187818 1.056000
-0.125677 0.187462 1.054000
-0.123932 0.187284 1.053000
-0.122190 0.187107 1.052000
-0.120452 0.186929 1.051000
-0.118716 0.186751 1.050000
-0.116984 0.186573 1.049000
-0.115365 0.186573 1.049000
-0.113528 0.186217 1.047000
-0.111912 0.186217 1.047000
-0.110085 0.185862 1.045000
-0.108472 0.185862 1.045000
-0.106757 0.185684 1.044000
-0.105044 0.185506 1.043000
-0.103335 0.185328 1.042000
-0.101629 0.185150 1.041000
-0.099926 0.184972 1.040000
-0.098226 0.184794 1.039000
-0.096622 0.184794 1.039000
-0.094926 0.184617 1.038000
-0.093324 0.184617 1.038000
-0.091722 0.184617 1.038000
-0.090119 0.184617 1.038000
-0.088517 0.184617 1.038000
-0.086915 0.184617 1.038000
-0.085394 0.184794 1.039000
-0.083790 0.184794 1.039000
-0.082266 0.184972 1.040000
-0.080660 0.184972 1.040000
-0.079131 0.185150 1.041000
-0.077598 0.185328 1.042000
-0.076136 0.185684 1.044000
-0.074667 0.186039 1.046000
-0.073261 0.186573 1.049000
-0.071847 0.187107 1.052000
-0.070423 0.187640 1.055000
-0.069055 0.188352 1.059000
-0.067675 0.189063 1.063000
-0.064636 0.189774 1.067000
-0.063225 0.190486 1.071000
-0.061686 0.190842 1.073000
-0.060198 0.191375 1.076000
-0.058646 0.191731 1.078000
-0.057087 0.192087 1.080000
-0.055523 0.192442 1.082000
-0.053902 0.192620 1.083000
-0.052278 0.192798 1.084000
-0.050652 0.192976 1.085000
-0.049022 0.193154 1.086000
-0.047346 0.193154 1.086000
-0.045753 0.193510 1.088000
-0.044114 0.193687 1.089000
-0.042511 0.194043 1.091000
-0.040864 0.194221 1.092000
-0.039250 0.194577 1.094000
-0.037596 0.194755 1.095000
-0.036004 0.195288 1.098000
-0.032703 0.195822 1.101000
-0.031088 0.196355 1.104000
-0.029517 0.197245 1.109000
-0.027905 0.197956 1.113000
-0.026304 0.198845 1.118000
-0.024666 0.199557 1.122000
-0.023016 0.200268 1.126000
-0.021353 0.200980 1.130000
-0.019661 0.201513 1.133000
-0.016206 0.202047 1.136000
-0.014490 0.202580 1.139000
-0.012743 0.202758 1.140000
-0.010993 0.202936 1.141000
-0.009240 0.203114 1.142000
-0.007483 0.203292 1.143000
-0.005719 0.203292 1.143000
-0.003958 0.203470 1.144000
-0.002194 0.203647 1.145000
-0.159860 0.193038 1.076000
-0.158199 0.193038 1.076000
-0.156392 0.192859 1.075000
-0.154733 0.192859 1.075000
-0.152788 0.192500 1.073000
-0.150991 0.192321 1.072000
-0.149197 0.192141 1.071000
-0.147406 0.191962 1.070000
-0.145618 0.191783 1.069000
-0.143698 0.191424 1.067000
-0.142051 0.191424 1.067000
-0.140141 0.191065 1.065000
-0.138367 0.190886 1.064000
-0.136596 0.190706 1.063000
-0.134701 0.190347 1.061000
-0.132938 0.190168 1.060000
-0.131177 0.189989 1.059000
-0.129298 0.189630 1.057000
-0.127546 0.189450 1.056000
-0.125677 0.189092 1.054000
-0.124050 0.189092 1.054000
-0.122190 0.188733 1.052000
-0.120452 0.188553 1.051000
-0.118716 0.188374 1.050000
-0.116984 0.188195 1.049000
-0.115365 0.188195 1.049000
-0.113528 0.187836 1.047000
-0.111805 0.187656 1.046000
-0.110085 0.187477 1.045000
-0.108472 0.187477 1.045000
-0.106757 0.187297 1.044000
-0.104944 0.186939 1.042000
-0.103236 0.186759 1.041000
-0.101629 0.186759 1.041000
-0.099926 0.186580 1.040000
-0.098226 0.186400 1.039000
-0.096529 0.186221 1.038000
-0.094926 0.186221 1.038000
-0.093324 0.186221 1.038000
-0.091633 0.186042 1.037000
-0.090032 0.186042 1.037000
-0.088432 0.186042 1.037000
-0.086915 0.186221 1.038000
-0.085312 0.186221 1.038000
-0.083790 0.186400 1.039000
-0.082187 0.186400 1.039000
-0.080660 0.186580 1.040000
-0.079131 0.186759 1.041000
-0.077598 0.186939 1.042000
-0.076136 0.187297 1.044000
-0.074667 0.187656 1.046000
-0.073261 0.188195 1.049000
-0.071847 0.188733 1.052000
-0.070423 0.189271 1.055000
-0.069055 0.189989 1.059000
-0.067675 0.190706 1.063000
-0.064636 0.191424 1.067000
-0.063225 0.192141 1.071000
-0.061686 0.192500 1.073000
-0.060142 0.192859 1.075000
-0.058646 0.193397 1.078000
-0.057087 0.193756 1.080000
-0.055523 0.194115 1.082000
-0.053902 0.194294 1.083000
-0.052230 0.194294 1.083000
-0.050652 0.194653 1.085000
-0.049022 0.194832 1.086000
-0.047389 0.195012 1.087000
-0.045753 0.195191 1.088000
-0.044114 0.195371 1.089000
-0.042511 0.195729 1.091000
-0.040864 0.195909 1.092000
-0.039250 0.196268 1.094000
-0.037630 0.196626 1.096000
-0.036037 0.197165 1.099000
-0.032703 0.197524 1.101000
-0.031088 0.198062 1.104000
-0.029517 0.198959 1.109000
-0.027930 0.199856 1.114000
-0.026304 0.200573 1.118000
-0.024688 0.201470 1.123000
-0.023016 0.202009 1.126000
-0.021353 0.202726 1.130000
-0.017928 0.203444 1.134000
-0.016220 0.203982 1.137000
-0.014490 0.204341 1.139000
-0.012743 0.204520 1.140000
-0.010993 0.204700 1.141000
-0.009240 0.204879 1.142000
-0.007483 0.205058 1.143000
-0.005719 0.205058 1.143000
-0.003958 0.205238 1.144000
-0.002194 0.205417 1.145000
-0.161821 0.195064 1.078000
-0.160008 0.194883 1.077000
-0.158199 0.194702 1.076000
-0.156538 0.194702 1.076000
-0.154733 0.194521 1.075000
-0.152788 0.194159 1.073000
-0.151132 0.194159 1.073000
-0.149336 0.193978 1.072000
-0.147544 0.193797 1.071000
-0.145618 0.193435 1.069000
-0.143833 0.193254 1.068000
-0.142051 0.193073 1.067000
-0.140273 0.192892 1.066000
-0.138497 0.192711 1.065000
-0.136596 0.192349 1.063000
-0.134828 0.192168 1.062000
-0.133063 0.191987 1.061000
-0.131301 0.191806 1.060000
-0.129420 0.191445 1.058000
-0.127666 0.191264 1.057000
-0.125796 0.190902 1.055000
-0.124050 0.190721 1.054000
-0.122307 0.190540 1.053000
-0.120452 0.190178 1.051000
-0.118716 0.189997 1.050000
-0.117095 0.189997 1.050000
-0.115365 0.189816 1.049000
-0.113528 0.189454 1.047000
-0.111805 0.189273 1.046000
-0.110085 0.189092 1.045000
-0.108368 0.188911 1.044000
-0.106654 0.188730 1.043000
-0.104944 0.188549 1.042000
-0.103236 0.188368 1.041000
-0.101531 0.188187 1.040000
-0.099830 0.188006 1.039000
-0.098131 0.187826 1.038000
-0.096529 0.187826 1.038000
-0.094835 0.187645 1.037000
-0.093234 0.187645 1.037000
-0.091545 0.187464 1.036000
-0.089946 0.187464 1.036000
-0.088346 0.187464 1.036000
-0.086831 0.187645 1.037000
-0.085312 0.187826 1.038000
-0.083710 0.187826 1.038000
-0.082187 0.188006 1.039000
-0.080660 0.188187 1.040000
-0.079131 0.188368 1.041000
-0.077598 0.188549 1.042000
-0.076136 0.188911 1.044000
-0.074667 0.189273 1.046000
-0.073261 0.189816 1.049000
-0.071847 0.190359 1.052000
-0.070423 0.190902 1.055000
-0.069055 0.191625 1.059000
-0.067675 0.192349 1.063000
-0.064636 0.193073 1.067000
-0.063225 0.193797 1.071000
-0.061686 0.194159 1.073000
-0.060198 0.194702 1.076000
-0.058646 0.195064 1.078000
-0.057087 0.195425 1.080000
-0.055523 0.195787 1.082000
-0.053902 0.195968 1.083000
-0.052278 0.196149 1.084000
-0.050652 0.196330 1.085000
-0.049022 0.196511 1.086000
-0.047389 0.196692 1.087000
-0.045753 0.196873 1.088000
-0.044114 0.197054 1.089000
-0.042511 0.197416 1.091000
-0.040864 0.197597 1.092000
-0.039250 0.197959 1.094000
-0.037664 0.198502 1.097000
-0.036037 0.198863 1.099000
-0.032762 0.199587 1.103000
-0.031144 0.200130 1.106000
-0.029543 0.200854 1.110000
-0.027930 0.201578 1.114000
-0.026304 0.202302 1.118000
-0.024688 0.203206 1.123000
-0.023016 0.203749 1.126000
-0.021353 0.204473 1.130000
-0.017928 0.205197 1.134000
-0.016220 0.205740 1.137000
-0.014490 0.206101 1.139000
-0.012743 0.206282 1.140000
-0.010983 0.206282 1.140000
-0.009232 0.206463 1.141000
-0.007483 0.206825 1.143000
-0.005719 0.206825 1.143000
-0.003955 0.206825 1.143000
-0.163637 0.196912 1.079000
-0.161971 0.196912 1.079000
-0.160157 0.196730 1.078000
-0.158346 0.196547 1.077000
-0.156538 0.196365 1.076000
-0.154877 0.196365 1.076000
-0.152788 0.195817 1.073000
-0.151132 0.195817 1.073000
-0.149336 0.195635 1.072000
-0.147544 0.195452 1.071000
-0.145754 0.195270 1.070000
-0.143968 0.195087 1.069000
-0.142051 0.194722 1.067000
-0.140404 0.194722 1.067000
-0.138497 0.194357 1.065000
-0.136724 0.194175 1.064000
-0.134955 0.193992 1.063000
-0.133189 0.193810 1.062000
-0.131425 0.193627 1.061000
-0.129665 0.193445 1.060000
-0.127908 0.193262 1.059000
-0.125796 0.192532 1.055000
-0.124168 0.192532 1.055000
-0.122307 0.192167 1.053000
-0.120566 0.191985 1.052000
-0.118829 0.191802 1.051000
-0.117095 0.191620 1.050000
-0.115255 0.191255 1.048000
-0.113528 0.191072 1.047000
-0.111805 0.190890 1.046000
-0.110085 0.190707 1.045000
-0.108368 0.190525 1.044000
-0.106552 0.190160 1.042000
-0.104843 0.189977 1.041000
-0.103137 0.189795 1.040000
-0.101434 0.189613 1.039000
-0.099734 0.189430 1.038000
-0.098131 0.189430 1.038000
-0.096343 0.189065 1.036000
-0.094744 0.189065 1.036000
-0.093144 0.189065 1.036000
-0.091545 0.189065 1.036000
-0.089946 0.189065 1.036000
-0.088346 0.189065 1.036000
-0.086747 0.189065 1.036000
-0.085230 0.189248 1.037000
-0.083710 0.189430 1.038000
-0.082187 0.189613 1.039000
-0.080660 0.189795 1.040000
-0.079131 0.189977 1.041000
-0.077673 0.190343 1.043000
-0.076208 0.190707 1.045000
-0.074738 0.191072 1.047000
-0.073331 0.191620 1.050000
-0.071915 0.192167 1.053000
-0.070490 0.192715 1.056000
-0.069121 0.193445 1.060000
-0.066097 0.194175 1.064000
-0.064636 0.194722 1.067000
-0.063225 0.195452 1.071000
-0.061686 0.195817 1.073000
-0.060142 0.196182 1.075000
-0.058646 0.196730 1.078000
-0.057087 0.197095 1.080000
-0.055471 0.197277 1.081000
-0.053852 0.197460 1.082000
-0.052230 0.197642 1.083000
-0.050605 0.197825 1.084000
-0.049022 0.198190 1.086000
-0.047346 0.198190 1.086000
-0.045753 0.198555 1.088000
-0.044114 0.198737 1.089000
-0.042511 0.199102 1.091000
-0.040902 0.199467 1.093000
-0.039286 0.199832 1.095000
-0.037664 0.200197 1.097000
-0.034371 0.200745 1.100000
-0.032762 0.201292 1.103000
-0.031144 0.201840 1.106000
-0.029570 0.202752 1.111000
-0.027930 0.203300 1.114000
-0.026328 0.204212 1.119000
-0.024688 0.204942 1.123000
-0.023016 0.205490 1.126000
-0.021353 0.206220 1.130000
-0.019661 0.206767 1.133000
-0.016220 0.207497 1.137000
-0.014490 0.207862 1.139000
-0.012743 0.208045 1.140000
-0.010983 0.208045 1.140000
-0.009232 0.208227 1.141000
-0.007477 0.208410 1.142000
-0.005719 0.208592 1.143000
-0.163788 0.198764 1.080000
-0.161821 0.198396 1.078000
-0.160157 0.198396 1.078000
-0.158346 0.198212 1.077000
-0.156538 0.198028 1.076000
-0.154877 0.198028 1.076000
-0.153073 0.197844 1.075000
-0.151132 0.197476 1.073000
-0.149336 0.197292 1.072000
-0.147544 0.197108 1.071000
-0.145754 0.196924 1.070000
-0.143968 0.196740 1.069000
-0.142184 0.196556 1.068000
-0.140536 0.196556 1.068000
-0.138757 0.196372 1.067000
-0.136853 0.196004 1.065000
-0.135082 0.195820 1.064000
-0.133314 0.195636 1.063000
-0.131549 0.195451 1.062000
-0.129665 0.195083 1.060000
-0.127908 0.194899 1.059000
-0.126154 0.194715 1.058000
-0.124168 0.194163 1.055000
-0.122423 0.193979 1.054000
-0.120566 0.193611 1.052000
-0.118829 0.193427 1.051000
-0.116984 0.193059 1.049000
-0.115255 0.192875 1.048000
-0.113420 0.192507 1.046000
-0.111698 0.192323 1.045000
-0.109980 0.192139 1.044000
-0.108264 0.191955 1.043000
-0.106552 0.191771 1.042000
-0.104843 0.191587 1.041000
-0.103137 0.191403 1.040000
-0.101434 0.191219 1.039000
-0.099734 0.191034 1.038000
-0.098037 0.190850 1.037000
-0.096343 0.190666 1.036000
-0.094744 0.190666 1.036000
-0.093054 0.190482 1.035000
-0.091457 0.190482 1.035000
-0.089859 0.190482 1.035000
-0.088261 0.190482 1.035000
-0.086747 0.190666 1.036000
-0.085148 0.190666 1.036000
-0.083710 0.191034 1.038000
-0.082187 0.191219 1.039000
-0.080660 0.191403 1.040000
-0.079207 0.191771 1.042000
-0.077747 0.192139 1.044000
-0.076281 0.192507 1.046000
-0.074881 0.193059 1.049000
-0.073401 0.193427 1.051000
-0.071984 0.193979 1.054000
-0.070557 0.194531 1.057000
-0.069186 0.195267 1.061000
-0.067739 0.195820 1.064000
-0.064696 0.196556 1.068000
-0.063225 0.197108 1.071000
-0.061686 0.197476 1.073000
-0.060198 0.198028 1.076000
-0.058646 0.198396 1.078000
-0.057034 0.198580 1.079000
-0.055471 0.198948 1.081000
-0.053852 0.199132 1.082000
-0.052230 0.199316 1.083000
-0.050605 0.199500 1.084000
-0.048977 0.199684 1.085000
-0.047346 0.199868 1.086000
-0.045753 0.200237 1.088000
-0.044114 0.200421 1.089000
-0.042511 0.200789 1.091000
-0.040902 0.201157 1.093000
-0.039286 0.201525 1.095000
-0.037699 0.202077 1.098000
-0.034371 0.202445 1.100000
-0.032762 0.202997 1.103000
-0.031144 0.203549 1.106000
-0.029570 0.204469 1.111000
-0.027955 0.205206 1.115000
-0.026328 0.205942 1.119000
-0.024688 0.206678 1.123000
-0.023016 0.207230 1.126000
-0.021353 0.207966 1.130000
-0.019661 0.208518 1.133000
-0.016206 0.209070 1.136000
-0.014490 0.209623 1.139000
-0.012743 0.209807 1.140000
-0.010983 0.209807 1.140000
-0.009232 0.209991 1.141000
-0.007483 0.210359 1.143000
-0.163788 0.200434 1.080000
-0.161971 0.200248 1.079000
-0.160157 0.200062 1.078000
-0.158493 0.200062 1.078000
-0.156538 0.199691 1.076000
-0.154877 0.199691 1.076000
-0.153073 0.199506 1.075000
-0.151273 0.199320 1.074000
-0.149336 0.198949 1.072000
-0.147681 0.198949 1.072000
-0.145890 0.198763 1.071000
-0.143968 0.198392 1.069000
-0.142184 0.198207 1.068000
-0.140536 0.198207 1.068000
-0.138757 0.198021 1.067000
-0.136853 0.197650 1.065000
-0.135209 0.197650 1.065000
-0.133314 0.197279 1.063000
-0.131549 0.197093 1.062000
-0.129787 0.196907 1.061000
-0.127908 0.196536 1.059000
-0.126154 0.196351 1.058000
-0.124168 0.195794 1.055000
-0.122423 0.195608 1.054000
-0.120566 0.195237 1.052000
-0.118829 0.195052 1.051000
-0.116984 0.194680 1.049000
-0.115255 0.194495 1.048000
-0.113420 0.194124 1.046000
-0.111698 0.193938 1.045000
-0.109980 0.193752 1.044000
-0.108161 0.193381 1.042000
-0.106450 0.193196 1.041000
-0.104742 0.193010 1.040000
-0.103037 0.192825 1.039000
-0.101336 0.192639 1.038000
-0.099637 0.192453 1.037000
-0.097942 0.192268 1.036000
-0.096343 0.192268 1.036000
-0.094652 0.192082 1.035000
-0.093054 0.192082 1.035000
-0.091457 0.192082 1.035000
-0.089859 0.192082 1.035000
-0.088261 0.192082 1.035000
-0.086663 0.192082 1.035000
-0.085148 0.192268 1.036000
-0.083629 0.192453 1.037000
-0.082187 0.192825 1.039000
-0.080660 0.193010 1.040000
-0.079207 0.193381 1.042000
-0.077747 0.193752 1.044000
-0.076354 0.194309 1.047000
-0.074881 0.194680 1.049000
-0.073471 0.195237 1.052000
-0.072052 0.195794 1.055000
-0.070690 0.196536 1.059000
-0.069251 0.197093 1.062000
-0.066159 0.197650 1.065000
-0.064696 0.198207 1.068000
-0.063225 0.198763 1.071000
-0.061686 0.199134 1.073000
-0.060198 0.199691 1.076000
-0.058646 0.200062 1.078000
-0.057034 0.200248 1.079000
-0.055420 0.200434 1.080000
-0.053803 0.200619 1.081000
-0.052182 0.200805 1.082000
-0.050558 0.200990 1.083000
-0.048977 0.201362 1.085000
-0.047346 0.201547 1.086000
-0.045711 0.201733 1.087000
-0.044114 0.202104 1.089000
-0.042511 0.202475 1.091000
-0.040939 0.203032 1.094000
-0.039322 0.203403 1.096000
-0.037699 0.203774 1.098000
-0.034402 0.204331 1.101000
-0.032792 0.204888 1.104000
-0.031172 0.205444 1.107000
-0.029570 0.206187 1.111000
-0.027955 0.206929 1.115000
-0.026328 0.207671 1.119000
-0.024688 0.208414 1.123000
-0.023016 0.208971 1.126000
-0.021353 0.209713 1.130000
-0.019661 0.210270 1.133000
-0.016206 0.210826 1.136000
-0.014490 0.211383 1.139000
-0.012743 0.211569 1.140000
-0.010993 0.211754 1.141000
-0.009240 0.211940 1.142000
-0.165609 0.202290 1.081000
-0.163788 0.202103 1.080000
-0.161971 0.201916 1.079000
-0.160305 0.201916 1.079000
-0.158493 0.201729 1.078000
-0.156538 0.201354 1.076000
-0.154877 0.201354 1.076000
-0.153073 0.201167 1.075000
-0.151273 0.200980 1.074000
-0.149476 0.200793 1.073000
-0.147681 0.200606 1.072000
-0.145890 0.200419 1.071000
-0.143968 0.200045 1.069000
-0.142318 0.200045 1.069000
-0.140536 0.199857 1.068000
-0.138757 0.199670 1.067000
-0.136853 0.199296 1.065000
-0.135082 0.199109 1.064000
-0.133314 0.198922 1.063000
-0.131549 0.198735 1.062000
-0.129787 0.198547 1.061000
-0.128029 0.198360 1.060000
-0.126154 0.197986 1.058000
-0.124168 0.197425 1.055000
-0.122423 0.197238 1.054000
-0.120566 0.196863 1.052000
-0.118829 0.196676 1.051000
-0.116984 0.196302 1.049000
-0.115145 0.195928 1.047000
-0.113420 0.195740 1.046000
-0.111698 0.195553 1.045000
-0.109980 0.195366 1.044000
-0.108161 0.194992 1.042000
-0.106450 0.194805 1.041000
-0.104742 0.194618 1.040000
-0.103037 0.194431 1.039000
-0.101336 0.194243 1.038000
-0.099541 0.193869 1.036000
-0.097942 0.193869 1.036000
-0.096250 0.193682 1.035000
-0.094652 0.193682 1.035000
-0.092964 0.193495 1.034000
-0.091457 0.193682 1.035000
-0.089772 0.193495 1.034000
-0.088261 0.193682 1.035000
-0.086663 0.193682 1.035000
-0.085148 0.193869 1.036000
-0.083629 0.194056 1.037000
-0.082187 0.194431 1.039000
-0.080660 0.194618 1.040000
-0.079207 0.194992 1.042000
-0.077822 0.195553 1.045000
-0.076354 0.195928 1.047000
-0.075024 0.196676 1.051000
-0.073611 0.197238 1.054000
-0.072188 0.197799 1.057000
-0.070757 0.198360 1.060000
-0.069316 0.198922 1.063000
-0.066221 0.199483 1.066000
-0.064757 0.200045 1.069000
-0.063225 0.200419 1.071000
-0.061686 0.200793 1.073000
-0.060198 0.201354 1.076000
-0.058591 0.201542 1.077000
-0.057034 0.201916 1.079000
-0.055369 0.201916 1.079000
-0.053753 0.202103 1.080000
-0.052182 0.202477 1.082000
-0.050512 0.202477 1.082000
-0.048932 0.202852 1.084000
-0.047302 0.203039 1.085000
-0.045711 0.203413 1.087000
-0.044114 0.203787 1.089000
-0.042511 0.204161 1.091000
-0.040939 0.204723 1.094000
-0.039322 0.205097 1.096000
-0.037733 0.205658 1.099000
-0.034402 0.206033 1.101000
-0.032822 0.206781 1.105000
-0.031200 0.207343 1.108000
-0.029596 0.208091 1.112000
-0.027955 0.208653 1.115000
-0.026328 0.209401 1.119000
-0.024688 0.210150 1.123000
-0.023016 0.210711 1.126000
-0.021353 0.211460 1.130000
-0.019661 0.212021 1.133000
-0.016192 0.212395 1.135000
-0.014478 0.212957 1.138000
-0.012732 0.213144 1.139000
-0.010983 0.213331 1.140000
-0.009240 0.213705 1.142000
-0.007483 0.213892 1.143000
-0.005724 0.214079 1.144000
-0.163788 0.203772 1.080000
-0.161971 0.203584 1.079000
-0.160305 0.203584 1.079000
-0.158493 0.203395 1.078000
-0.156683 0.203206 1.077000
-0.154877 0.203018 1.076000
-0.153073 0.202829 1.075000
-0.151273 0.202640 1.074000
-0.149476 0.202452 1.073000
-0.147681 0.202263 1.072000
-0.145890 0.202074 1.071000
-0.143968 0.201697 1.069000
-0.142318 0.201697 1.069000
-0.140536 0.201508 1.068000
-0.138627 0.201131 1.066000
-0.136853 0.200942 1.065000
-0.135082 0.200754 1.064000
-0.133314 0.200565 1.063000
-0.131425 0.200187 1.061000
-0.129787 0.200187 1.061000
-0.128029 0.199999 1.060000
-0.126273 0.199810 1.059000
-0.124168 0.199055 1.055000
-0.122423 0.198867 1.054000
-0.120566 0.198489 1.052000
-0.118829 0.198301 1.051000
-0.117095 0.198112 1.050000
-0.115145 0.197546 1.047000
-0.113420 0.197357 1.046000
-0.111698 0.197169 1.045000
-0.109980 0.196980 1.044000
-0.108161 0.196603 1.042000
-0.106450 0.196414 1.041000
-0.104742 0.196225 1.040000
-0.103037 0.196037 1.039000
-0.101336 0.195848 1.038000
-0.099541 0.195471 1.036000
-0.097942 0.195471 1.036000
-0.096250 0.195282 1.035000
-0.094652 0.195282 1.035000
-0.092964 0.195093 1.034000
-0.091368 0.195093 1.034000
-0.089772 0.195093 1.034000
-0.088176 0.195093 1.034000
-0.086663 0.195282 1.035000
-0.085148 0.195471 1.036000
-0.083629 0.195659 1.037000
-0.082187 0.196037 1.039000
-0.080660 0.196225 1.040000
-0.079207 0.196603 1.042000
-0.077822 0.197169 1.045000
-0.076427 0.197735 1.048000
-0.075024 0.198301 1.051000
-0.073611 0.198867 1.054000
-0.072188 0.199433 1.057000
-0.070757 0.199999 1.060000
-0.069316 0.200565 1.063000
-0.066221 0.201131 1.066000
-0.064696 0.201508 1.068000
-0.063225 0.202074 1.071000
-0.061686 0.202452 1.073000
-0.060142 0.202829 1.075000
-0.058537 0.203018 1.076000
-0.056981 0.203395 1.078000
-0.055369 0.203584 1.079000
-0.053703 0.203584 1.079000
-0.052086 0.203772 1.080000
-0.050512 0.204150 1.082000
-0.048887 0.204338 1.083000
-0.047302 0.204716 1.085000
-0.045669 0.204904 1.086000
-0.044114 0.205470 1.089000
-0.042511 0.205848 1.091000
-0.040902 0.206225 1.093000
-0.039358 0.206980 1.097000
-0.036069 0.207546 1.100000
-0.034465 0.208112 1.103000
-0.032851 0.208678 1.106000
-0.031200 0.209055 1.108000
-0.029596 0.209810 1.112000
-0.027955 0.210376 1.115000
-0.026328 0.211131 1.119000
-0.024688 0.211886 1.123000
-0.023016 0.212452 1.126000
-0.021335 0.213018 1.129000
-0.019644 0.213584 1.132000
-0.016192 0.214150 1.135000
-0.014465 0.214527 1.137000
-0.012732 0.214904 1.139000
-0.010983 0.215093 1.140000
-0.009248 0.215659 1.143000
-0.007490 0.215848 1.144000
-0.005729 0.216036 1.145000
-0.003965 0.216225 1.146000
-0.163637 0.205252 1.079000
-0.160157 0.205061 1.078000
-0.158493 0.205061 1.078000
-0.156538 0.204681 1.076000
-0.154877 0.204681 1.076000
-0.153073 0.204491 1.075000
-0.151273 0.204300 1.074000
-0.149476 0.204110 1.073000
-0.147681 0.203920 1.072000
-0.145890 0.203730 1.071000
-0.143968 0.203349 1.069000
-0.142184 0.203159 1.068000
-0.140404 0.202969 1.067000
-0.138627 0.202779 1.066000
-0.136724 0.202398 1.064000
-0.135082 0.202398 1.064000
-0.133314 0.202208 1.063000
-0.131425 0.201828 1.061000
-0.129665 0.201637 1.060000
-0.128029 0.201637 1.060000
-0.126154 0.201257 1.058000
-0.124168 0.200686 1.055000
-0.122423 0.200496 1.054000
-0.120566 0.200115 1.052000
-0.118829 0.199925 1.051000
-0.117095 0.199735 1.050000
-0.115255 0.199355 1.048000
-0.113420 0.198974 1.046000
-0.111698 0.198784 1.045000
-0.109980 0.198594 1.044000
-0.108161 0.198213 1.042000
-0.106450 0.198023 1.041000
-0.104742 0.197833 1.040000
-0.103037 0.197643 1.039000
-0.101336 0.197452 1.038000
-0.099541 0.197072 1.036000
-0.097942 0.197072 1.036000
-0.096250 0.196882 1.035000
-0.094652 0.196882 1.035000
-0.092964 0.196691 1.034000
-0.091368 0.196691 1.034000
-0.089772 0.196691 1.034000
-0.088176 0.196691 1.034000
-0.086663 0.196882 1.035000
-0.085066 0.196882 1.035000
-0.083629 0.197262 1.037000
-0.082187 0.197643 1.039000
-0.080660 0.197833 1.040000
-0.079207 0.198213 1.042000
-0.077822 0.198784 1.045000
-0.076427 0.199355 1.048000
-0.074952 0.199735 1.050000
-0.073611 0.200496 1.054000
-0.072120 0.200876 1.056000
-0.070757 0.201637 1.060000
-0.069316 0.202208 1.063000
-0.066159 0.202588 1.065000
-0.064696 0.203159 1.068000
-0.063166 0.203540 1.070000
-0.061629 0.203920 1.072000
-0.060086 0.204300 1.074000
-0.058482 0.204491 1.075000
-0.056876 0.204681 1.076000
-0.055317 0.205061 1.078000
-0.053703 0.205252 1.079000
-0.052086 0.205442 1.080000
-0.050465 0.205632 1.081000
-0.048841 0.205822 1.082000
-0.047258 0.206203 1.084000
-0.045669 0.206583 1.086000
-0.044114 0.207154 1.089000
-0.042511 0.207534 1.091000
-0.040939 0.208105 1.094000
-0.039358 0.208676 1.097000
-0.036069 0.209246 1.100000
-0.034465 0.209817 1.103000
-0.032851 0.210388 1.106000
-0.031228 0.210958 1.109000
-0.029596 0.211529 1.112000
-0.027955 0.212100 1.115000
-0.026328 0.212860 1.119000
-0.024666 0.213431 1.122000
-0.022996 0.214002 1.125000
-0.021316 0.214572 1.128000
-0.019644 0.215333 1.132000
-0.017928 0.215714 1.134000
-0.014465 0.216285 1.137000
-0.012732 0.216665 1.139000
-0.010993 0.217045 1.141000
-0.009248 0.217426 1.143000
-0.007497 0.217806 1.145000
-0.005734 0.217997 1.146000
-0.003972 0.218377 1.148000
-0.160157 0.206728 1.078000
-0.158199 0.206344 1.076000
-0.156538 0.206344 1.076000
-0.154877 0.206344 1.076000
-0.153073 0.206152 1.075000
-0.151132 0.205769 1.073000
-0.149476 0.205769 1.073000
-0.147681 0.205577 1.072000
-0.145890 0.205385 1.071000
-0.143968 0.205002 1.069000
-0.142184 0.204810 1.068000
-0.140404 0.204618 1.067000
-0.138497 0.204235 1.065000
-0.136724 0.204043 1.064000
-0.134955 0.203851 1.063000
-0.133189 0.203659 1.062000
-0.131425 0.203468 1.061000
-0.129665 0.203276 1.060000
-0.127908 0.203084 1.059000
-0.126035 0.202700 1.057000
-0.124168 0.202317 1.055000
-0.122423 0.202125 1.054000
-0.120566 0.201742 1.052000
-0.118829 0.201550 1.051000
-0.117095 0.201358 1.050000
-0.115365 0.201166 1.049000
-0.113420 0.200591 1.046000
-0.111698 0.200399 1.045000
-0.109980 0.200207 1.044000
-0.108161 0.199824 1.042000
-0.106450 0.199632 1.041000
-0.104742 0.199440 1.040000
-0.103037 0.199249 1.039000
-0.101336 0.199057 1.038000
-0.099541 0.198673 1.036000
-0.097942 0.198673 1.036000
-0.096250 0.198482 1.035000
-0.094652 0.198482 1.035000
-0.092964 0.198290 1.034000
-0.091368 0.198290 1.034000
-0.089772 0.198290 1.034000
-0.088176 0.198290 1.034000
-0.086663 0.198482 1.035000
-0.085066 0.198482 1.035000
-0.083629 0.198865 1.037000
-0.082187 0.199249 1.039000
-0.080660 0.199440 1.040000
-0.079207 0.199824 1.042000
-0.077822 0.200399 1.045000
-0.076354 0.200783 1.047000
-0.074952 0.201358 1.050000
-0.073471 0.201742 1.052000
-0.072120 0.202509 1.056000
-0.070690 0.203084 1.059000
-0.069186 0.203468 1.061000
-0.067739 0.204043 1.064000
-0.064575 0.204426 1.066000
-0.063048 0.204810 1.068000
-0.061571 0.205385 1.071000
-0.060030 0.205769 1.073000
-0.058482 0.206152 1.075000
-0.056823 0.206152 1.075000
-0.055266 0.206536 1.077000
-0.053653 0.206728 1.078000
-0.052037 0.206919 1.079000
-0.050418 0.207111 1.080000
-0.048841 0.207495 1.082000
-0.047258 0.207878 1.084000
-0.045669 0.208262 1.086000
-0.044114 0.208837 1.089000
-0.042511 0.209221 1.091000
-0.040939 0.209796 1.094000
-0.039394 0.210563 1.098000
-0.036102 0.211138 1.101000
-0.034465 0.211522 1.103000
-0.032851 0.212097 1.106000
-0.031228 0.212672 1.109000
-0.029596 0.213248 1.112000
-0.027955 0.213823 1.115000
-0.026328 0.214590 1.119000
-0.024666 0.215165 1.122000
-0.022996 0.215741 1.125000
-0.021316 0.216316 1.128000
-0.019644 0.217083 1.132000
-0.016192 0.217658 1.135000
-0.014465 0.218042 1.137000
-0.012732 0.218426 1.139000
-0.011003 0.219001 1.142000
-0.009256 0.219384 1.144000
-0.007503 0.219768 1.146000
-0.005739 0.219960 1.147000
-0.003975 0.220343 1.149000
-0.158199 0.208007 1.076000
-0.156392 0.207814 1.075000
-0.154733 0.207814 1.075000
-0.152931 0.207621 1.074000
-0.151132 0.207427 1.073000
-0.149336 0.207234 1.072000
-0.147544 0.207041 1.071000
-0.145890 0.207041 1.071000
-0.143968 0.206654 1.069000
-0.142184 0.206461 1.068000
-0.140404 0.206267 1.067000
-0.138497 0.205881 1.065000
-0.136724 0.205687 1.064000
-0.134955 0.205494 1.063000
-0.133063 0.205108 1.061000
-0.131301 0.204914 1.060000
-0.129665 0.204914 1.060000
-0.127908 0.204721 1.059000
-0.126035 0.204334 1.057000
-0.124168 0.203948 1.055000
-0.122423 0.203754 1.054000
-0.120566 0.203368 1.052000
-0.118829 0.203174 1.051000
-0.117095 0.202981 1.050000
-0.115365 0.202788 1.049000
-0.113528 0.202401 1.047000
-0.111805 0.202208 1.046000
-0.109980 0.201821 1.044000
-0.108264 0.201628 1.043000
-0.106450 0.201241 1.041000
-0.104742 0.201048 1.040000
-0.103037 0.200855 1.039000
-0.101336 0.200661 1.038000
-0.099637 0.200468 1.037000
-0.097942 0.200275 1.036000
-0.096250 0.200081 1.035000
-0.094652 0.200081 1.035000
-0.093054 0.200081 1.035000
-0.091368 0.199888 1.034000
-0.089772 0.199888 1.034000
-0.088176 0.199888 1.034000
-0.086663 0.200081 1.035000
-0.085148 0.200275 1.036000
-0.083629 0.200468 1.037000
-0.082187 0.200855 1.039000
-0.080660 0.201048 1.040000
-0.079207 0.201435 1.042000
-0.077747 0.201821 1.044000
-0.076354 0.202401 1.047000
-0.074881 0.202788 1.049000
-0.073471 0.203368 1.052000
-0.072052 0.203948 1.055000
-0.070557 0.204334 1.057000
-0.069121 0.204914 1.060000
-0.067675 0.205494 1.063000
-0.064515 0.205881 1.065000
-0.062989 0.206267 1.067000
-0.061456 0.206654 1.069000
-0.059974 0.207234 1.072000
-0.058374 0.207427 1.073000
-0.056823 0.207814 1.075000
-0.055215 0.208007 1.076000
-0.053603 0.208201 1.077000
-0.052037 0.208587 1.079000
-0.050418 0.208781 1.080000
-0.048841 0.209167 1.082000
-0.047302 0.209747 1.085000
-0.045669 0.209940 1.086000
-0.044114 0.210520 1.089000
-0.042550 0.211100 1.092000
-0.040939 0.211487 1.094000
-0.039394 0.212260 1.098000
-0.036102 0.212840 1.101000
-0.034496 0.213420 1.104000
-0.032851 0.213807 1.106000
-0.031228 0.214387 1.109000
-0.029596 0.214967 1.112000
-0.027955 0.215547 1.115000
-0.026328 0.216320 1.119000
-0.024666 0.216900 1.122000
-0.022996 0.217480 1.125000
-0.021316 0.218060 1.128000
-0.019644 0.218833 1.132000
-0.016192 0.219413 1.135000
-0.014465 0.219800 1.137000
-0.012754 0.220573 1.141000
-0.011012 0.220959 1.143000
-0.009264 0.221346 1.145000
-0.007510 0.221733 1.147000
-0.005744 0.221926 1.148000
-0.163182 0.209670 1.076000
-0.161371 0.209476 1.075000
-0.159711 0.209476 1.075000
-0.158052 0.209476 1.075000
-0.156247 0.209281 1.074000
-0.154589 0.209281 1.074000
-0.152788 0.209086 1.073000
-0.150991 0.208891 1.072000
-0.149336 0.208891 1.072000
-0.147544 0.208696 1.071000
-0.145754 0.208501 1.070000
-0.143968 0.208306 1.069000
-0.142184 0.208112 1.068000
-0.140273 0.207722 1.066000
-0.138367 0.207332 1.064000
-0.136596 0.207137 1.063000
-0.134828 0.206942 1.062000
-0.133063 0.206748 1.061000
-0.131301 0.206553 1.060000
-0.129543 0.206358 1.059000
-0.127787 0.206163 1.058000
-0.126035 0.205968 1.057000
-0.124168 0.205578 1.055000
-0.122423 0.205384 1.054000
-0.120681 0.205189 1.053000
-0.118943 0.204994 1.052000
-0.117207 0.204799 1.051000
-0.115365 0.204409 1.049000
-0.113528 0.204020 1.047000
-0.111805 0.203825 1.046000
-0.110085 0.203630 1.045000
-0.108368 0.203435 1.044000
-0.106552 0.203045 1.042000
-0.104843 0.202850 1.041000
-0.103037 0.202461 1.039000
-0.101336 0.202266 1.038000
-0.099637 0.202071 1.037000
-0.097942 0.201876 1.036000
-0.096343 0.201876 1.036000
-0.094652 0.201681 1.035000
-0.093054 0.201681 1.035000
-0.091368 0.201486 1.034000
-0.089772 0.201486 1.034000
-0.088261 0.201681 1.035000
-0.086663 0.201681 1.035000
-0.085148 0.201876 1.036000
-0.083629 0.202071 1.037000
-0.082187 0.202461 1.039000
-0.080660 0.202655 1.040000
-0.079207 0.203045 1.042000
-0.077747 0.203435 1.044000
-0.076281 0.203825 1.046000
-0.074881 0.204409 1.049000
-0.073401 0.204799 1.051000
-0.071915 0.205189 1.053000
-0.070490 0.205773 1.056000
-0.068990 0.206163 1.058000
-0.067548 0.206748 1.061000
-0.066034 0.207137 1.063000
-0.062930 0.207722 1.066000
-0.061399 0.208112 1.068000
-0.059918 0.208696 1.071000
-0.058319 0.208891 1.072000
-0.056717 0.209086 1.073000
-0.055163 0.209476 1.075000
-0.053554 0.209670 1.076000
-0.051989 0.210060 1.078000
-0.050418 0.210450 1.080000
-0.048841 0.210840 1.082000
-0.047302 0.211424 1.085000
-0.045711 0.211814 1.087000
-0.044155 0.212399 1.090000
-0.042550 0.212788 1.092000
-0.040976 0.213373 1.095000
-0.039394 0.213957 1.098000
-0.036102 0.214542 1.101000
-0.034496 0.215127 1.104000
-0.032881 0.215711 1.107000
-0.031228 0.216101 1.109000
-0.029596 0.216685 1.112000
-0.027955 0.217270 1.115000
-0.026328 0.218050 1.119000
-0.024666 0.218634 1.122000
-0.022996 0.219219 1.125000
-0.021316 0.219803 1.128000
-0.019644 0.220583 1.132000
-0.016192 0.221167 1.135000
-0.014478 0.221752 1.138000
-0.012754 0.222336 1.141000
-0.011022 0.222921 1.144000
-0.009272 0.223311 1.146000
-0.007510 0.223506 1.147000
-0.005749 0.223895 1.149000
-0.164536 0.210941 1.074000
-0.162879 0.210941 1.074000
-0.161070 0.210744 1.073000
-0.159414 0.210744 1.073000
-0.157758 0.210744 1.073000
-0.156101 0.210744 1.073000
-0.154445 0.210744 1.073000
-0.152646 0.210548 1.072000
-0.150850 0.210352 1.071000
-0.149197 0.210352 1.071000
-0.147406 0.210155 1.070000
-0.145618 0.209959 1.069000
-0.143833 0.209762 1.068000
-0.142051 0.209566 1.067000
-0.140141 0.209173 1.065000
-0.138367 0.208977 1.064000
-0.136596 0.208780 1.063000
-0.134701 0.208388 1.061000
-0.132938 0.208191 1.060000
-0.131301 0.208191 1.060000
-0.129420 0.207798 1.058000
-0.127666 0.207602 1.057000
-0.125915 0.207406 1.056000
-0.124168 0.207209 1.055000
-0.122423 0.207013 1.054000
-0.120681 0.206816 1.053000
-0.118943 0.206620 1.052000
-0.117207 0.206424 1.051000
-0.115475 0.206227 1.050000
-0.113637 0.205834 1.048000
-0.111912 0.205638 1.047000
-0.110085 0.205245 1.045000
-0.108368 0.205049 1.044000
-0.106552 0.204656 1.042000
-0.104843 0.204459 1.041000
-0.103137 0.204263 1.040000
-0.101434 0.204067 1.039000
-0.099734 0.203870 1.038000
-0.097942 0.203477 1.036000
-0.096343 0.203477 1.036000
-0.094652 0.203281 1.035000
-0.093054 0.203281 1.035000
-0.091368 0.203085 1.034000
-0.089772 0.203085 1.034000
-0.088261 0.203281 1.035000
-0.086663 0.203281 1.035000
-0.085148 0.203477 1.036000
-0.083549 0.203477 1.036000
-0.082107 0.203870 1.038000
-0.080660 0.204263 1.040000
-0.079131 0.204459 1.041000
-0.077673 0.204852 1.043000
-0.076208 0.205245 1.045000
-0.074738 0.205638 1.047000
-0.073261 0.206031 1.049000
-0.071847 0.206620 1.052000
-0.070357 0.207013 1.054000
-0.068860 0.207406 1.056000
-0.067421 0.207995 1.059000
-0.065910 0.208388 1.061000
-0.064454 0.208977 1.064000
-0.061341 0.209566 1.067000
-0.059806 0.209959 1.069000
-0.058265 0.210352 1.071000
-0.056717 0.210744 1.073000
-0.055163 0.211137 1.075000
-0.053554 0.211334 1.076000
-0.051989 0.211727 1.078000
-0.050418 0.212119 1.080000
-0.048887 0.212709 1.083000
-0.047346 0.213298 1.086000
-0.045753 0.213691 1.088000
-0.044195 0.214280 1.091000
-0.042628 0.214869 1.094000
-0.041051 0.215458 1.097000
-0.039430 0.215851 1.099000
-0.036135 0.216440 1.102000
-0.034527 0.217029 1.105000
-0.032911 0.217619 1.108000
-0.031257 0.218012 1.110000
-0.029623 0.218601 1.113000
-0.027980 0.219190 1.116000
-0.026328 0.219779 1.119000
-0.024666 0.220368 1.122000
-0.022996 0.220958 1.125000
-0.021316 0.221547 1.128000
-0.019644 0.222332 1.132000
-0.016192 0.222922 1.135000
-0.014478 0.223511 1.138000
-0.012754 0.224100 1.141000
-0.011022 0.224689 1.144000
-0.009272 0.225082 1.146000
-0.007523 0.225671 1.149000
-0.005749 0.225671 1.149000
-0.164230 0.212205 1.072000
-0.162575 0.212205 1.072000
-0.160770 0.212007 1.071000
-0.159117 0.212007 1.071000
-0.157464 0.212007 1.071000
-0.155810 0.212007 1.071000
-0.154301 0.212205 1.072000
-0.152504 0.212007 1.071000
-0.150850 0.212007 1.071000
-0.149058 0.211809 1.070000
-0.147268 0.211611 1.069000
-0.145618 0.211611 1.069000
-0.143833 0.211413 1.068000
-0.141918 0.211017 1.066000
-0.140009 0.210621 1.064000
-0.138237 0.210424 1.063000
-0.136467 0.210226 1.062000
-0.134574 0.209830 1.060000
-0.132938 0.209830 1.060000
-0.131177 0.209632 1.059000
-0.129298 0.209236 1.057000
-0.127666 0.209236 1.057000
-0.125796 0.208840 1.055000
-0.124168 0.208840 1.055000
-0.122423 0.208642 1.054000
-0.120681 0.208444 1.053000
-0.118943 0.208246 1.052000
-0.117207 0.208048 1.051000
-0.115475 0.207850 1.050000
-0.113745 0.207652 1.049000
-0.111912 0.207256 1.047000
-0.110191 0.207058 1.046000
-0.108368 0.206662 1.044000
-0.106654 0.206464 1.043000
-0.104843 0.206069 1.041000
-0.103137 0.205871 1.040000
-0.101434 0.205673 1.039000
-0.099734 0.205475 1.038000
-0.098037 0.205277 1.037000
-0.096343 0.205079 1.036000
-0.094652 0.204881 1.035000
-0.093054 0.204881 1.035000
-0.091457 0.204881 1.035000
-0.089859 0.204881 1.035000
-0.088261 0.204881 1.035000
-0.086663 0.204881 1.035000
-0.085148 0.205079 1.036000
-0.083549 0.205079 1.036000
-0.082107 0.205475 1.038000
-0.080583 0.205673 1.039000
-0.079131 0.206069 1.041000
-0.077598 0.206267 1.042000
-0.076136 0.206662 1.044000
-0.074595 0.206860 1.045000
-0.073192 0.207454 1.048000
-0.071710 0.207850 1.050000
-0.070223 0.208246 1.052000
-0.068795 0.208840 1.055000
-0.067293 0.209236 1.057000
-0.065848 0.209830 1.060000
-0.064393 0.210424 1.063000
-0.062871 0.210819 1.065000
-0.059750 0.211413 1.068000
-0.058210 0.211809 1.070000
-0.056664 0.212205 1.072000
-0.055112 0.212601 1.074000
-0.053554 0.212997 1.076000
-0.052037 0.213591 1.079000
-0.050465 0.213987 1.081000
-0.048932 0.214581 1.084000
-0.047346 0.214976 1.086000
-0.045795 0.215570 1.089000
-0.044236 0.216164 1.092000
-0.042667 0.216758 1.095000
-0.041089 0.217352 1.098000
-0.037767 0.217748 1.100000
-0.036168 0.218342 1.103000
-0.034559 0.218935 1.106000
-0.032911 0.219331 1.108000
-0.031285 0.219925 1.111000
-0.029623 0.220321 1.113000
-0.027980 0.220915 1.116000
-0.026328 0.221509 1.119000
-0.024666 0.222103 1.122000
-0.022996 0.222697 1.125000
-0.021316 0.223290 1.128000
-0.019644 0.224082 1.132000
-0.016192 0.224676 1.135000
-0.014478 0.225270 1.138000
-0.012754 0.225864 1.141000
-0.011022 0.226458 1.144000
-0.009272 0.226854 1.146000
-0.007516 0.227249 1.148000
-0.005749 0.227447 1.149000
-0.164230 0.213862 1.072000
-0.162424 0.213663 1.071000
-0.160770 0.213663 1.071000
-0.158968 0.213463 1.070000
-0.157464 0.213663 1.071000
-0.155665 0.213463 1.070000
-0.154013 0.213463 1.070000
-0.152219 0.213264 1.069000
-0.150428 0.213064 1.068000
-0.148779 0.213064 1.068000
-0.146993 0.212865 1.067000
-0.145482 0.213064 1.068000
-0.143698 0.212865 1.067000
-0.141785 0.212466 1.065000
-0.140009 0.212266 1.064000
-0.138237 0.212067 1.063000
-0.136339 0.211668 1.061000
-0.134574 0.211468 1.060000
-0.132938 0.211468 1.060000
-0.131054 0.211069 1.058000
-0.129298 0.210870 1.057000
-0.127546 0.210670 1.056000
-0.125796 0.210471 1.055000
-0.124050 0.210271 1.054000
-0.122423 0.210271 1.054000
-0.120681 0.210072 1.053000
-0.118943 0.209872 1.052000
-0.117207 0.209673 1.051000
-0.115475 0.209473 1.050000
-0.113745 0.209274 1.049000
-0.111912 0.208875 1.047000
-0.110191 0.208675 1.046000
-0.108472 0.208476 1.045000
-0.106654 0.208077 1.043000
-0.104843 0.207678 1.041000
-0.103137 0.207478 1.040000
-0.101434 0.207279 1.039000
-0.099734 0.207079 1.038000
-0.098037 0.206880 1.037000
-0.096343 0.206680 1.036000
-0.094744 0.206680 1.036000
-0.093054 0.206481 1.035000
-0.091457 0.206481 1.035000
-0.089859 0.206481 1.035000
-0.088261 0.206481 1.035000
-0.086663 0.206481 1.035000
-0.085148 0.206680 1.036000
-0.083629 0.206880 1.037000
-0.082107 0.207079 1.038000
-0.080583 0.207279 1.039000
-0.079055 0.207478 1.040000
-0.077524 0.207678 1.041000
-0.075990 0.207877 1.042000
-0.074524 0.208276 1.044000
-0.073052 0.208675 1.046000
-0.071642 0.209274 1.049000
-0.070156 0.209673 1.051000
-0.068664 0.210072 1.053000
-0.067230 0.210670 1.056000
-0.065786 0.211269 1.059000
-0.064333 0.211867 1.062000
-0.062871 0.212466 1.065000
-0.059750 0.213064 1.068000
-0.058156 0.213264 1.069000
-0.056664 0.213862 1.072000
-0.055163 0.214461 1.075000
-0.053603 0.214860 1.077000
-0.052037 0.215259 1.079000
-0.050512 0.215857 1.082000
-0.048977 0.216456 1.085000
-0.047433 0.217054 1.088000
-0.045879 0.217653 1.091000
-0.044317 0.218251 1.094000
-0.042706 0.218650 1.096000
-0.041089 0.219049 1.098000
-0.037802 0.219648 1.101000
-0.036200 0.220246 1.104000
-0.034559 0.220645 1.106000
-0.032911 0.221044 1.108000
-0.031285 0.221643 1.111000
-0.029623 0.222042 1.113000
-0.027980 0.222640 1.116000
-0.026328 0.223239 1.119000
-0.024666 0.223837 1.122000
-0.022996 0.224435 1.125000
-0.021316 0.225034 1.128000
-0.019644 0.225832 1.132000
-0.016192 0.226431 1.135000
-0.014478 0.227029 1.138000
-0.012754 0.227627 1.141000
-0.011012 0.228026 1.143000
-0.009264 0.228425 1.145000
-0.007510 0.228824 1.147000
-0.005749 0.229223 1.149000
-0.165885 0.215519 1.072000
-0.164077 0.215318 1.071000
-0.162424 0.215318 1.071000
-0.160770 0.215318 1.071000
-0.158968 0.215117 1.070000
-0.157317 0.215117 1.070000
-0.155519 0.214916 1.069000
-0.153869 0.214916 1.069000
-0.152219 0.214916 1.069000
-0.150428 0.214715 1.068000
-0.148779 0.214715 1.068000
-0.146993 0.214514 1.067000
-0.145346 0.214514 1.067000
-0.143429 0.214112 1.065000
-0.141652 0.213911 1.064000
-0.139878 0.213710 1.063000
-0.138107 0.213509 1.062000
-0.136210 0.213107 1.060000
-0.134447 0.212906 1.059000
-0.132812 0.212906 1.059000
-0.130930 0.212503 1.057000
-0.129298 0.212503 1.057000
-0.127425 0.212101 1.055000
-0.125796 0.212101 1.055000
-0.124050 0.211900 1.054000
-0.122423 0.211900 1.054000
-0.120681 0.211699 1.053000
-0.118943 0.211498 1.052000
-0.117207 0.211297 1.051000
-0.115475 0.211096 1.050000
-0.113745 0.210895 1.049000
-0.111912 0.210493 1.047000
-0.110191 0.210292 1.046000
-0.108472 0.210091 1.045000
-0.106654 0.209689 1.043000
-0.104944 0.209488 1.042000
-0.103236 0.209287 1.041000
-0.101531 0.209086 1.040000
-0.099830 0.208885 1.039000
-0.098131 0.208684 1.038000
-0.096343 0.208282 1.036000
-0.094744 0.208282 1.036000
-0.093054 0.208081 1.035000
-0.091457 0.208081 1.035000
-0.089859 0.208081 1.035000
-0.088261 0.208081 1.035000
-0.086663 0.208081 1.035000
-0.085148 0.208282 1.036000
-0.083629 0.208483 1.037000
-0.082107 0.208684 1.038000
-0.080583 0.208885 1.039000
-0.079055 0.209086 1.040000
-0.077524 0.209287 1.041000
-0.075990 0.209488 1.042000
-0.074524 0.209890 1.044000
-0.073052 0.210292 1.046000
-0.071506 0.210493 1.047000
-0.070090 0.211096 1.050000
-0.068599 0.211498 1.052000
-0.067166 0.212101 1.055000
-0.065786 0.212906 1.059000
-0.064272 0.213308 1.061000
-0.062871 0.214112 1.065000
-0.059750 0.214715 1.068000
-0.058210 0.215117 1.070000
-0.056664 0.215519 1.072000
-0.055163 0.216122 1.075000
-0.053653 0.216725 1.078000
-0.052134 0.217329 1.081000
-0.050605 0.217932 1.084000
-0.049067 0.218535 1.087000
-0.047476 0.218937 1.089000
-0.045921 0.219540 1.092000
-0.044357 0.220143 1.095000
-0.042745 0.220545 1.097000
-0.039465 0.221148 1.100000
-0.037836 0.221550 1.102000
-0.036200 0.221953 1.104000
-0.034590 0.222556 1.107000
-0.032940 0.222958 1.109000
-0.031285 0.223360 1.111000
-0.029623 0.223762 1.113000
-0.027980 0.224365 1.116000
-0.026328 0.224968 1.119000
-0.024666 0.225571 1.122000
-0.022996 0.226174 1.125000
-0.021316 0.226778 1.128000
-0.019626 0.227381 1.131000
-0.017928 0.227984 1.134000
-0.014465 0.228587 1.137000
-0.012743 0.229190 1.140000
-0.011012 0.229793 1.143000
-0.009264 0.230195 1.145000
-0.007510 0.230597 1.147000
-0.005739 0.230597 1.147000
-0.164077 0.216974 1.071000
-0.162272 0.216771 1.070000
-0.160620 0.216771 1.070000
-0.158820 0.216568 1.069000
-0.157170 0.216568 1.069000
-0.155519 0.216568 1.069000
-0.153725 0.216366 1.068000
-0.152076 0.216366 1.068000
-0.150428 0.216366 1.068000
-0.148640 0.216163 1.067000
-0.146993 0.216163 1.067000
-0.145073 0.215758 1.065000
-0.143294 0.215555 1.064000
-0.141652 0.215555 1.064000
-0.139878 0.215353 1.063000
-0.137977 0.214948 1.061000
-0.136210 0.214745 1.060000
-0.134447 0.214542 1.059000
-0.132687 0.214340 1.058000
-0.130682 0.213732 1.055000
-0.129053 0.213732 1.055000
-0.127304 0.213530 1.054000
-0.125677 0.213530 1.054000
-0.124050 0.213530 1.054000
-0.122190 0.213124 1.052000
-0.120566 0.213124 1.052000
-0.118829 0.212922 1.051000
-0.117207 0.212922 1.051000
-0.115475 0.212719 1.050000
-0.113637 0.212314 1.048000
-0.111912 0.212111 1.047000
-0.110191 0.211909 1.046000
-0.108472 0.211706 1.045000
-0.106654 0.211301 1.043000
-0.104944 0.211098 1.042000
-0.103236 0.210896 1.041000
-0.101531 0.210693 1.040000
-0.099830 0.210491 1.039000
-0.098131 0.210288 1.038000
-0.096436 0.210086 1.037000
-0.094744 0.209883 1.036000
-0.093144 0.209883 1.036000
-0.091545 0.209883 1.036000
-0.089859 0.209680 1.035000
-0.088261 0.209680 1.035000
-0.086747 0.209883 1.036000
-0.085148 0.209883 1.036000
-0.083710 0.210288 1.038000
-0.082107 0.210288 1.038000
-0.080583 0.210491 1.039000
-0.079055 0.210693 1.040000
-0.077524 0.210896 1.041000
-0.075990 0.211098 1.042000
-0.074524 0.211504 1.044000
-0.073052 0.211909 1.046000
-0.071574 0.212314 1.048000
-0.070156 0.212922 1.051000
-0.068664 0.213327 1.053000
-0.067230 0.213935 1.056000
-0.065786 0.214542 1.059000
-0.064393 0.215353 1.063000
-0.062871 0.215758 1.065000
-0.059750 0.216366 1.068000
-0.058265 0.216974 1.071000
-0.056717 0.217379 1.073000
-0.055215 0.217987 1.076000
-0.053703 0.218594 1.079000
-0.052182 0.219202 1.082000
-0.050652 0.219810 1.085000
-0.049067 0.220215 1.087000
-0.047520 0.220823 1.090000
-0.045963 0.221431 1.093000
-0.044357 0.221836 1.095000
-0.042784 0.222443 1.098000
-0.039465 0.222849 1.100000
-0.037836 0.223254 1.102000
-0.036200 0.223659 1.104000
-0.034590 0.224267 1.107000
-0.032940 0.224672 1.109000
-0.031285 0.225077 1.111000
-0.029623 0.225482 1.113000
-0.027980 0.226090 1.116000
-0.026328 0.226698 1.119000
-0.024644 0.227103 1.121000
-0.022975 0.227711 1.124000
-0.021297 0.228319 1.127000
-0.019609 0.228926 1.130000
-0.017912 0.229534 1.133000
-0.014452 0.230142 1.136000
-0.012732 0.230750 1.139000
-0.010993 0.231155 1.141000
-0.009248 0.231560 1.143000
-0.007497 0.231965 1.145000
-0.005739 0.232370 1.147000
-0.164077 0.218629 1.071000
-0.162272 0.218425 1.070000
-0.160620 0.218425 1.070000
-0.158820 0.218221 1.069000
-0.157170 0.218221 1.069000
-0.155374 0.218017 1.068000
-0.153725 0.218017 1.068000
-0.152076 0.218017 1.068000
-0.150287 0.217812 1.067000
-0.148640 0.217812 1.067000
-0.146855 0.217608 1.066000
-0.145073 0.217404 1.065000
-0.143294 0.217200 1.064000
-0.141519 0.216996 1.063000
-0.139746 0.216792 1.062000
-0.137977 0.216588 1.061000
-0.136210 0.216384 1.060000
-0.134320 0.215975 1.058000
-0.132561 0.215771 1.057000
-0.130682 0.215363 1.055000
-0.128931 0.215159 1.054000
-0.127304 0.215159 1.054000
-0.125438 0.214750 1.052000
-0.123814 0.214750 1.052000
-0.122074 0.214546 1.051000
-0.120452 0.214546 1.051000
-0.118716 0.214342 1.050000
-0.117095 0.214342 1.050000
-0.115365 0.214138 1.049000
-0.113637 0.213934 1.048000
-0.111912 0.213730 1.047000
-0.110191 0.213526 1.046000
-0.108368 0.213117 1.044000
-0.106552 0.212709 1.042000
-0.104944 0.212709 1.042000
-0.103236 0.212505 1.041000
-0.101531 0.212301 1.040000
-0.099830 0.212097 1.039000
-0.098226 0.212097 1.039000
-0.096529 0.211893 1.038000
-0.094835 0.211688 1.037000
-0.093234 0.211688 1.037000
-0.091545 0.211484 1.036000
-0.089946 0.211484 1.036000
-0.088346 0.211484 1.036000
-0.086747 0.211484 1.036000
-0.085312 0.211893 1.038000
-0.083710 0.211893 1.038000
-0.082187 0.212097 1.039000
-0.080583 0.212097 1.039000
-0.079131 0.212505 1.041000
-0.077598 0.212709 1.042000
-0.076136 0.213117 1.044000
-0.074595 0.213322 1.045000
-0.073122 0.213730 1.047000
-0.071642 0.214138 1.049000
-0.070156 0.214546 1.051000
-0.068729 0.215159 1.054000
-0.067293 0.215771 1.057000
-0.065848 0.216384 1.060000
-0.064393 0.216996 1.063000
-0.062871 0.217404 1.065000
-0.059750 0.218017 1.068000
-0.058265 0.218629 1.071000
-0.056717 0.219037 1.073000
-0.055163 0.219446 1.075000
-0.053703 0.220262 1.079000
-0.052182 0.220875 1.082000
-0.050605 0.221283 1.084000
-0.049067 0.221895 1.087000
-0.047520 0.222508 1.090000
-0.045921 0.222916 1.092000
-0.044357 0.223528 1.095000
-0.042784 0.224141 1.098000
-0.039465 0.224549 1.100000
-0.037870 0.225161 1.103000
-0.036233 0.225570 1.105000
-0.034590 0.225978 1.107000
-0.032940 0.226386 1.109000
-0.031285 0.226794 1.111000
-0.029623 0.227203 1.113000
-0.027980 0.227815 1.116000
-0.026304 0.228223 1.118000
-0.024644 0.228836 1.121000
-0.022955 0.229244 1.123000
-0.021278 0.229856 1.126000
-0.019592 0.230469 1.129000
-0.017896 0.231081 1.132000
-0.016192 0.231694 1.135000
-0.012721 0.232306 1.138000
-0.010983 0.232714 1.140000
-0.009240 0.233123 1.142000
-0.007483 0.233327 1.143000
-0.005729 0.233735 1.145000
-0.003965 0.233939 1.146000
-0.163924 0.220079 1.070000
-0.162120 0.219873 1.069000
-0.160470 0.219873 1.069000
-0.158820 0.219873 1.069000
-0.157170 0.219873 1.069000
-0.155374 0.219667 1.068000
-0.153725 0.219667 1.068000
-0.152076 0.219667 1.068000
-0.150287 0.219462 1.067000
-0.148501 0.219256 1.066000
-0.146717 0.219050 1.065000
-0.145073 0.219050 1.065000
-0.143294 0.218845 1.064000
-0.141519 0.218639 1.063000
-0.139746 0.218433 1.062000
-0.137847 0.218022 1.060000
-0.136082 0.217816 1.059000
-0.134320 0.217611 1.058000
-0.132311 0.216994 1.055000
-0.130558 0.216788 1.054000
-0.128809 0.216582 1.053000
-0.127062 0.216377 1.052000
-0.125319 0.216171 1.051000
-0.123697 0.216171 1.051000
-0.121958 0.215965 1.050000
-0.120337 0.215965 1.050000
-0.118603 0.215760 1.049000
-0.116984 0.215760 1.049000
-0.115145 0.215348 1.047000
-0.113528 0.215348 1.047000
-0.111805 0.215142 1.046000
-0.110085 0.214937 1.045000
-0.108368 0.214731 1.044000
-0.106552 0.214320 1.042000
-0.104944 0.214320 1.042000
-0.103236 0.214114 1.041000
-0.101531 0.213908 1.040000
-0.099926 0.213908 1.040000
-0.098226 0.213703 1.039000
-0.096622 0.213703 1.039000
-0.094926 0.213497 1.038000
-0.093324 0.213497 1.038000
-0.091722 0.213497 1.038000
-0.090032 0.213291 1.037000
-0.088432 0.213291 1.037000
-0.086915 0.213497 1.038000
-0.085312 0.213497 1.038000
-0.083790 0.213703 1.039000
-0.082187 0.213703 1.039000
-0.080660 0.213908 1.040000
-0.079131 0.214114 1.041000
-0.077598 0.214320 1.042000
-0.076136 0.214731 1.044000
-0.074667 0.215142 1.046000
-0.073122 0.215348 1.047000
-0.071710 0.215965 1.050000
-0.070223 0.216377 1.052000
-0.068795 0.216994 1.055000
-0.067293 0.217405 1.057000
-0.065910 0.218228 1.061000
-0.064393 0.218639 1.063000
-0.062871 0.219050 1.065000
-0.059750 0.219667 1.068000
-0.058156 0.219873 1.069000
-0.056664 0.220490 1.072000
-0.055163 0.221107 1.075000
-0.053653 0.221724 1.078000
-0.052086 0.222136 1.080000
-0.050558 0.222753 1.083000
-0.049022 0.223370 1.086000
-0.047476 0.223987 1.089000
-0.045921 0.224604 1.092000
-0.044357 0.225221 1.095000
-0.042745 0.225632 1.097000
-0.039465 0.226249 1.100000
-0.037802 0.226455 1.101000
-0.036200 0.227072 1.104000
-0.034559 0.227483 1.106000
-0.032940 0.228100 1.109000
-0.031285 0.228512 1.111000
-0.029623 0.228923 1.113000
-0.027955 0.229334 1.115000
-0.026304 0.229952 1.118000
-0.024622 0.230363 1.120000
-0.022955 0.230980 1.123000
-0.021259 0.231391 1.125000
-0.019574 0.232008 1.128000
-0.017881 0.232625 1.131000
-0.016163 0.233037 1.133000
-0.012699 0.233654 1.136000
-0.010964 0.234065 1.138000
-0.009224 0.234477 1.140000
-0.007477 0.234888 1.142000
-0.005719 0.235094 1.143000
-0.003961 0.235505 1.145000
-0.162272 0.221733 1.070000
-0.160470 0.221526 1.069000
-0.158820 0.221526 1.069000
-0.157170 0.221526 1.069000
-0.155374 0.221318 1.068000
-0.153725 0.221318 1.068000
-0.151934 0.221111 1.067000
-0.150287 0.221111 1.067000
-0.148501 0.220904 1.066000
-0.146717 0.220697 1.065000
-0.144937 0.220489 1.064000
-0.143160 0.220282 1.063000
-0.141386 0.220075 1.062000
-0.139615 0.219868 1.061000
-0.137847 0.219661 1.060000
-0.136082 0.219453 1.059000
-0.134193 0.219039 1.057000
-0.132185 0.218417 1.054000
-0.130434 0.218210 1.053000
-0.128686 0.218003 1.052000
-0.126942 0.217795 1.051000
-0.125319 0.217795 1.051000
-0.123579 0.217588 1.050000
-0.121842 0.217381 1.049000
-0.120223 0.217381 1.049000
-0.118490 0.217174 1.048000
-0.116761 0.216967 1.047000
-0.115145 0.216967 1.047000
-0.113420 0.216759 1.046000
-0.111698 0.216552 1.045000
-0.109980 0.216345 1.044000
-0.108264 0.216138 1.043000
-0.106552 0.215930 1.042000
-0.104944 0.215930 1.042000
-0.103236 0.215723 1.041000
-0.101531 0.215516 1.040000
-0.099926 0.215516 1.040000
-0.098226 0.215309 1.039000
-0.096622 0.215309 1.039000
-0.095018 0.215309 1.039000
-0.093324 0.215102 1.038000
-0.091722 0.215102 1.038000
-0.090119 0.215102 1.038000
-0.088517 0.215102 1.038000
-0.086915 0.215102 1.038000
-0.085394 0.215309 1.039000
-0.083790 0.215309 1.039000
-0.082266 0.215516 1.040000
-0.080660 0.215516 1.040000
-0.079131 0.215723 1.041000
-0.077673 0.216138 1.043000
-0.076208 0.216552 1.045000
-0.074738 0.216967 1.047000
-0.073261 0.217381 1.049000
-0.071779 0.217795 1.051000
-0.070290 0.218210 1.053000
-0.068860 0.218832 1.056000
-0.067421 0.219453 1.059000
-0.065910 0.219868 1.061000
-0.064393 0.220282 1.063000
-0.062811 0.220489 1.064000
-0.059694 0.221111 1.067000
-0.058102 0.221318 1.068000
-0.056611 0.221940 1.071000
-0.055061 0.222354 1.073000
-0.053554 0.222976 1.076000
-0.052037 0.223598 1.079000
-0.050512 0.224219 1.082000
-0.048977 0.224841 1.085000
-0.047433 0.225463 1.088000
-0.045879 0.226085 1.091000
-0.044317 0.226706 1.094000
-0.042706 0.227121 1.096000
-0.041089 0.227535 1.098000
-0.037767 0.227950 1.100000
-0.036168 0.228571 1.103000
-0.034559 0.229193 1.106000
-0.032911 0.229607 1.108000
-0.031285 0.230229 1.111000
-0.029623 0.230644 1.113000
-0.027930 0.230851 1.114000
-0.026281 0.231472 1.117000
-0.024600 0.231887 1.119000
-0.022934 0.232509 1.122000
-0.021240 0.232923 1.124000
-0.019557 0.233545 1.127000
-0.017865 0.234166 1.130000
-0.016149 0.234581 1.132000
-0.014427 0.234995 1.134000
-0.010955 0.235617 1.137000
-0.009207 0.235824 1.138000
-0.007464 0.236239 1.140000
-0.005709 0.236446 1.141000
-0.003951 0.236653 1.142000
-0.002190 0.236860 1.143000
-0.163924 0.223387 1.070000
-0.162120 0.223178 1.069000
-0.160470 0.223178 1.069000
-0.158820 0.223178 1.069000
-0.157023 0.222969 1.068000
-0.155374 0.222969 1.068000
-0.153725 0.222969 1.068000
-0.151934 0.222760 1.067000
-0.150146 0.222552 1.066000
-0.148361 0.222343 1.065000
-0.146717 0.222343 1.065000
-0.144937 0.222134 1.064000
-0.143160 0.221925 1.063000
-0.141252 0.221508 1.061000
-0.139483 0.221299 1.060000
-0.137717 0.221090 1.059000
-0.135825 0.220673 1.057000
-0.134066 0.220464 1.056000
-0.132185 0.220046 1.054000
-0.130310 0.219629 1.052000
-0.128564 0.219420 1.051000
-0.126821 0.219211 1.050000
-0.125200 0.219211 1.050000
-0.123461 0.219002 1.049000
-0.121842 0.219002 1.049000
-0.119993 0.218585 1.047000
-0.118377 0.218585 1.047000
-0.116649 0.218376 1.046000
-0.115035 0.218376 1.046000
-0.113312 0.218167 1.045000
-0.111591 0.217959 1.044000
-0.109874 0.217750 1.043000
-0.108161 0.217541 1.042000
-0.106552 0.217541 1.042000
-0.104843 0.217332 1.041000
-0.103236 0.217332 1.041000
-0.101531 0.217124 1.040000
-0.099926 0.217124 1.040000
-0.098320 0.217124 1.040000
-0.096622 0.216915 1.039000
-0.095018 0.216915 1.039000
-0.093414 0.216915 1.039000
-0.091810 0.216915 1.039000
-0.090119 0.216706 1.038000
-0.088602 0.216915 1.039000
-0.086998 0.216915 1.039000
-0.085477 0.217124 1.040000
-0.083871 0.217124 1.040000
-0.082266 0.217124 1.040000
-0.080738 0.217332 1.041000
-0.079207 0.217541 1.042000
-0.077747 0.217959 1.044000
-0.076281 0.218376 1.046000
-0.074809 0.218794 1.048000
-0.073331 0.219211 1.050000
-0.071847 0.219629 1.052000
-0.070357 0.220046 1.054000
-0.068925 0.220673 1.057000
-0.067421 0.221090 1.059000
-0.065848 0.221299 1.060000
-0.064393 0.221925 1.063000
-0.062811 0.222134 1.064000
-0.059638 0.222552 1.066000
-0.058102 0.222969 1.068000
-0.056559 0.223387 1.070000
-0.055009 0.223804 1.072000
-0.053504 0.224431 1.075000
-0.051989 0.225057 1.078000
-0.050418 0.225474 1.080000
-0.048841 0.225892 1.082000
-0.047302 0.226518 1.085000
-0.045753 0.227145 1.088000
-0.044195 0.227771 1.091000
-0.042628 0.228397 1.094000
-0.041051 0.229024 1.097000
-0.039430 0.229441 1.099000
-0.036135 0.230067 1.102000
-0.034527 0.230694 1.105000
-0.032911 0.231320 1.108000
-0.031257 0.231738 1.110000
-0.029623 0.232364 1.113000
-0.027930 0.232573 1.114000
-0.026257 0.232990 1.116000
-0.024600 0.233617 1.119000
-0.022914 0.234034 1.121000
-0.021221 0.234452 1.123000
-0.019540 0.235078 1.126000
-0.017833 0.235496 1.128000
-0.016135 0.236122 1.131000
-0.014414 0.236539 1.133000
-0.012687 0.236957 1.135000
-0.009199 0.237374 1.137000
-0.007451 0.237583 1.138000
-0.005699 0.237792 1.139000
-0.003948 0.238210 1.141000
-0.002186 0.238210 1.141000
-0.000425 0.238210 1.141000
-0.163770 0.224830 1.069000
-0.162120 0.224830 1.069000
-0.160470 0.224830 1.069000
-0.158671 0.224620 1.068000
-0.157023 0.224620 1.068000
-0.155228 0.224410 1.067000
-0.153581 0.224410 1.067000
-0.151934 0.224410 1.067000
-0.150146 0.224199 1.066000
-0.148361 0.223989 1.065000
-0.146579 0.223779 1.064000
-0.144801 0.223568 1.063000
-0.143025 0.223358 1.062000
-0.141252 0.223148 1.061000
-0.139483 0.222937 1.060000
-0.137587 0.222517 1.058000
-0.135696 0.222096 1.056000
-0.133812 0.221676 1.054000
-0.131934 0.221255 1.052000
-0.130187 0.221045 1.051000
-0.128442 0.220834 1.050000
-0.126700 0.220624 1.049000
-0.124961 0.220414 1.048000
-0.123344 0.220414 1.048000
-0.121610 0.220203 1.047000
-0.119993 0.220203 1.047000
-0.118264 0.219993 1.046000
-0.116538 0.219783 1.045000
-0.114925 0.219783 1.045000
-0.113203 0.219572 1.044000
-0.111485 0.219362 1.043000
-0.109769 0.219152 1.042000
-0.108161 0.219152 1.042000
-0.106450 0.218941 1.041000
-0.104843 0.218941 1.041000
-0.103137 0.218731 1.040000
-0.101531 0.218731 1.040000
-0.099926 0.218731 1.040000
-0.098320 0.218731 1.040000
-0.096622 0.218521 1.039000
-0.095018 0.218521 1.039000
-0.093414 0.218521 1.039000
-0.091810 0.218521 1.039000
-0.090206 0.218521 1.039000
-0.088687 0.218731 1.040000
-0.087082 0.218731 1.040000
-0.085477 0.218731 1.040000
-0.083871 0.218731 1.040000
-0.082345 0.218941 1.041000
-0.080738 0.218941 1.041000
-0.079283 0.219362 1.043000
-0.077822 0.219783 1.045000
-0.076281 0.219993 1.046000
-0.074881 0.220624 1.049000
-0.073401 0.221045 1.051000
-0.071847 0.221255 1.052000
-0.070423 0.221886 1.055000
-0.068925 0.222306 1.057000
-0.067421 0.222727 1.059000
-0.065848 0.222937 1.060000
-0.064393 0.223568 1.063000
-0.062811 0.223779 1.064000
-0.061226 0.223989 1.065000
-0.058047 0.224410 1.067000
-0.056506 0.224830 1.069000
-0.054958 0.225251 1.071000
-0.053404 0.225672 1.073000
-0.051844 0.226092 1.075000
-0.050325 0.226723 1.078000
-0.048706 0.226933 1.079000
-0.047171 0.227564 1.082000
-0.045627 0.228195 1.085000
-0.044114 0.229037 1.089000
-0.042550 0.229668 1.092000
-0.040939 0.230088 1.094000
-0.039358 0.230719 1.097000
-0.036069 0.231350 1.100000
-0.034465 0.231981 1.103000
-0.032851 0.232612 1.106000
-0.031228 0.233243 1.109000
-0.029596 0.233874 1.112000
-0.027930 0.234295 1.114000
-0.026257 0.234715 1.116000
-0.024578 0.235136 1.118000
-0.022914 0.235767 1.121000
-0.021221 0.236188 1.123000
-0.019522 0.236608 1.125000
-0.017833 0.237239 1.128000
-0.016120 0.237660 1.130000
-0.014401 0.238080 1.132000
-0.012665 0.238291 1.133000
-0.010935 0.238711 1.135000
-0.007444 0.239132 1.137000
-0.005694 0.239342 1.138000
-0.003937 0.239342 1.138000
-0.002182 0.239553 1.139000
-0.000424 0.239553 1.139000
-0.165266 0.226271 1.068000
-0.163770 0.226483 1.069000
-0.161969 0.226271 1.068000
-0.160320 0.226271 1.068000
-0.158671 0.226271 1.068000
-0.156876 0.226059 1.067000
-0.155228 0.226059 1.067000
-0.153437 0.225847 1.066000
-0.151792 0.225847 1.066000
-0.150005 0.225635 1.065000
-0.148361 0.225635 1.065000
-0.146579 0.225423 1.064000
-0.144801 0.225212 1.063000
-0.142890 0.224788 1.061000
-0.141119 0.224576 1.060000
-0.139351 0.224364 1.059000
-0.137457 0.223940 1.057000
-0.135439 0.223305 1.054000
-0.133558 0.222881 1.052000
-0.131809 0.222669 1.051000
-0.130063 0.222457 1.050000
-0.128319 0.222245 1.049000
-0.126579 0.222034 1.048000
-0.124842 0.221822 1.047000
-0.123226 0.221822 1.047000
-0.121494 0.221610 1.046000
-0.119879 0.221610 1.046000
-0.118151 0.221398 1.045000
-0.116538 0.221398 1.045000
-0.114815 0.221186 1.044000
-0.113095 0.220974 1.043000
-0.111378 0.220762 1.042000
-0.109769 0.220762 1.042000
-0.108057 0.220550 1.041000
-0.106450 0.220550 1.041000
-0.104742 0.220339 1.040000
-0.103137 0.220339 1.040000
-0.101531 0.220339 1.040000
-0.099926 0.220339 1.040000
-0.098226 0.220127 1.039000
-0.096622 0.220127 1.039000
-0.095018 0.220127 1.039000
-0.093414 0.220127 1.039000
-0.091898 0.220339 1.040000
-0.090293 0.220339 1.040000
-0.088687 0.220339 1.040000
-0.087082 0.220339 1.040000
-0.085559 0.220550 1.041000
-0.083871 0.220339 1.040000
-0.082345 0.220550 1.041000
-0.080815 0.220762 1.042000
-0.079207 0.220762 1.042000
-0.077822 0.221398 1.045000
-0.076281 0.221610 1.046000
-0.074881 0.222245 1.049000
-0.073401 0.222669 1.051000
-0.071847 0.222881 1.052000
-0.070357 0.223305 1.054000
-0.068925 0.223940 1.057000
-0.067421 0.224364 1.059000
-0.065848 0.224576 1.060000
-0.064272 0.224788 1.061000
-0.062752 0.225212 1.063000
-0.061169 0.225423 1.064000
-0.059582 0.225635 1.065000
-0.056400 0.226059 1.067000
-0.054804 0.226271 1.068000
-0.053305 0.226906 1.071000
-0.051700 0.227118 1.072000
-0.050138 0.227542 1.074000
-0.048571 0.227966 1.076000
-0.047040 0.228601 1.079000
-0.045459 0.229025 1.081000
-0.043952 0.229873 1.085000
-0.042394 0.230508 1.088000
-0.040827 0.231144 1.091000
-0.039250 0.231779 1.094000
-0.037699 0.232627 1.098000
-0.034402 0.233262 1.101000
-0.032792 0.233898 1.104000
-0.031200 0.234745 1.108000
-0.029570 0.235381 1.111000
-0.027930 0.236017 1.114000
-0.026257 0.236440 1.116000
-0.024578 0.236864 1.118000
-0.022893 0.237288 1.120000
-0.021221 0.237923 1.123000
-0.019505 0.238135 1.124000
-0.017801 0.238559 1.126000
-0.016092 0.238983 1.128000
-0.014376 0.239406 1.130000
-0.012654 0.239830 1.132000
-0.010916 0.240042 1.133000
-0.009183 0.240466 1.135000
-0.005689 0.240889 1.137000
-0.003934 0.240889 1.137000
-0.002179 0.240889 1.137000
-0.000424 0.241101 1.138000
-0.165266 0.227922 1.068000
-0.163617 0.227922 1.068000
-0.161969 0.227922 1.068000
-0.160320 0.227922 1.068000
-0.158671 0.227922 1.068000
-0.156876 0.227708 1.067000
-0.155228 0.227708 1.067000
-0.153437 0.227495 1.066000
-0.151649 0.227281 1.065000
-0.150005 0.227281 1.065000
-0.148222 0.227068 1.064000
-0.146442 0.226855 1.063000
-0.144664 0.226641 1.062000
-0.142890 0.226428 1.061000
-0.140986 0.226001 1.059000
-0.139088 0.225574 1.057000
-0.137326 0.225361 1.056000
-0.135311 0.224721 1.053000
-0.133431 0.224294 1.051000
-0.131684 0.224080 1.050000
-0.129939 0.223867 1.049000
-0.128197 0.223653 1.048000
-0.126459 0.223440 1.047000
-0.124723 0.223227 1.046000
-0.123108 0.223227 1.046000
-0.121377 0.223013 1.045000
-0.119764 0.223013 1.045000
-0.118151 0.223013 1.045000
-0.116426 0.222800 1.044000
-0.114815 0.222800 1.044000
-0.113095 0.222586 1.043000
-0.111378 0.222373 1.042000
-0.109664 0.222160 1.041000
-0.108057 0.222160 1.041000
-0.106348 0.221946 1.040000
-0.104742 0.221946 1.040000
-0.103137 0.221946 1.040000
-0.101434 0.221733 1.039000
-0.099830 0.221733 1.039000
-0.098226 0.221733 1.039000
-0.096622 0.221733 1.039000
-0.095018 0.221733 1.039000
-0.093414 0.221733 1.039000
-0.091898 0.221946 1.040000
-0.090293 0.221946 1.040000
-0.088687 0.221946 1.040000
-0.087082 0.221946 1.040000
-0.085477 0.221946 1.040000
-0.083871 0.221946 1.040000
-0.082345 0.222160 1.041000
-0.080738 0.222160 1.041000
-0.079207 0.222373 1.042000
-0.077747 0.222800 1.044000
-0.076281 0.223227 1.046000
-0.074809 0.223653 1.048000
-0.073331 0.224080 1.050000
-0.071847 0.224507 1.052000
-0.070357 0.224934 1.054000
-0.068795 0.225147 1.055000
-0.067293 0.225574 1.057000
-0.065724 0.225788 1.058000
-0.064151 0.226001 1.059000
-0.062575 0.226214 1.060000
-0.061111 0.226855 1.063000
-0.059526 0.227068 1.064000
-0.057938 0.227281 1.065000
-0.054753 0.227708 1.067000
-0.053106 0.227708 1.067000
-0.051555 0.228135 1.069000
-0.049998 0.228562 1.071000
-0.048390 0.228775 1.072000
-0.046866 0.229416 1.075000
-0.045291 0.229842 1.077000
-0.043750 0.230483 1.080000
-0.042238 0.231336 1.084000
-0.040677 0.231976 1.087000
-0.039107 0.232617 1.090000
-0.037561 0.233470 1.094000
-0.036004 0.234324 1.098000
-0.032762 0.235391 1.103000
-0.031172 0.236245 1.107000
-0.029543 0.236885 1.110000
-0.027905 0.237525 1.113000
-0.026257 0.238165 1.116000
-0.024578 0.238592 1.118000
-0.022893 0.239019 1.120000
-0.021202 0.239446 1.122000
-0.019505 0.239873 1.124000
-0.017801 0.240299 1.126000
-0.016092 0.240726 1.128000
-0.014363 0.240940 1.129000
-0.012643 0.241366 1.131000
-0.010906 0.241580 1.132000
-0.009167 0.241793 1.133000
-0.007431 0.242220 1.135000
-0.005679 0.242220 1.135000
-0.003930 0.242434 1.136000
-0.002175 0.242220 1.135000
-0.000423 0.242647 1.137000
-0.165266 0.229573 1.068000
-0.163617 0.229573 1.068000
-0.161969 0.229573 1.068000
-0.160170 0.229358 1.067000
-0.158523 0.229358 1.067000
-0.156876 0.229358 1.067000
-0.155083 0.229143 1.066000
-0.153293 0.228928 1.065000
-0.151649 0.228928 1.065000
-0.149864 0.228713 1.064000
-0.148083 0.228498 1.063000
-0.146304 0.228283 1.062000
-0.144528 0.228068 1.061000
-0.142756 0.227853 1.060000
-0.140853 0.227423 1.058000
-0.138957 0.226993 1.056000
-0.136936 0.226348 1.053000
-0.135182 0.226133 1.052000
-0.133304 0.225703 1.050000
-0.131558 0.225488 1.049000
-0.129815 0.225273 1.048000
-0.128075 0.225058 1.047000
-0.126338 0.224843 1.046000
-0.124723 0.224843 1.046000
-0.122991 0.224629 1.045000
-0.121377 0.224629 1.045000
-0.119650 0.224414 1.044000
-0.118038 0.224414 1.044000
-0.116426 0.224414 1.044000
-0.114705 0.224199 1.043000
-0.112986 0.223984 1.042000
-0.111271 0.223769 1.041000
-0.109664 0.223769 1.041000
-0.108057 0.223769 1.041000
-0.106348 0.223554 1.040000
-0.104742 0.223554 1.040000
-0.103037 0.223339 1.039000
-0.101434 0.223339 1.039000
-0.099830 0.223339 1.039000
-0.098226 0.223339 1.039000
-0.096622 0.223339 1.039000
-0.095018 0.223339 1.039000
-0.093414 0.223339 1.039000
-0.091810 0.223339 1.039000
-0.090206 0.223339 1.039000
-0.088602 0.223339 1.039000
-0.086998 0.223339 1.039000
-0.085477 0.223554 1.040000
-0.083871 0.223554 1.040000
-0.082266 0.223554 1.040000
-0.080738 0.223769 1.041000
-0.079207 0.223984 1.042000
-0.077747 0.224414 1.044000
-0.076281 0.224843 1.046000
-0.074738 0.225058 1.047000
-0.073261 0.225488 1.049000
-0.071779 0.225918 1.051000
-0.070290 0.226348 1.053000
-0.068729 0.226563 1.054000
-0.067230 0.226993 1.056000
-0.065662 0.227208 1.057000
-0.064030 0.227208 1.057000
-0.062516 0.227638 1.059000
-0.060882 0.227638 1.059000
-0.059303 0.227853 1.060000
-0.057721 0.228068 1.061000
-0.056083 0.228068 1.061000
-0.054548 0.228498 1.063000
-0.053106 0.229358 1.067000
-0.049858 0.229573 1.068000
-0.048255 0.229787 1.069000
-0.046692 0.230217 1.071000
-0.045122 0.230647 1.073000
-0.043588 0.231292 1.076000
-0.042082 0.232152 1.080000
-0.040527 0.232797 1.083000
-0.038963 0.233442 1.086000
-0.037458 0.234517 1.091000
-0.035905 0.235376 1.095000
-0.034371 0.236451 1.100000
-0.031088 0.237311 1.104000
-0.029490 0.238171 1.108000
-0.027905 0.239246 1.113000
-0.026234 0.239675 1.115000
-0.024578 0.240320 1.118000
-0.022873 0.240535 1.119000
-0.021183 0.240965 1.121000
-0.019505 0.241610 1.124000
-0.017786 0.241825 1.125000
-0.016078 0.242255 1.127000
-0.014350 0.242470 1.128000
-0.012632 0.242900 1.130000
-0.010897 0.243115 1.131000
-0.009159 0.243330 1.132000
-0.007418 0.243545 1.133000
-0.005674 0.243760 1.134000
-0.003923 0.243760 1.134000
-0.002173 0.243760 1.134000
-0.000423 0.243975 1.135000
-0.165266 0.231223 1.068000
-0.163464 0.231007 1.067000
-0.161817 0.231007 1.067000
-0.160170 0.231007 1.067000
-0.158523 0.231007 1.067000
-0.156728 0.230790 1.066000
-0.154937 0.230574 1.065000
-0.153293 0.230574 1.065000
-0.151507 0.230357 1.064000
-0.149864 0.230357 1.064000
-0.148083 0.230141 1.063000
-0.146304 0.229924 1.062000
-0.144392 0.229491 1.060000
-0.142621 0.229275 1.059000
-0.140720 0.228842 1.057000
-0.138693 0.228192 1.054000
-0.136806 0.227759 1.052000
-0.135054 0.227543 1.051000
-0.133177 0.227110 1.049000
-0.131433 0.226893 1.048000
-0.129691 0.226677 1.047000
-0.127952 0.226460 1.046000
-0.126338 0.226460 1.046000
-0.124604 0.226244 1.045000
-0.122991 0.226244 1.045000
-0.121261 0.226027 1.044000
-0.119650 0.226027 1.044000
-0.118038 0.226027 1.044000
-0.116315 0.225811 1.043000
-0.114595 0.225594 1.042000
-0.112878 0.225378 1.041000
-0.111271 0.225378 1.041000
-0.109558 0.225161 1.040000
-0.107953 0.225161 1.040000
-0.106348 0.225161 1.040000
-0.104641 0.224945 1.039000
-0.103037 0.224945 1.039000
-0.101336 0.224728 1.038000
-0.099734 0.224728 1.038000
-0.098131 0.224728 1.038000
-0.096529 0.224728 1.038000
-0.094926 0.224728 1.038000
-0.093414 0.224945 1.039000
-0.091722 0.224728 1.038000
-0.090206 0.224945 1.039000
-0.088602 0.224945 1.039000
-0.086998 0.224945 1.039000
-0.085394 0.224945 1.039000
-0.083871 0.225161 1.040000
-0.082266 0.225161 1.040000
-0.080738 0.225378 1.041000
-0.079207 0.225594 1.042000
-0.077747 0.226027 1.044000
-0.076208 0.226244 1.045000
-0.074738 0.226677 1.047000
-0.073261 0.227110 1.049000
-0.071710 0.227326 1.050000
-0.070223 0.227759 1.052000
-0.068729 0.228192 1.054000
-0.067166 0.228409 1.055000
-0.065600 0.228625 1.056000
-0.063969 0.228625 1.056000
-0.062398 0.228842 1.057000
-0.060824 0.229058 1.058000
-0.059303 0.229491 1.060000
-0.057666 0.229491 1.060000
-0.056083 0.229708 1.061000
-0.054445 0.229708 1.061000
-0.052907 0.230141 1.063000
-0.051314 0.230357 1.064000
-0.049718 0.230574 1.065000
-0.048164 0.231007 1.067000
-0.046561 0.231223 1.068000
-0.044996 0.231656 1.070000
-0.043466 0.232306 1.073000
-0.041926 0.232955 1.076000
-0.040378 0.233605 1.079000
-0.038820 0.234254 1.082000
-0.037321 0.235337 1.087000
-0.035807 0.236419 1.092000
-0.034277 0.237502 1.097000
-0.031003 0.238368 1.101000
-0.029437 0.239450 1.106000
-0.027855 0.240533 1.111000
-0.026210 0.241182 1.114000
-0.024556 0.241832 1.117000
-0.022873 0.242265 1.119000
-0.021183 0.242698 1.121000
-0.019488 0.243131 1.123000
-0.017770 0.243347 1.124000
-0.016063 0.243780 1.126000
-0.014350 0.244213 1.128000
-0.012609 0.244213 1.128000
-0.010887 0.244646 1.130000
-0.009151 0.244863 1.131000
-0.007411 0.245079 1.132000
-0.005664 0.245079 1.132000
-0.003920 0.245296 1.133000
-0.002169 0.245079 1.132000
-0.000422 0.245296 1.133000
