ply
format ascii 1.0
element vertex 2602
property float x
property float y
property float z
end_header
-0.055625 0.172691 1.084000
-0.054051 0.173010 1.086000
-0.052423 0.173169 1.087000
-0.050792 0.173328 1.088000
-0.049248 0.173806 1.091000
-0.047738 0.174444 1.095000
-0.044600 0.175399 1.101000
-0.035465 0.180816 1.135000
-0.033832 0.181453 1.139000
-0.032130 0.181772 1.141000
-0.030448 0.182250 1.144000
-0.028757 0.182728 1.147000
-0.023609 0.184002 1.155000
-0.016648 0.185914 1.167000
-0.055677 0.174528 1.085000
-0.054051 0.174689 1.086000
-0.052375 0.174689 1.086000
-0.050792 0.175010 1.088000
-0.049248 0.175493 1.091000
-0.047738 0.176136 1.095000
-0.044600 0.177101 1.101000
-0.043173 0.178227 1.108000
-0.041687 0.179192 1.114000
-0.040219 0.180318 1.121000
-0.038729 0.181444 1.128000
-0.035465 0.182570 1.135000
-0.033861 0.183375 1.140000
-0.032158 0.183696 1.142000
-0.030475 0.184179 1.145000
-0.028757 0.184501 1.147000
-0.027057 0.184983 1.150000
-0.025348 0.185466 1.153000
-0.023609 0.185787 1.155000
-0.021901 0.186431 1.159000
-0.020164 0.186913 1.162000
-0.018418 0.187396 1.165000
-0.016648 0.187718 1.167000
-0.013067 0.188039 1.169000
-0.011273 0.188200 1.170000
-0.116134 0.171495 1.056000
-0.114504 0.171495 1.056000
-0.112767 0.171333 1.055000
-0.060422 0.175393 1.080000
-0.058863 0.175718 1.082000
-0.057246 0.175880 1.083000
-0.055625 0.176042 1.084000
-0.054051 0.176367 1.086000
-0.052423 0.176530 1.087000
-0.050839 0.176854 1.089000
-0.049248 0.177179 1.091000
-0.047738 0.177829 1.095000
-0.044560 0.178641 1.100000
-0.041650 0.180752 1.113000
-0.040147 0.181726 1.119000
-0.038660 0.182863 1.126000
-0.035434 0.184162 1.134000
-0.033832 0.184974 1.139000
-0.032186 0.185624 1.143000
-0.030475 0.185949 1.145000
-0.028807 0.186598 1.149000
-0.027081 0.186923 1.151000
-0.025370 0.187410 1.154000
-0.023650 0.187898 1.157000
-0.021920 0.188385 1.160000
-0.020164 0.188710 1.162000
-0.018418 0.189197 1.165000
-0.016648 0.189522 1.167000
-0.013067 0.189846 1.169000
-0.011273 0.190009 1.170000
-0.009483 0.190334 1.172000
-0.125915 0.173127 1.056000
-0.124285 0.173127 1.056000
-0.122771 0.173291 1.057000
-0.121140 0.173291 1.057000
-0.119508 0.173291 1.057000
-0.117876 0.173291 1.057000
-0.116134 0.173127 1.056000
-0.114504 0.173127 1.056000
-0.112767 0.172963 1.055000
-0.111033 0.172800 1.054000
-0.109199 0.172472 1.052000
-0.096994 0.170996 1.043000
-0.095292 0.170832 1.042000
-0.093684 0.170832 1.042000
-0.092075 0.170832 1.042000
-0.090467 0.170832 1.042000
-0.088858 0.170832 1.042000
-0.081048 0.171324 1.045000
-0.079587 0.171652 1.047000
-0.078120 0.171980 1.049000
-0.076646 0.172308 1.051000
-0.075166 0.172636 1.053000
-0.073680 0.172963 1.055000
-0.072325 0.173619 1.059000
-0.070824 0.173947 1.061000
-0.064939 0.175751 1.072000
-0.061974 0.176734 1.078000
-0.060422 0.177062 1.080000
-0.058863 0.177390 1.082000
-0.057246 0.177554 1.083000
-0.055677 0.177882 1.085000
-0.054051 0.178046 1.086000
-0.052471 0.178374 1.088000
-0.050839 0.178538 1.089000
-0.049293 0.179029 1.092000
-0.047738 0.179521 1.095000
-0.044560 0.180341 1.100000
-0.043095 0.181325 1.106000
-0.040111 0.183292 1.118000
-0.038660 0.184604 1.126000
-0.035402 0.185751 1.133000
-0.033832 0.186735 1.139000
-0.032158 0.187227 1.142000
-0.030528 0.188047 1.147000
-0.028807 0.188374 1.149000
-0.027128 0.189030 1.153000
-0.025392 0.189358 1.155000
-0.023670 0.189850 1.158000
-0.021939 0.190342 1.161000
-0.020182 0.190670 1.163000
-0.018418 0.190998 1.165000
-0.016648 0.191325 1.167000
-0.013067 0.191653 1.169000
-0.011273 0.191817 1.170000
-0.009483 0.192145 1.172000
-0.007680 0.192309 1.173000
-0.134193 0.174925 1.057000
-0.132561 0.174925 1.057000
-0.130930 0.174925 1.057000
-0.129298 0.174925 1.057000
-0.127546 0.174760 1.056000
-0.125915 0.174760 1.056000
-0.124285 0.174760 1.056000
-0.122655 0.174760 1.056000
-0.121140 0.174925 1.057000
-0.119395 0.174760 1.056000
-0.117765 0.174760 1.056000
-0.116134 0.174760 1.056000
-0.114396 0.174594 1.055000
-0.112767 0.174594 1.055000
-0.111033 0.174429 1.054000
-0.109199 0.174098 1.052000
-0.107472 0.173932 1.051000
-0.105749 0.173767 1.050000
-0.103930 0.173436 1.048000
-0.102117 0.173105 1.046000
-0.098698 0.172774 1.044000
-0.096994 0.172608 1.043000
-0.095292 0.172443 1.042000
-0.093684 0.172443 1.042000
-0.091987 0.172277 1.041000
-0.090380 0.172277 1.041000
-0.088773 0.172277 1.041000
-0.087166 0.172277 1.041000
-0.085559 0.172277 1.041000
-0.084032 0.172443 1.042000
-0.082582 0.172774 1.044000
-0.081048 0.172939 1.045000
-0.079587 0.173270 1.047000
-0.078120 0.173601 1.049000
-0.076646 0.173932 1.051000
-0.075166 0.174263 1.053000
-0.073750 0.174760 1.056000
-0.072325 0.175256 1.059000
-0.070891 0.175753 1.062000
-0.067866 0.176415 1.066000
-0.066469 0.177077 1.070000
-0.064939 0.177408 1.072000
-0.063461 0.177904 1.075000
-0.061974 0.178401 1.078000
-0.060422 0.178732 1.080000
-0.058863 0.179063 1.082000
-0.057246 0.179228 1.083000
-0.055677 0.179559 1.085000
-0.054051 0.179724 1.086000
-0.052471 0.180055 1.088000
-0.050885 0.180386 1.090000
-0.049293 0.180717 1.092000
-0.047738 0.181214 1.095000
-0.044560 0.182041 1.100000
-0.043056 0.182869 1.105000
-0.041575 0.183862 1.111000
-0.040111 0.185020 1.118000
-0.038626 0.186179 1.125000
-0.035402 0.187503 1.133000
-0.033832 0.188496 1.139000
-0.032186 0.189158 1.143000
-0.030528 0.189819 1.147000
-0.028858 0.190481 1.151000
-0.027151 0.190978 1.154000
-0.025436 0.191474 1.157000
-0.023691 0.191805 1.159000
-0.021939 0.192136 1.161000
-0.020182 0.192467 1.163000
-0.018434 0.192964 1.166000
-0.016648 0.193129 1.167000
-0.013079 0.193626 1.170000
-0.009483 0.193957 1.172000
-0.007686 0.194288 1.174000
-0.152504 0.178898 1.071000
-0.150850 0.178898 1.071000
-0.141386 0.177394 1.062000
-0.139615 0.177227 1.061000
-0.137717 0.176893 1.059000
-0.136082 0.176893 1.059000
-0.134320 0.176726 1.058000
-0.132687 0.176726 1.058000
-0.130930 0.176559 1.057000
-0.129298 0.176559 1.057000
-0.127546 0.176392 1.056000
-0.125915 0.176392 1.056000
-0.124285 0.176392 1.056000
-0.122655 0.176392 1.056000
-0.121140 0.176559 1.057000
-0.119508 0.176559 1.057000
-0.117765 0.176392 1.056000
-0.116134 0.176392 1.056000
-0.114504 0.176392 1.056000
-0.112767 0.176225 1.055000
-0.111033 0.176058 1.054000
-0.109199 0.175724 1.052000
-0.107472 0.175557 1.051000
-0.105648 0.175223 1.049000
-0.103930 0.175056 1.048000
-0.102117 0.174722 1.046000
-0.100406 0.174555 1.045000
-0.098698 0.174388 1.044000
-0.096901 0.174053 1.042000
-0.095292 0.174053 1.042000
-0.093684 0.174053 1.042000
-0.091987 0.173886 1.041000
-0.090467 0.174053 1.042000
-0.088773 0.173886 1.041000
-0.087166 0.173886 1.041000
-0.084032 0.174053 1.042000
-0.082582 0.174388 1.044000
-0.081048 0.174555 1.045000
-0.079587 0.174889 1.047000
-0.078120 0.175223 1.049000
-0.076646 0.175557 1.051000
-0.075238 0.176058 1.054000
-0.073750 0.176392 1.056000
-0.072393 0.177060 1.060000
-0.070957 0.177561 1.063000
-0.067930 0.178229 1.067000
-0.066531 0.178898 1.071000
-0.064999 0.179232 1.073000
-0.063520 0.179733 1.076000
-0.062031 0.180234 1.079000
-0.060422 0.180401 1.080000
-0.058918 0.180902 1.083000
-0.057351 0.181236 1.085000
-0.055728 0.181403 1.086000
-0.054151 0.181737 1.088000
-0.052520 0.181904 1.089000
-0.050932 0.182238 1.091000
-0.049338 0.182572 1.093000
-0.046132 0.183241 1.097000
-0.044600 0.183909 1.101000
-0.043056 0.184577 1.105000
-0.041538 0.185412 1.110000
-0.040075 0.186581 1.117000
-0.038591 0.187751 1.124000
-0.035371 0.189087 1.132000
-0.033832 0.190256 1.139000
-0.032186 0.190924 1.143000
-0.030555 0.191759 1.148000
-0.028908 0.192595 1.153000
-0.027198 0.193096 1.156000
-0.025480 0.193597 1.159000
-0.023732 0.193931 1.161000
-0.021977 0.194265 1.163000
-0.020216 0.194599 1.165000
-0.018450 0.194933 1.167000
-0.014872 0.195267 1.169000
-0.013079 0.195434 1.170000
-0.011282 0.195601 1.171000
-0.009483 0.195768 1.172000
-0.007686 0.196102 1.174000
-0.154445 0.180890 1.073000
-0.152646 0.180722 1.072000
-0.150850 0.180553 1.071000
-0.148918 0.180216 1.069000
-0.146993 0.179879 1.067000
-0.145073 0.179542 1.065000
-0.143294 0.179373 1.064000
-0.141519 0.179204 1.063000
-0.139615 0.178867 1.061000
-0.137847 0.178699 1.060000
-0.136082 0.178530 1.059000
-0.134447 0.178530 1.059000
-0.132812 0.178530 1.059000
-0.131054 0.178361 1.058000
-0.129298 0.178193 1.057000
-0.127666 0.178193 1.057000
-0.125915 0.178024 1.056000
-0.124285 0.178024 1.056000
-0.122655 0.178024 1.056000
-0.121025 0.178024 1.056000
-0.119395 0.178024 1.056000
-0.117876 0.178193 1.057000
-0.116134 0.178024 1.056000
-0.114396 0.177856 1.055000
-0.112660 0.177687 1.054000
-0.110928 0.177519 1.053000
-0.109199 0.177350 1.052000
-0.107472 0.177181 1.051000
-0.105648 0.176844 1.049000
-0.103930 0.176676 1.048000
-0.102117 0.176338 1.046000
-0.100406 0.176170 1.045000
-0.098698 0.176001 1.044000
-0.096994 0.175833 1.043000
-0.095292 0.175664 1.042000
-0.093684 0.175664 1.042000
-0.092075 0.175664 1.042000
-0.090380 0.175496 1.041000
-0.088773 0.175496 1.041000
-0.087166 0.175496 1.041000
-0.085559 0.175496 1.041000
-0.084032 0.175664 1.042000
-0.082503 0.175833 1.043000
-0.081048 0.176170 1.045000
-0.079587 0.176507 1.047000
-0.078120 0.176844 1.049000
-0.076646 0.177181 1.051000
-0.075166 0.177519 1.053000
-0.073750 0.178024 1.056000
-0.072393 0.178699 1.060000
-0.070957 0.179204 1.063000
-0.067930 0.179879 1.067000
-0.066531 0.180553 1.071000
-0.065060 0.181059 1.074000
-0.063579 0.181565 1.077000
-0.062031 0.181902 1.079000
-0.060478 0.182239 1.081000
-0.058918 0.182576 1.083000
-0.057404 0.183082 1.086000
-0.055831 0.183419 1.088000
-0.054201 0.183588 1.089000
-0.052568 0.183756 1.090000
-0.050979 0.184093 1.092000
-0.049383 0.184430 1.094000
-0.047781 0.184768 1.096000
-0.044560 0.185442 1.100000
-0.043017 0.186116 1.104000
-0.041500 0.186959 1.109000
-0.040004 0.187971 1.115000
-0.038557 0.189319 1.123000
-0.037053 0.190499 1.130000
-0.033832 0.192017 1.139000
-0.032214 0.192860 1.144000
-0.030581 0.193703 1.149000
-0.028933 0.194545 1.154000
-0.027245 0.195220 1.158000
-0.025524 0.195726 1.161000
-0.023772 0.196063 1.163000
-0.022015 0.196400 1.165000
-0.020234 0.196568 1.166000
-0.018465 0.196906 1.168000
-0.014885 0.197243 1.170000
-0.013079 0.197243 1.170000
-0.011292 0.197580 1.172000
-0.009483 0.197580 1.172000
-0.007686 0.197917 1.174000
-0.156538 0.183059 1.076000
-0.154445 0.182549 1.073000
-0.152788 0.182549 1.073000
-0.150850 0.182209 1.071000
-0.148918 0.181868 1.069000
-0.147130 0.181698 1.068000
-0.145346 0.181528 1.067000
-0.143429 0.181188 1.065000
-0.141652 0.181018 1.064000
-0.139878 0.180847 1.063000
-0.137977 0.180507 1.061000
-0.136210 0.180337 1.060000
-0.134447 0.180167 1.059000
-0.132812 0.180167 1.059000
-0.131177 0.180167 1.059000
-0.129298 0.179827 1.057000
-0.127666 0.179827 1.057000
-0.126035 0.179827 1.057000
-0.124403 0.179827 1.057000
-0.122655 0.179657 1.056000
-0.121140 0.179827 1.057000
-0.119395 0.179657 1.056000
-0.117765 0.179657 1.056000
-0.116024 0.179486 1.055000
-0.114396 0.179486 1.055000
-0.112660 0.179316 1.054000
-0.110928 0.179146 1.053000
-0.109199 0.178976 1.052000
-0.107472 0.178806 1.051000
-0.105648 0.178466 1.049000
-0.103831 0.178125 1.047000
-0.102117 0.177955 1.046000
-0.100406 0.177785 1.045000
-0.098698 0.177615 1.044000
-0.097087 0.177615 1.044000
-0.095384 0.177445 1.043000
-0.093684 0.177275 1.042000
-0.092075 0.177275 1.042000
-0.090467 0.177275 1.042000
-0.088858 0.177275 1.042000
-0.087249 0.177275 1.042000
-0.085641 0.177275 1.042000
-0.084032 0.177275 1.042000
-0.082582 0.177615 1.044000
-0.081048 0.177785 1.045000
-0.079587 0.178125 1.047000
-0.078045 0.178296 1.048000
-0.076646 0.178806 1.051000
-0.075166 0.179146 1.053000
-0.073680 0.179486 1.055000
-0.072325 0.180167 1.059000
-0.070957 0.180847 1.063000
-0.067930 0.181528 1.067000
-0.066469 0.182038 1.070000
-0.064999 0.182549 1.073000
-0.063520 0.183059 1.076000
-0.062031 0.183570 1.079000
-0.060478 0.183910 1.081000
-0.058972 0.184420 1.084000
-0.057404 0.184760 1.086000
-0.055831 0.185101 1.088000
-0.054201 0.185271 1.089000
-0.052616 0.185611 1.091000
-0.050979 0.185781 1.092000
-0.049428 0.186292 1.095000
-0.047825 0.186632 1.097000
-0.044560 0.187142 1.100000
-0.043017 0.187823 1.104000
-0.041463 0.188503 1.108000
-0.039968 0.189524 1.114000
-0.038523 0.190885 1.122000
-0.037053 0.192246 1.130000
-0.033802 0.193607 1.138000
-0.032214 0.194628 1.144000
-0.030581 0.195479 1.149000
-0.028958 0.196499 1.155000
-0.027269 0.197180 1.159000
-0.025524 0.197520 1.161000
-0.023772 0.197860 1.163000
-0.022015 0.198201 1.165000
-0.020251 0.198541 1.167000
-0.016677 0.198881 1.169000
-0.014885 0.199051 1.170000
-0.013090 0.199221 1.171000
-0.011292 0.199392 1.172000
-0.009491 0.199562 1.173000
-0.007686 0.199732 1.174000
-0.005874 0.199732 1.174000
-0.158493 0.185066 1.078000
-0.156538 0.184722 1.076000
-0.154589 0.184379 1.074000
-0.152788 0.184207 1.073000
-0.150991 0.184036 1.072000
-0.149197 0.183864 1.071000
-0.147268 0.183521 1.069000
-0.145482 0.183349 1.068000
-0.143564 0.183006 1.066000
-0.141785 0.182834 1.065000
-0.140009 0.182662 1.064000
-0.138107 0.182319 1.062000
-0.136339 0.182147 1.061000
-0.134574 0.181976 1.060000
-0.132938 0.181976 1.060000
-0.131054 0.181632 1.058000
-0.129543 0.181804 1.059000
-0.127666 0.181461 1.057000
-0.126035 0.181461 1.057000
-0.124403 0.181461 1.057000
-0.122771 0.181461 1.057000
-0.121025 0.181289 1.056000
-0.119395 0.181289 1.056000
-0.117765 0.181289 1.056000
-0.116024 0.181117 1.055000
-0.114396 0.181117 1.055000
-0.112660 0.180946 1.054000
-0.110823 0.180602 1.052000
-0.109095 0.180431 1.051000
-0.107370 0.180259 1.050000
-0.105648 0.180087 1.049000
-0.103831 0.179744 1.047000
-0.102117 0.179572 1.046000
-0.100406 0.179400 1.045000
-0.098698 0.179229 1.044000
-0.097087 0.179229 1.044000
-0.095384 0.179057 1.043000
-0.093684 0.178885 1.042000
-0.092075 0.178885 1.042000
-0.090467 0.178885 1.042000
-0.088858 0.178885 1.042000
-0.087249 0.178885 1.042000
-0.085641 0.178885 1.042000
-0.084032 0.178885 1.042000
-0.082582 0.179229 1.044000
-0.081048 0.179400 1.045000
-0.079511 0.179572 1.046000
-0.078120 0.180087 1.049000
-0.076646 0.180431 1.051000
-0.075166 0.180774 1.053000
-0.073750 0.181289 1.056000
-0.072393 0.181976 1.060000
-0.070957 0.182491 1.063000
-0.067930 0.183177 1.067000
-0.066531 0.183864 1.071000
-0.064999 0.184207 1.073000
-0.063520 0.184722 1.076000
-0.062031 0.185237 1.079000
-0.060534 0.185752 1.082000
-0.059026 0.186267 1.085000
-0.057457 0.186611 1.087000
-0.055882 0.186954 1.089000
-0.054300 0.187298 1.091000
-0.052664 0.187469 1.092000
-0.051072 0.187813 1.094000
-0.049428 0.187984 1.095000
-0.046174 0.188499 1.098000
-0.044560 0.188843 1.100000
-0.043017 0.189529 1.104000
-0.041463 0.190216 1.108000
-0.039968 0.191246 1.114000
-0.038488 0.192448 1.121000
-0.037020 0.193821 1.129000
-0.033772 0.195195 1.137000
-0.032242 0.196568 1.145000
-0.030581 0.197255 1.149000
-0.028958 0.198285 1.155000
-0.027292 0.199143 1.160000
-0.025568 0.199658 1.163000
-0.023813 0.200001 1.165000
-0.022034 0.200173 1.166000
-0.020251 0.200345 1.167000
-0.016677 0.200688 1.169000
-0.014885 0.200860 1.170000
-0.013090 0.201032 1.171000
-0.011292 0.201203 1.172000
-0.009491 0.201375 1.173000
-0.007686 0.201547 1.174000
-0.005874 0.201547 1.174000
-0.158640 0.186905 1.079000
-0.156683 0.186559 1.077000
-0.154733 0.186212 1.075000
-0.152931 0.186039 1.074000
-0.151132 0.185866 1.073000
-0.149336 0.185693 1.072000
-0.147268 0.185173 1.069000
-0.145618 0.185173 1.069000
-0.143698 0.184827 1.067000
-0.141785 0.184480 1.065000
-0.140141 0.184480 1.065000
-0.138237 0.184134 1.063000
-0.136596 0.184134 1.063000
-0.134701 0.183787 1.061000
-0.132938 0.183614 1.060000
-0.131177 0.183441 1.059000
-0.129420 0.183268 1.058000
-0.127666 0.183094 1.057000
-0.126035 0.183094 1.057000
-0.124403 0.183094 1.057000
-0.122655 0.182921 1.056000
-0.121025 0.182921 1.056000
-0.119282 0.182748 1.055000
-0.117653 0.182748 1.055000
-0.116024 0.182748 1.055000
-0.114287 0.182575 1.054000
-0.112553 0.182402 1.053000
-0.110823 0.182228 1.052000
-0.108991 0.181882 1.050000
-0.107370 0.181882 1.050000
-0.105648 0.181709 1.049000
-0.103831 0.181362 1.047000
-0.102117 0.181189 1.046000
-0.100406 0.181016 1.045000
-0.098698 0.180843 1.044000
-0.097087 0.180843 1.044000
-0.095384 0.180669 1.043000
-0.093684 0.180496 1.042000
-0.092075 0.180496 1.042000
-0.090467 0.180496 1.042000
-0.088858 0.180496 1.042000
-0.087249 0.180496 1.042000
-0.085641 0.180496 1.042000
-0.084032 0.180496 1.042000
-0.082503 0.180669 1.043000
-0.080970 0.180843 1.044000
-0.079511 0.181189 1.046000
-0.078045 0.181535 1.048000
-0.076573 0.181882 1.050000
-0.075166 0.182402 1.053000
-0.073750 0.182921 1.056000
-0.072325 0.183441 1.059000
-0.070957 0.184134 1.063000
-0.067930 0.184827 1.067000
-0.066469 0.185346 1.070000
-0.064999 0.185866 1.073000
-0.063520 0.186386 1.076000
-0.062031 0.186905 1.079000
-0.060534 0.187425 1.082000
-0.059026 0.187945 1.085000
-0.057510 0.188464 1.088000
-0.055882 0.188637 1.089000
-0.054300 0.188984 1.091000
-0.052713 0.189330 1.093000
-0.051119 0.189677 1.095000
-0.047825 0.190023 1.097000
-0.046174 0.190196 1.098000
-0.044600 0.190716 1.101000
-0.042979 0.191063 1.103000
-0.041463 0.191929 1.108000
-0.039968 0.192968 1.114000
-0.038488 0.194181 1.121000
-0.037020 0.195566 1.129000
-0.033772 0.196952 1.137000
-0.032214 0.198165 1.144000
-0.030608 0.199204 1.150000
-0.028983 0.200243 1.156000
-0.027316 0.201109 1.161000
-0.025568 0.201456 1.163000
-0.023813 0.201802 1.165000
-0.022053 0.202149 1.167000
-0.018465 0.202322 1.168000
-0.016677 0.202495 1.169000
-0.014885 0.202668 1.170000
-0.013090 0.202842 1.171000
-0.011292 0.203015 1.172000
-0.009491 0.203188 1.173000
-0.007686 0.203361 1.174000
-0.005874 0.203361 1.174000
-0.164698 0.189796 1.086000
-0.162722 0.189447 1.084000
-0.158640 0.188573 1.079000
-0.156683 0.188224 1.077000
-0.154877 0.188049 1.076000
-0.152931 0.187699 1.074000
-0.150991 0.187350 1.072000
-0.149336 0.187350 1.072000
-0.147544 0.187175 1.071000
-0.145754 0.187000 1.070000
-0.143833 0.186651 1.068000
-0.142051 0.186476 1.067000
-0.140141 0.186126 1.065000
-0.138367 0.185952 1.064000
-0.136596 0.185777 1.063000
-0.134955 0.185777 1.063000
-0.133063 0.185427 1.061000
-0.131301 0.185253 1.060000
-0.129543 0.185078 1.059000
-0.127908 0.185078 1.059000
-0.126035 0.184728 1.057000
-0.124403 0.184728 1.057000
-0.122655 0.184553 1.056000
-0.120910 0.184379 1.055000
-0.119282 0.184379 1.055000
-0.117542 0.184204 1.054000
-0.115914 0.184204 1.054000
-0.114179 0.184029 1.053000
-0.112447 0.183854 1.052000
-0.110717 0.183680 1.051000
-0.108991 0.183505 1.050000
-0.107268 0.183330 1.049000
-0.105548 0.183155 1.048000
-0.103831 0.182981 1.047000
-0.102117 0.182806 1.046000
-0.100406 0.182631 1.045000
-0.098698 0.182456 1.044000
-0.097087 0.182456 1.044000
-0.095384 0.182282 1.043000
-0.093684 0.182107 1.042000
-0.092075 0.182107 1.042000
-0.090467 0.182107 1.042000
-0.088858 0.182107 1.042000
-0.087249 0.182107 1.042000
-0.085641 0.182107 1.042000
-0.084032 0.182107 1.042000
-0.082503 0.182282 1.043000
-0.080970 0.182456 1.044000
-0.079511 0.182806 1.046000
-0.077971 0.182981 1.047000
-0.076573 0.183505 1.050000
-0.075095 0.183854 1.052000
-0.073680 0.184379 1.055000
-0.072257 0.184903 1.058000
-0.070891 0.185602 1.062000
-0.067866 0.186301 1.066000
-0.066469 0.187000 1.070000
-0.064999 0.187524 1.073000
-0.063520 0.188049 1.076000
-0.062089 0.188748 1.080000
-0.060534 0.189097 1.082000
-0.059081 0.189796 1.086000
-0.057510 0.190146 1.088000
-0.055933 0.190496 1.090000
-0.054350 0.190845 1.092000
-0.052761 0.191195 1.094000
-0.051119 0.191369 1.095000
-0.047825 0.191719 1.097000
-0.046258 0.192243 1.100000
-0.044600 0.192418 1.101000
-0.043017 0.192942 1.104000
-0.041463 0.193641 1.108000
-0.039968 0.194690 1.114000
-0.038488 0.195913 1.121000
-0.037020 0.197311 1.129000
-0.033772 0.198710 1.137000
-0.032214 0.199933 1.144000
-0.030608 0.200982 1.150000
-0.028983 0.202030 1.156000
-0.027316 0.202904 1.161000
-0.025568 0.203253 1.163000
-0.023813 0.203603 1.165000
-0.022053 0.203953 1.167000
-0.020269 0.204127 1.168000
-0.016691 0.204477 1.170000
-0.014885 0.204477 1.170000
-0.013101 0.204826 1.172000
-0.011292 0.204826 1.172000
-0.009491 0.205001 1.173000
-0.007686 0.205176 1.174000
-0.005874 0.205176 1.174000
-0.004062 0.205176 1.174000
-0.166681 0.191828 1.088000
-0.164698 0.191475 1.086000
-0.162722 0.191123 1.084000
-0.160751 0.190770 1.082000
-0.158787 0.190417 1.080000
-0.156829 0.190065 1.078000
-0.154877 0.189712 1.076000
-0.153073 0.189536 1.075000
-0.151273 0.189359 1.074000
-0.149476 0.189183 1.073000
-0.147681 0.189007 1.072000
-0.145890 0.188830 1.071000
-0.143968 0.188478 1.069000
-0.142184 0.188302 1.068000
-0.140404 0.188125 1.067000
-0.138497 0.187773 1.065000
-0.136724 0.187596 1.064000
-0.134955 0.187420 1.063000
-0.133189 0.187244 1.062000
-0.131425 0.187067 1.061000
-0.129665 0.186891 1.060000
-0.127908 0.186715 1.059000
-0.126035 0.186362 1.057000
-0.124403 0.186362 1.057000
-0.122539 0.186009 1.055000
-0.120910 0.186009 1.055000
-0.119169 0.185833 1.054000
-0.117542 0.185833 1.054000
-0.115805 0.185657 1.053000
-0.114071 0.185481 1.052000
-0.112340 0.185304 1.051000
-0.110612 0.185128 1.050000
-0.108887 0.184952 1.049000
-0.107268 0.184952 1.049000
-0.105548 0.184775 1.048000
-0.103831 0.184599 1.047000
-0.102117 0.184423 1.046000
-0.100406 0.184246 1.045000
-0.098698 0.184070 1.044000
-0.097087 0.184070 1.044000
-0.095384 0.183894 1.043000
-0.093774 0.183894 1.043000
-0.092075 0.183717 1.042000
-0.090467 0.183717 1.042000
-0.088858 0.183717 1.042000
-0.087249 0.183717 1.042000
-0.085641 0.183717 1.042000
-0.084032 0.183717 1.042000
-0.082424 0.183717 1.042000
-0.080970 0.184070 1.044000
-0.079435 0.184246 1.045000
-0.077896 0.184423 1.046000
-0.076500 0.184952 1.049000
-0.075024 0.185304 1.051000
-0.073611 0.185833 1.054000
-0.072188 0.186362 1.057000
-0.070891 0.187244 1.062000
-0.067866 0.187949 1.066000
-0.066407 0.188478 1.069000
-0.064999 0.189183 1.073000
-0.063579 0.189888 1.077000
-0.062089 0.190417 1.080000
-0.060589 0.190946 1.083000
-0.059081 0.191475 1.086000
-0.057563 0.192004 1.089000
-0.055984 0.192357 1.091000
-0.054400 0.192709 1.093000
-0.052761 0.192886 1.094000
-0.051165 0.193238 1.096000
-0.047869 0.193591 1.098000
-0.046258 0.193943 1.100000
-0.044681 0.194472 1.103000
-0.043095 0.195001 1.106000
-0.041500 0.195530 1.109000
-0.040040 0.196764 1.116000
-0.038557 0.197999 1.123000
-0.037020 0.199057 1.129000
-0.033772 0.200467 1.137000
-0.032186 0.201525 1.143000
-0.030608 0.202759 1.150000
-0.028983 0.203817 1.156000
-0.027292 0.204522 1.160000
-0.025568 0.205051 1.163000
-0.023813 0.205404 1.165000
-0.022053 0.205756 1.167000
-0.020269 0.205933 1.168000
-0.016677 0.206109 1.169000
-0.014885 0.206285 1.170000
-0.013101 0.206638 1.172000
-0.011301 0.206814 1.173000
-0.009499 0.206991 1.174000
-0.007686 0.206991 1.174000
-0.005874 0.206991 1.174000
-0.004065 0.207167 1.175000
-0.166528 0.193332 1.087000
-0.164547 0.192976 1.085000
-0.162572 0.192620 1.083000
-0.160751 0.192442 1.082000
-0.158787 0.192087 1.080000
-0.156683 0.191553 1.077000
-0.155021 0.191553 1.077000
-0.153073 0.191197 1.075000
-0.151414 0.191197 1.075000
-0.149476 0.190842 1.073000
-0.147819 0.190842 1.073000
-0.146027 0.190664 1.072000
-0.144102 0.190308 1.070000
-0.142318 0.190130 1.069000
-0.140404 0.189774 1.067000
-0.138627 0.189597 1.066000
-0.136853 0.189419 1.065000
-0.135082 0.189241 1.064000
-0.133314 0.189063 1.063000
-0.131425 0.188707 1.061000
-0.129665 0.188529 1.060000
-0.127908 0.188352 1.059000
-0.126035 0.187996 1.057000
-0.124403 0.187996 1.057000
-0.122539 0.187640 1.055000
-0.120796 0.187462 1.054000
-0.119169 0.187462 1.054000
-0.117430 0.187284 1.053000
-0.115695 0.187107 1.052000
-0.113962 0.186929 1.051000
-0.112340 0.186929 1.051000
-0.110612 0.186751 1.050000
-0.108887 0.186573 1.049000
-0.107166 0.186395 1.048000
-0.105447 0.186217 1.047000
-0.103732 0.186039 1.046000
-0.102019 0.185862 1.045000
-0.100406 0.185862 1.045000
-0.098698 0.185684 1.044000
-0.097087 0.185684 1.044000
-0.095384 0.185506 1.043000
-0.093774 0.185506 1.043000
-0.092075 0.185328 1.042000
-0.090467 0.185328 1.042000
-0.088858 0.185328 1.042000
-0.087249 0.185328 1.042000
-0.085641 0.185328 1.042000
-0.084032 0.185328 1.042000
-0.082424 0.185328 1.042000
-0.080893 0.185506 1.043000
-0.079359 0.185684 1.044000
-0.077822 0.185862 1.045000
-0.076427 0.186395 1.048000
-0.075024 0.186929 1.051000
-0.073611 0.187462 1.054000
-0.072188 0.187996 1.057000
-0.070824 0.188707 1.061000
-0.067803 0.189419 1.065000
-0.066407 0.190130 1.069000
-0.064999 0.190842 1.073000
-0.063579 0.191553 1.077000
-0.062089 0.192087 1.080000
-0.060589 0.192620 1.083000
-0.059081 0.193154 1.086000
-0.057563 0.193687 1.089000
-0.055984 0.194043 1.091000
-0.054400 0.194399 1.093000
-0.052809 0.194755 1.095000
-0.049519 0.195110 1.097000
-0.047912 0.195466 1.099000
-0.046300 0.195822 1.101000
-0.044722 0.196355 1.104000
-0.043173 0.197067 1.108000
-0.041575 0.197600 1.111000
-0.040040 0.198490 1.116000
-0.038557 0.199735 1.123000
-0.037053 0.200980 1.130000
-0.033742 0.202047 1.136000
-0.032158 0.203114 1.142000
-0.030555 0.204181 1.148000
-0.028933 0.205248 1.154000
-0.027269 0.206137 1.159000
-0.025546 0.206671 1.162000
-0.023793 0.207027 1.164000
-0.022015 0.207205 1.165000
-0.020251 0.207560 1.167000
-0.016677 0.207916 1.169000
-0.014885 0.208094 1.170000
-0.013101 0.208450 1.172000
-0.011292 0.208450 1.172000
-0.009499 0.208805 1.174000
-0.007693 0.208983 1.175000
-0.005884 0.209161 1.176000
-0.004072 0.209339 1.177000
-0.168361 0.195191 1.088000
-0.166375 0.194832 1.086000
-0.164547 0.194653 1.085000
-0.162572 0.194294 1.083000
-0.160751 0.194115 1.082000
-0.158787 0.193756 1.080000
-0.156829 0.193397 1.078000
-0.154877 0.193038 1.076000
-0.153216 0.193038 1.076000
-0.151414 0.192859 1.075000
-0.149615 0.192680 1.074000
-0.147819 0.192500 1.073000
-0.146027 0.192321 1.072000
-0.144237 0.192141 1.071000
-0.142318 0.191783 1.069000
-0.140536 0.191603 1.068000
-0.138757 0.191424 1.067000
-0.136981 0.191244 1.066000
-0.135082 0.190886 1.064000
-0.133314 0.190706 1.063000
-0.131425 0.190347 1.061000
-0.129665 0.190168 1.060000
-0.127908 0.189989 1.059000
-0.126154 0.189809 1.058000
-0.124403 0.189630 1.057000
-0.122539 0.189271 1.055000
-0.120796 0.189092 1.054000
-0.118943 0.188733 1.052000
-0.117319 0.188733 1.052000
-0.115585 0.188553 1.051000
-0.113854 0.188374 1.050000
-0.112233 0.188374 1.050000
-0.110507 0.188195 1.049000
-0.108680 0.187836 1.047000
-0.107063 0.187836 1.047000
-0.105346 0.187656 1.046000
-0.103732 0.187656 1.046000
-0.102019 0.187477 1.045000
-0.100310 0.187297 1.044000
-0.098698 0.187297 1.044000
-0.097087 0.187297 1.044000
-0.095384 0.187118 1.043000
-0.093774 0.187118 1.043000
-0.092075 0.186939 1.042000
-0.090467 0.186939 1.042000
-0.088858 0.186939 1.042000
-0.087249 0.186939 1.042000
-0.085559 0.186759 1.041000
-0.084032 0.186939 1.042000
-0.082424 0.186939 1.042000
-0.080815 0.186939 1.042000
-0.079283 0.187118 1.043000
-0.077822 0.187477 1.045000
-0.076354 0.187836 1.047000
-0.074952 0.188374 1.050000
-0.073611 0.189092 1.054000
-0.072188 0.189630 1.057000
-0.070824 0.190347 1.061000
-0.067803 0.191065 1.065000
-0.066407 0.191783 1.069000
-0.064999 0.192500 1.073000
-0.063579 0.193218 1.077000
-0.062089 0.193756 1.080000
-0.060589 0.194294 1.083000
-0.059081 0.194832 1.086000
-0.057563 0.195371 1.089000
-0.055984 0.195729 1.091000
-0.054400 0.196088 1.093000
-0.052809 0.196447 1.095000
-0.049519 0.196806 1.097000
-0.047912 0.197165 1.099000
-0.046300 0.197524 1.101000
-0.044722 0.198062 1.104000
-0.043173 0.198779 1.108000
-0.041650 0.199676 1.113000
-0.040111 0.200573 1.118000
-0.038557 0.201470 1.123000
-0.037053 0.202726 1.130000
-0.033742 0.203803 1.136000
-0.032130 0.204700 1.141000
-0.030528 0.205776 1.147000
-0.028883 0.206673 1.152000
-0.027198 0.207391 1.156000
-0.025480 0.207929 1.159000
-0.023752 0.208467 1.162000
-0.021996 0.208826 1.164000
-0.020216 0.209005 1.165000
-0.018450 0.209364 1.167000
-0.014885 0.209902 1.170000
-0.013101 0.210261 1.172000
-0.011301 0.210441 1.173000
-0.009499 0.210620 1.174000
-0.007700 0.210979 1.176000
-0.005894 0.211338 1.178000
-0.004079 0.211517 1.179000
-0.168051 0.196511 1.086000
-0.166222 0.196330 1.085000
-0.164395 0.196149 1.084000
-0.162572 0.195968 1.083000
-0.160454 0.195425 1.080000
-0.158640 0.195244 1.079000
-0.156829 0.195064 1.078000
-0.155021 0.194883 1.077000
-0.153216 0.194702 1.076000
-0.151414 0.194521 1.075000
-0.149754 0.194521 1.075000
-0.147957 0.194340 1.074000
-0.146163 0.194159 1.073000
-0.144372 0.193978 1.072000
-0.142451 0.193616 1.070000
-0.140667 0.193435 1.069000
-0.138757 0.193073 1.067000
-0.136981 0.192892 1.066000
-0.135209 0.192711 1.065000
-0.133439 0.192530 1.064000
-0.131549 0.192168 1.062000
-0.129665 0.191806 1.060000
-0.127908 0.191625 1.059000
-0.126154 0.191445 1.058000
-0.124168 0.190902 1.055000
-0.122423 0.190721 1.054000
-0.120681 0.190540 1.053000
-0.118943 0.190359 1.052000
-0.117207 0.190178 1.051000
-0.115475 0.189997 1.050000
-0.113745 0.189816 1.049000
-0.112126 0.189816 1.049000
-0.110401 0.189635 1.048000
-0.108680 0.189454 1.047000
-0.106961 0.189273 1.046000
-0.105346 0.189273 1.046000
-0.103632 0.189092 1.045000
-0.102019 0.189092 1.045000
-0.100310 0.188911 1.044000
-0.098698 0.188911 1.044000
-0.097087 0.188911 1.044000
-0.095384 0.188730 1.043000
-0.093774 0.188730 1.043000
-0.092075 0.188549 1.042000
-0.090467 0.188549 1.042000
-0.088858 0.188549 1.042000
-0.087166 0.188368 1.041000
-0.085559 0.188368 1.041000
-0.083952 0.188368 1.041000
-0.082424 0.188549 1.042000
-0.080815 0.188549 1.042000
-0.079207 0.188549 1.042000
-0.077747 0.188911 1.044000
-0.076281 0.189273 1.046000
-0.074952 0.189997 1.050000
-0.073471 0.190359 1.052000
-0.072120 0.191083 1.056000
-0.070757 0.191806 1.060000
-0.067803 0.192711 1.065000
-0.066407 0.193435 1.069000
-0.064999 0.194159 1.073000
-0.063579 0.194883 1.077000
-0.062089 0.195425 1.080000
-0.060589 0.195968 1.083000
-0.059081 0.196511 1.086000
-0.057510 0.196873 1.088000
-0.055984 0.197416 1.091000
-0.054400 0.197778 1.093000
-0.052809 0.198140 1.095000
-0.049564 0.198683 1.098000
-0.047956 0.199044 1.100000
-0.046342 0.199406 1.102000
-0.044803 0.200130 1.106000
-0.043212 0.200673 1.109000
-0.041650 0.201397 1.113000
-0.040111 0.202302 1.118000
-0.038591 0.203387 1.124000
-0.037053 0.204473 1.130000
-0.033713 0.205378 1.135000
-0.032130 0.206463 1.141000
-0.030475 0.207187 1.145000
-0.028832 0.208092 1.150000
-0.027151 0.208816 1.154000
-0.025436 0.209359 1.157000
-0.023691 0.209720 1.159000
-0.021958 0.210263 1.162000
-0.020199 0.210625 1.164000
-0.018434 0.210987 1.166000
-0.014872 0.211530 1.169000
-0.013090 0.211892 1.171000
-0.011311 0.212435 1.174000
-0.009507 0.212616 1.175000
-0.007713 0.213158 1.178000
-0.005904 0.213520 1.180000
-0.004086 0.213701 1.181000
-0.002267 0.214063 1.183000
-0.166222 0.198007 1.085000
-0.164243 0.197642 1.083000
-0.162421 0.197460 1.082000
-0.160751 0.197460 1.082000
-0.158640 0.196912 1.079000
-0.156829 0.196730 1.078000
-0.155021 0.196547 1.077000
-0.153216 0.196365 1.076000
-0.151414 0.196182 1.075000
-0.149754 0.196182 1.075000
-0.147819 0.195817 1.073000
-0.146163 0.195817 1.073000
-0.144372 0.195635 1.072000
-0.142451 0.195270 1.070000
-0.140667 0.195087 1.069000
-0.138757 0.194722 1.067000
-0.137110 0.194722 1.067000
-0.135209 0.194357 1.065000
-0.133439 0.194175 1.064000
-0.131673 0.193992 1.063000
-0.129787 0.193627 1.061000
-0.128029 0.193445 1.060000
-0.126273 0.193262 1.059000
-0.124168 0.192532 1.055000
-0.122423 0.192350 1.054000
-0.120681 0.192167 1.053000
-0.118943 0.191985 1.052000
-0.117207 0.191802 1.051000
-0.115475 0.191620 1.050000
-0.113745 0.191437 1.049000
-0.112019 0.191255 1.048000
-0.110296 0.191072 1.047000
-0.108576 0.190890 1.046000
-0.106961 0.190890 1.046000
-0.105246 0.190707 1.045000
-0.103632 0.190707 1.045000
-0.102019 0.190707 1.045000
-0.100310 0.190525 1.044000
-0.098698 0.190525 1.044000
-0.096994 0.190343 1.043000
-0.095384 0.190343 1.043000
-0.093684 0.190160 1.042000
-0.092075 0.190160 1.042000
-0.090467 0.190160 1.042000
-0.088858 0.190160 1.042000
-0.087166 0.189977 1.041000
-0.085559 0.189977 1.041000
-0.083952 0.189977 1.041000
-0.082345 0.189977 1.041000
-0.080738 0.189977 1.041000
-0.079207 0.190160 1.042000
-0.077747 0.190525 1.044000
-0.076281 0.190890 1.046000
-0.074881 0.191437 1.049000
-0.073471 0.191985 1.052000
-0.072120 0.192715 1.056000
-0.070757 0.193445 1.060000
-0.067739 0.194175 1.064000
-0.066345 0.194905 1.068000
-0.064999 0.195817 1.073000
-0.063520 0.196365 1.076000
-0.062031 0.196912 1.079000
-0.060589 0.197642 1.083000
-0.059026 0.198007 1.085000
-0.057510 0.198555 1.088000
-0.055933 0.198920 1.090000
-0.054400 0.199467 1.093000
-0.052809 0.199832 1.095000
-0.049564 0.200380 1.098000
-0.047956 0.200745 1.100000
-0.046384 0.201292 1.103000
-0.044803 0.201840 1.106000
-0.043290 0.202752 1.111000
-0.041725 0.203482 1.115000
-0.040183 0.204395 1.120000
-0.038626 0.205307 1.125000
-0.037053 0.206220 1.130000
-0.033713 0.207132 1.135000
-0.032073 0.207862 1.139000
-0.030448 0.208775 1.144000
-0.028782 0.209504 1.148000
-0.027104 0.210234 1.152000
-0.025392 0.210782 1.155000
-0.023650 0.211147 1.157000
-0.021920 0.211694 1.160000
-0.020182 0.212242 1.163000
-0.018418 0.212607 1.165000
-0.016662 0.213154 1.168000
-0.013090 0.213702 1.171000
-0.011311 0.214249 1.174000
-0.009515 0.214614 1.176000
-0.007719 0.215162 1.179000
-0.005909 0.215527 1.181000
-0.004093 0.215892 1.183000
-0.002269 0.216074 1.184000
-0.166068 0.199500 1.084000
-0.164243 0.199316 1.083000
-0.162421 0.199132 1.082000
-0.160454 0.198764 1.080000
-0.158640 0.198580 1.079000
-0.156683 0.198212 1.077000
-0.155021 0.198212 1.077000
-0.153216 0.198028 1.076000
-0.151414 0.197844 1.075000
-0.149754 0.197844 1.075000
-0.147957 0.197660 1.074000
-0.146163 0.197476 1.073000
-0.144372 0.197292 1.072000
-0.142451 0.196924 1.070000
-0.140667 0.196740 1.069000
-0.138887 0.196556 1.068000
-0.137110 0.196372 1.067000
-0.135209 0.196004 1.065000
-0.133439 0.195820 1.064000
-0.131673 0.195636 1.063000
-0.129787 0.195267 1.061000
-0.128029 0.195083 1.060000
-0.126273 0.194899 1.059000
-0.124168 0.194163 1.055000
-0.122423 0.193979 1.054000
-0.120681 0.193795 1.053000
-0.118943 0.193611 1.052000
-0.117095 0.193243 1.050000
-0.115365 0.193059 1.049000
-0.113637 0.192875 1.048000
-0.111912 0.192691 1.047000
-0.110296 0.192691 1.047000
-0.108576 0.192507 1.046000
-0.106961 0.192507 1.046000
-0.105246 0.192323 1.045000
-0.103632 0.192323 1.045000
-0.101922 0.192139 1.044000
-0.100310 0.192139 1.044000
-0.098698 0.192139 1.044000
-0.096994 0.191955 1.043000
-0.095292 0.191771 1.042000
-0.093684 0.191771 1.042000
-0.092075 0.191771 1.042000
-0.090467 0.191771 1.042000
-0.088773 0.191587 1.041000
-0.087166 0.191587 1.041000
-0.085559 0.191587 1.041000
-0.083952 0.191587 1.041000
-0.082345 0.191587 1.041000
-0.080738 0.191587 1.041000
-0.079207 0.191771 1.042000
-0.077747 0.192139 1.044000
-0.076281 0.192507 1.046000
-0.074881 0.193059 1.049000
-0.073471 0.193611 1.052000
-0.072120 0.194347 1.056000
-0.070757 0.195083 1.060000
-0.067739 0.195820 1.064000
-0.066407 0.196740 1.069000
-0.064999 0.197476 1.073000
-0.063520 0.198028 1.076000
-0.062089 0.198764 1.080000
-0.060534 0.199132 1.082000
-0.059026 0.199684 1.085000
-0.057510 0.200237 1.088000
-0.055933 0.200605 1.090000
-0.054350 0.200973 1.092000
-0.052809 0.201525 1.095000
-0.049564 0.202077 1.098000
-0.047999 0.202629 1.101000
-0.046426 0.203181 1.104000
-0.044884 0.203917 1.108000
-0.043329 0.204654 1.112000
-0.041800 0.205574 1.117000
-0.040255 0.206494 1.122000
-0.038694 0.207414 1.127000
-0.035371 0.208334 1.132000
-0.033713 0.208886 1.135000
-0.032073 0.209623 1.139000
-0.030421 0.210359 1.143000
-0.028757 0.211095 1.147000
-0.027057 0.211647 1.150000
-0.025348 0.212199 1.153000
-0.023609 0.212567 1.155000
-0.021883 0.213119 1.158000
-0.020147 0.213672 1.161000
-0.018418 0.214408 1.165000
-0.016648 0.214776 1.167000
-0.013101 0.215696 1.172000
-0.011311 0.216064 1.174000
-0.009523 0.216616 1.177000
-0.007732 0.217352 1.181000
-0.005919 0.217720 1.183000
-0.004103 0.218273 1.186000
-0.167587 0.200990 1.083000
-0.165915 0.200990 1.083000
-0.164092 0.200805 1.082000
-0.162271 0.200619 1.081000
-0.160454 0.200434 1.080000
-0.158493 0.200062 1.078000
-0.156829 0.200062 1.078000
-0.155021 0.199877 1.077000
-0.153216 0.199691 1.076000
-0.151414 0.199506 1.075000
-0.149615 0.199320 1.074000
-0.147819 0.199134 1.073000
-0.146027 0.198949 1.072000
-0.144237 0.198763 1.071000
-0.142318 0.198392 1.069000
-0.140536 0.198207 1.068000
-0.138757 0.198021 1.067000
-0.137110 0.198021 1.067000
-0.135209 0.197650 1.065000
-0.133439 0.197464 1.064000
-0.131673 0.197279 1.063000
-0.129787 0.196907 1.061000
-0.128029 0.196722 1.060000
-0.126273 0.196536 1.059000
-0.124403 0.196165 1.057000
-0.122423 0.195608 1.054000
-0.120566 0.195237 1.052000
-0.118829 0.195052 1.051000
-0.117095 0.194866 1.050000
-0.115365 0.194680 1.049000
-0.113528 0.194309 1.047000
-0.111805 0.194124 1.046000
-0.110191 0.194124 1.046000
-0.108576 0.194124 1.046000
-0.106859 0.193938 1.045000
-0.105246 0.193938 1.045000
-0.103632 0.193938 1.045000
-0.101922 0.193752 1.044000
-0.100310 0.193752 1.044000
-0.098604 0.193567 1.043000
-0.096994 0.193567 1.043000
-0.095292 0.193381 1.042000
-0.093684 0.193381 1.042000
-0.092075 0.193381 1.042000
-0.090467 0.193381 1.042000
-0.088858 0.193381 1.042000
-0.087166 0.193196 1.041000
-0.085559 0.193196 1.041000
-0.083952 0.193196 1.041000
-0.082345 0.193196 1.041000
-0.080738 0.193196 1.041000
-0.079207 0.193381 1.042000
-0.077747 0.193752 1.044000
-0.076281 0.194124 1.046000
-0.074881 0.194680 1.049000
-0.073541 0.195423 1.053000
-0.072120 0.195979 1.056000
-0.070757 0.196722 1.060000
-0.067803 0.197650 1.065000
-0.066407 0.198392 1.069000
-0.064999 0.199134 1.073000
-0.063520 0.199691 1.076000
-0.062031 0.200248 1.079000
-0.060534 0.200805 1.082000
-0.059026 0.201362 1.085000
-0.057457 0.201733 1.087000
-0.055882 0.202104 1.089000
-0.054350 0.202661 1.092000
-0.052809 0.203217 1.095000
-0.049564 0.203774 1.098000
-0.047999 0.204331 1.101000
-0.046468 0.205073 1.105000
-0.044924 0.205816 1.109000
-0.043368 0.206558 1.113000
-0.041837 0.207486 1.118000
-0.040291 0.208414 1.123000
-0.038694 0.209156 1.127000
-0.035371 0.210084 1.132000
-0.033713 0.210641 1.135000
-0.032073 0.211383 1.139000
-0.030395 0.211940 1.142000
-0.028707 0.212497 1.145000
-0.027010 0.213053 1.148000
-0.025304 0.213610 1.151000
-0.023568 0.213981 1.153000
-0.021864 0.214724 1.157000
-0.020130 0.215281 1.160000
-0.018402 0.216023 1.164000
-0.016648 0.216580 1.167000
-0.013101 0.217508 1.172000
-0.011330 0.218250 1.176000
-0.009547 0.218992 1.180000
-0.007745 0.219549 1.183000
-0.005934 0.220106 1.186000
-0.165762 0.202477 1.082000
-0.163940 0.202290 1.081000
-0.162121 0.202103 1.080000
-0.160305 0.201916 1.079000
-0.158493 0.201729 1.078000
-0.156829 0.201729 1.078000
-0.154877 0.201354 1.076000
-0.153216 0.201354 1.076000
-0.151414 0.201167 1.075000
-0.149615 0.200980 1.074000
-0.147819 0.200793 1.073000
-0.146027 0.200606 1.072000
-0.144237 0.200419 1.071000
-0.142318 0.200045 1.069000
-0.140536 0.199857 1.068000
-0.138757 0.199670 1.067000
-0.136853 0.199296 1.065000
-0.135209 0.199296 1.065000
-0.133439 0.199109 1.064000
-0.131673 0.198922 1.063000
-0.129787 0.198547 1.061000
-0.128029 0.198360 1.060000
-0.126273 0.198173 1.059000
-0.124168 0.197425 1.055000
-0.122539 0.197425 1.055000
-0.120566 0.196863 1.052000
-0.118829 0.196676 1.051000
-0.117095 0.196489 1.050000
-0.115365 0.196302 1.049000
-0.113528 0.195928 1.047000
-0.111805 0.195740 1.046000
-0.110191 0.195740 1.046000
-0.108576 0.195740 1.046000
-0.106859 0.195553 1.045000
-0.105246 0.195553 1.045000
-0.103533 0.195366 1.044000
-0.101922 0.195366 1.044000
-0.100310 0.195366 1.044000
-0.098604 0.195179 1.043000
-0.096994 0.195179 1.043000
-0.095292 0.194992 1.042000
-0.093684 0.194992 1.042000
-0.092075 0.194992 1.042000
-0.090467 0.194992 1.042000
-0.088773 0.194805 1.041000
-0.087166 0.194805 1.041000
-0.085559 0.194805 1.041000
-0.083952 0.194805 1.041000
-0.082345 0.194805 1.041000
-0.080738 0.194805 1.041000
-0.079207 0.194992 1.042000
-0.077747 0.195366 1.044000
-0.076354 0.195928 1.047000
-0.074952 0.196489 1.050000
-0.073611 0.197238 1.054000
-0.072188 0.197799 1.057000
-0.070824 0.198547 1.061000
-0.067803 0.199296 1.065000
-0.066407 0.200045 1.069000
-0.064999 0.200793 1.073000
-0.063520 0.201354 1.076000
-0.062031 0.201916 1.079000
-0.060534 0.202477 1.082000
-0.059026 0.203039 1.085000
-0.057457 0.203413 1.087000
-0.055882 0.203787 1.089000
-0.054350 0.204349 1.092000
-0.052809 0.204910 1.095000
-0.049564 0.205471 1.098000
-0.048043 0.206220 1.102000
-0.046510 0.206968 1.106000
-0.044965 0.207717 1.110000
-0.043407 0.208465 1.114000
-0.041875 0.209401 1.119000
-0.040327 0.210337 1.124000
-0.038729 0.211085 1.128000
-0.035371 0.211834 1.132000
-0.033713 0.212395 1.135000
-0.032045 0.212957 1.138000
-0.030368 0.213518 1.141000
-0.028657 0.213892 1.143000
-0.026963 0.214454 1.146000
-0.025260 0.215015 1.149000
-0.023548 0.215577 1.152000
-0.021826 0.216138 1.155000
-0.020112 0.216886 1.159000
-0.018386 0.217635 1.163000
-0.016662 0.218571 1.168000
-0.013101 0.219319 1.172000
-0.011330 0.220068 1.176000
-0.009555 0.221003 1.181000
-0.007758 0.221752 1.185000
-0.005944 0.222313 1.188000
-0.165609 0.203961 1.081000
-0.163788 0.203772 1.080000
-0.161971 0.203584 1.079000
-0.160305 0.203584 1.079000
-0.158493 0.203395 1.078000
-0.156683 0.203206 1.077000
-0.154877 0.203018 1.076000
-0.153216 0.203018 1.076000
-0.151414 0.202829 1.075000
-0.149615 0.202640 1.074000
-0.147819 0.202452 1.073000
-0.146027 0.202263 1.072000
-0.144237 0.202074 1.071000
-0.142318 0.201697 1.069000
-0.140536 0.201508 1.068000
-0.138757 0.201320 1.067000
-0.136853 0.200942 1.065000
-0.135082 0.200754 1.064000
-0.133314 0.200565 1.063000
-0.131673 0.200565 1.063000
-0.129787 0.200187 1.061000
-0.128149 0.200187 1.061000
-0.126273 0.199810 1.059000
-0.124403 0.199433 1.057000
-0.122539 0.199055 1.055000
-0.120681 0.198678 1.053000
-0.118829 0.198301 1.051000
-0.117095 0.198112 1.050000
-0.115365 0.197923 1.049000
-0.113528 0.197546 1.047000
-0.111912 0.197546 1.047000
-0.110191 0.197357 1.046000
-0.108576 0.197357 1.046000
-0.106859 0.197169 1.045000
-0.105246 0.197169 1.045000
-0.103632 0.197169 1.045000
-0.101922 0.196980 1.044000
-0.100310 0.196980 1.044000
-0.098604 0.196791 1.043000
-0.096994 0.196791 1.043000
-0.095292 0.196603 1.042000
-0.093684 0.196603 1.042000
-0.092075 0.196603 1.042000
-0.090467 0.196603 1.042000
-0.088858 0.196603 1.042000
-0.087166 0.196414 1.041000
-0.085559 0.196414 1.041000
-0.083952 0.196414 1.041000
-0.082345 0.196414 1.041000
-0.080815 0.196603 1.042000
-0.079283 0.196791 1.043000
-0.077822 0.197169 1.045000
-0.076354 0.197546 1.047000
-0.074952 0.198112 1.050000
-0.073611 0.198867 1.054000
-0.072188 0.199433 1.057000
-0.070824 0.200187 1.061000
-0.067803 0.200942 1.065000
-0.066407 0.201697 1.069000
-0.064999 0.202452 1.073000
-0.063520 0.203018 1.076000
-0.062031 0.203584 1.079000
-0.060534 0.204150 1.082000
-0.058972 0.204527 1.084000
-0.057404 0.204904 1.086000
-0.055882 0.205470 1.089000
-0.054350 0.206036 1.092000
-0.052809 0.206603 1.095000
-0.049564 0.207169 1.098000
-0.048043 0.207923 1.102000
-0.046510 0.208678 1.106000
-0.045005 0.209621 1.111000
-0.043446 0.210376 1.115000
-0.041912 0.211319 1.120000
-0.040327 0.212074 1.124000
-0.038763 0.213018 1.129000
-0.035371 0.213584 1.132000
-0.033713 0.214150 1.135000
-0.032017 0.214527 1.137000
-0.030342 0.215093 1.140000
-0.028657 0.215659 1.143000
-0.026940 0.216036 1.145000
-0.025238 0.216602 1.148000
-0.023527 0.217169 1.151000
-0.021826 0.217923 1.155000
-0.020112 0.218678 1.159000
-0.018386 0.219433 1.163000
-0.016662 0.220376 1.168000
-0.013112 0.221319 1.173000
-0.011350 0.222263 1.178000
-0.009572 0.223206 1.183000
-0.007772 0.223961 1.187000
-0.165456 0.205442 1.080000
-0.163788 0.205442 1.080000
-0.160305 0.205252 1.079000
-0.158493 0.205061 1.078000
-0.156683 0.204871 1.077000
-0.154877 0.204681 1.076000
-0.153216 0.204681 1.076000
-0.151414 0.204491 1.075000
-0.149615 0.204300 1.074000
-0.147819 0.204110 1.073000
-0.146027 0.203920 1.072000
-0.144102 0.203540 1.070000
-0.142318 0.203349 1.069000
-0.140536 0.203159 1.068000
-0.138757 0.202969 1.067000
-0.136853 0.202588 1.065000
-0.135082 0.202398 1.064000
-0.133314 0.202208 1.063000
-0.131673 0.202208 1.063000
-0.129787 0.201828 1.061000
-0.128149 0.201828 1.061000
-0.126273 0.201447 1.059000
-0.124521 0.201257 1.058000
-0.122539 0.200686 1.055000
-0.120796 0.200496 1.054000
-0.118943 0.200115 1.052000
-0.117095 0.199735 1.050000
-0.115365 0.199545 1.049000
-0.113637 0.199355 1.048000
-0.111912 0.199164 1.047000
-0.110296 0.199164 1.047000
-0.108576 0.198974 1.046000
-0.106859 0.198784 1.045000
-0.105246 0.198784 1.045000
-0.103632 0.198784 1.045000
-0.101922 0.198594 1.044000
-0.100310 0.198594 1.044000
-0.098604 0.198403 1.043000
-0.096994 0.198403 1.043000
-0.095292 0.198213 1.042000
-0.093684 0.198213 1.042000
-0.092075 0.198213 1.042000
-0.090467 0.198213 1.042000
-0.088858 0.198213 1.042000
-0.087166 0.198023 1.041000
-0.085559 0.198023 1.041000
-0.083952 0.198023 1.041000
-0.082345 0.198023 1.041000
-0.080815 0.198213 1.042000
-0.079283 0.198403 1.043000
-0.077822 0.198784 1.045000
-0.076354 0.199164 1.047000
-0.074952 0.199735 1.050000
-0.073611 0.200496 1.054000
-0.072188 0.201067 1.057000
-0.070824 0.201828 1.061000
-0.067803 0.202588 1.065000
-0.066407 0.203349 1.069000
-0.064939 0.203920 1.072000
-0.063461 0.204491 1.075000
-0.061974 0.205061 1.078000
-0.060422 0.205442 1.080000
-0.058918 0.206012 1.083000
-0.057404 0.206583 1.086000
-0.055831 0.206964 1.088000
-0.054300 0.207534 1.091000
-0.052809 0.208295 1.095000
-0.049609 0.209056 1.099000
-0.048087 0.209817 1.103000
-0.046510 0.210388 1.106000
-0.045005 0.211339 1.111000
-0.043485 0.212290 1.116000
-0.041949 0.213241 1.121000
-0.040362 0.214002 1.125000
-0.038797 0.214953 1.130000
-0.035371 0.215333 1.132000
-0.033713 0.215904 1.135000
-0.032017 0.216285 1.137000
-0.030315 0.216665 1.139000
-0.028632 0.217236 1.142000
-0.026940 0.217806 1.145000
-0.025216 0.218187 1.147000
-0.023527 0.218948 1.151000
-0.021826 0.219709 1.155000
-0.020112 0.220469 1.159000
-0.018386 0.221230 1.163000
-0.016677 0.222372 1.169000
-0.013123 0.223323 1.174000
-0.011359 0.224274 1.179000
-0.009572 0.225035 1.183000
-0.007778 0.225986 1.188000
-0.165456 0.207111 1.080000
-0.158493 0.206728 1.078000
-0.156683 0.206536 1.077000
-0.154877 0.206344 1.076000
-0.153216 0.206344 1.076000
-0.151414 0.206152 1.075000
-0.149615 0.205961 1.074000
-0.147681 0.205577 1.072000
-0.145890 0.205385 1.071000
-0.144102 0.205193 1.070000
-0.142318 0.205002 1.069000
-0.140536 0.204810 1.068000
-0.138627 0.204426 1.066000
-0.136853 0.204235 1.065000
-0.135082 0.204043 1.064000
-0.133314 0.203851 1.063000
-0.131673 0.203851 1.063000
-0.129787 0.203468 1.061000
-0.128149 0.203468 1.061000
-0.126273 0.203084 1.059000
-0.124521 0.202892 1.058000
-0.122539 0.202317 1.055000
-0.120796 0.202125 1.054000
-0.118943 0.201742 1.052000
-0.117207 0.201550 1.051000
-0.115475 0.201358 1.050000
-0.113745 0.201166 1.049000
-0.112019 0.200975 1.048000
-0.110296 0.200783 1.047000
-0.108576 0.200591 1.046000
-0.106961 0.200591 1.046000
-0.105246 0.200399 1.045000
-0.103632 0.200399 1.045000
-0.101922 0.200207 1.044000
-0.100310 0.200207 1.044000
-0.098698 0.200207 1.044000
-0.096994 0.200016 1.043000
-0.095384 0.200016 1.043000
-0.093684 0.199824 1.042000
-0.092075 0.199824 1.042000
-0.090467 0.199824 1.042000
-0.088858 0.199824 1.042000
-0.087166 0.199632 1.041000
-0.085559 0.199632 1.041000
-0.083952 0.199632 1.041000
-0.082345 0.199632 1.041000
-0.080815 0.199824 1.042000
-0.079283 0.200016 1.043000
-0.077822 0.200399 1.045000
-0.076354 0.200783 1.047000
-0.074952 0.201358 1.050000
-0.073541 0.201933 1.053000
-0.072188 0.202700 1.057000
-0.070757 0.203276 1.060000
-0.069382 0.204043 1.064000
-0.066345 0.204810 1.068000
-0.064878 0.205385 1.071000
-0.063402 0.205961 1.074000
-0.061916 0.206536 1.077000
-0.060422 0.207111 1.080000
-0.058918 0.207686 1.083000
-0.057404 0.208262 1.086000
-0.055831 0.208645 1.088000
-0.054300 0.209221 1.091000
-0.052809 0.209988 1.095000
-0.049564 0.210563 1.098000
-0.048087 0.211522 1.103000
-0.046552 0.212289 1.107000
-0.045046 0.213248 1.112000
-0.043485 0.214015 1.116000
-0.041949 0.214974 1.121000
-0.040398 0.215933 1.126000
-0.038797 0.216700 1.130000
-0.035402 0.217275 1.133000
-0.033713 0.217658 1.135000
-0.032017 0.218042 1.137000
-0.030342 0.218617 1.140000
-0.028632 0.219001 1.142000
-0.026940 0.219576 1.145000
-0.025216 0.219960 1.147000
-0.023527 0.220727 1.151000
-0.021826 0.221494 1.155000
-0.020112 0.222261 1.159000
-0.018402 0.223220 1.164000
-0.016677 0.224179 1.169000
-0.013123 0.225137 1.174000
-0.011369 0.226288 1.180000
-0.009588 0.227247 1.185000
-0.007778 0.227822 1.188000
-0.167123 0.208781 1.080000
-0.165302 0.208587 1.079000
-0.163637 0.208587 1.079000
-0.161971 0.208587 1.079000
-0.160157 0.208394 1.078000
-0.158346 0.208201 1.077000
-0.156683 0.208201 1.077000
-0.154877 0.208007 1.076000
-0.153216 0.208007 1.076000
-0.151414 0.207814 1.075000
-0.149476 0.207427 1.073000
-0.147681 0.207234 1.072000
-0.145890 0.207041 1.071000
-0.143968 0.206654 1.069000
-0.142184 0.206461 1.068000
-0.140404 0.206267 1.067000
-0.138497 0.205881 1.065000
-0.136724 0.205687 1.064000
-0.135082 0.205687 1.064000
-0.133314 0.205494 1.063000
-0.131425 0.205108 1.061000
-0.129787 0.205108 1.061000
-0.128029 0.204914 1.060000
-0.126273 0.204721 1.059000
-0.124521 0.204528 1.058000
-0.122655 0.204141 1.056000
-0.120910 0.203948 1.055000
-0.119056 0.203561 1.053000
-0.117319 0.203368 1.052000
-0.115585 0.203174 1.051000
-0.113854 0.202981 1.050000
-0.112126 0.202788 1.049000
-0.110296 0.202401 1.047000
-0.108680 0.202401 1.047000
-0.107063 0.202401 1.047000
-0.105346 0.202208 1.046000
-0.103632 0.202015 1.045000
-0.102019 0.202015 1.045000
-0.100310 0.201821 1.044000
-0.098698 0.201821 1.044000
-0.097087 0.201821 1.044000
-0.095384 0.201628 1.043000
-0.093684 0.201435 1.042000
-0.092075 0.201435 1.042000
-0.090467 0.201435 1.042000
-0.088858 0.201435 1.042000
-0.087249 0.201435 1.042000
-0.085641 0.201435 1.042000
-0.084032 0.201435 1.042000
-0.082424 0.201435 1.042000
-0.080815 0.201435 1.042000
-0.079359 0.201821 1.044000
-0.077822 0.202015 1.045000
-0.076354 0.202401 1.047000
-0.074952 0.202981 1.050000
-0.073471 0.203368 1.052000
-0.072120 0.204141 1.056000
-0.070690 0.204721 1.059000
-0.069316 0.205494 1.063000
-0.066283 0.206267 1.067000
-0.064817 0.206847 1.070000
-0.063343 0.207427 1.073000
-0.061859 0.208007 1.076000
-0.060366 0.208587 1.079000
-0.058863 0.209167 1.082000
-0.057351 0.209747 1.085000
-0.055831 0.210327 1.088000
-0.054300 0.210907 1.091000
-0.052761 0.211487 1.094000
-0.049564 0.212260 1.098000
-0.048087 0.213227 1.103000
-0.046594 0.214193 1.108000
-0.045046 0.214967 1.112000
-0.043563 0.216127 1.118000
-0.042024 0.217093 1.123000
-0.040434 0.217866 1.127000
-0.038832 0.218640 1.131000
-0.035434 0.219220 1.134000
-0.033742 0.219606 1.136000
-0.032073 0.220186 1.139000
-0.030368 0.220573 1.141000
-0.028657 0.220959 1.143000
-0.026963 0.221539 1.146000
-0.025260 0.222119 1.149000
-0.023527 0.222506 1.151000
-0.021845 0.223472 1.156000
-0.020147 0.224439 1.161000
-0.018418 0.225212 1.165000
-0.014885 0.226179 1.170000
-0.013135 0.227145 1.175000
-0.011369 0.228112 1.180000
-0.009588 0.229079 1.185000
-0.007778 0.229659 1.188000
-0.167123 0.210450 1.080000
-0.165302 0.210255 1.079000
-0.163637 0.210255 1.079000
-0.161821 0.210060 1.078000
-0.160157 0.210060 1.078000
-0.158346 0.209865 1.077000
-0.156538 0.209670 1.076000
-0.154877 0.209670 1.076000
-0.153073 0.209476 1.075000
-0.151414 0.209476 1.075000
-0.149476 0.209086 1.073000
-0.147681 0.208891 1.072000
-0.145890 0.208696 1.071000
-0.143968 0.208306 1.069000
-0.142184 0.208112 1.068000
-0.140404 0.207917 1.067000
-0.138497 0.207527 1.065000
-0.136724 0.207332 1.064000
-0.134955 0.207137 1.063000
-0.133189 0.206942 1.062000
-0.131425 0.206748 1.061000
-0.129665 0.206553 1.060000
-0.128029 0.206553 1.060000
-0.126273 0.206358 1.059000
-0.124521 0.206163 1.058000
-0.122655 0.205773 1.056000
-0.120910 0.205578 1.055000
-0.119169 0.205384 1.054000
-0.117319 0.204994 1.052000
-0.115585 0.204799 1.051000
-0.113854 0.204604 1.050000
-0.112233 0.204604 1.050000
-0.110507 0.204409 1.049000
-0.108783 0.204214 1.048000
-0.107063 0.204020 1.047000
-0.105447 0.204020 1.047000
-0.103732 0.203825 1.046000
-0.102019 0.203630 1.045000
-0.100406 0.203630 1.045000
-0.098698 0.203435 1.044000
-0.097087 0.203435 1.044000
-0.095384 0.203240 1.043000
-0.093774 0.203240 1.043000
-0.092075 0.203045 1.042000
-0.090467 0.203045 1.042000
-0.088858 0.203045 1.042000
-0.087249 0.203045 1.042000
-0.085641 0.203045 1.042000
-0.084032 0.203045 1.042000
-0.082424 0.203045 1.042000
-0.080815 0.203045 1.042000
-0.079359 0.203435 1.044000
-0.077822 0.203630 1.045000
-0.076354 0.204020 1.047000
-0.074881 0.204409 1.049000
-0.073471 0.204994 1.052000
-0.072052 0.205578 1.055000
-0.070690 0.206358 1.059000
-0.069251 0.206942 1.062000
-0.066159 0.207527 1.065000
-0.064757 0.208306 1.069000
-0.063284 0.208891 1.072000
-0.061801 0.209476 1.075000
-0.060310 0.210060 1.078000
-0.058863 0.210840 1.082000
-0.057299 0.211229 1.084000
-0.055831 0.212009 1.088000
-0.054300 0.212593 1.091000
-0.052761 0.213178 1.094000
-0.049564 0.213957 1.098000
-0.048130 0.215127 1.104000
-0.046636 0.216101 1.109000
-0.045127 0.217075 1.114000
-0.043602 0.218050 1.119000
-0.042062 0.219024 1.124000
-0.040470 0.219803 1.128000
-0.037151 0.220778 1.133000
-0.035465 0.221167 1.135000
-0.033802 0.221752 1.138000
-0.032101 0.222142 1.140000
-0.030395 0.222531 1.142000
-0.028682 0.222921 1.144000
-0.026987 0.223506 1.147000
-0.025260 0.223895 1.149000
-0.023568 0.224675 1.153000
-0.021845 0.225259 1.156000
-0.020130 0.226039 1.160000
-0.018418 0.227013 1.165000
-0.014885 0.227987 1.170000
-0.013123 0.228767 1.174000
-0.011359 0.229741 1.179000
-0.009572 0.230521 1.183000
-0.007772 0.231300 1.187000
-0.166968 0.211923 1.079000
-0.165302 0.211923 1.079000
-0.163485 0.211727 1.078000
-0.161821 0.211727 1.078000
-0.160008 0.211530 1.077000
-0.158199 0.211334 1.076000
-0.156538 0.211334 1.076000
-0.154733 0.211137 1.075000
-0.153073 0.211137 1.075000
-0.151273 0.210941 1.074000
-0.149476 0.210744 1.073000
-0.147544 0.210352 1.071000
-0.145890 0.210352 1.071000
-0.143968 0.209959 1.069000
-0.142184 0.209762 1.068000
-0.140141 0.209173 1.065000
-0.138367 0.208977 1.064000
-0.136596 0.208780 1.063000
-0.134828 0.208584 1.062000
-0.133063 0.208388 1.061000
-0.131301 0.208191 1.060000
-0.129665 0.208191 1.060000
-0.127908 0.207995 1.059000
-0.126273 0.207995 1.059000
-0.124403 0.207602 1.057000
-0.122655 0.207406 1.056000
-0.121025 0.207406 1.056000
-0.119282 0.207209 1.055000
-0.117542 0.207013 1.054000
-0.115805 0.206816 1.053000
-0.114071 0.206620 1.052000
-0.112340 0.206424 1.051000
-0.110612 0.206227 1.050000
-0.108887 0.206031 1.049000
-0.107166 0.205834 1.048000
-0.105447 0.205638 1.047000
-0.103732 0.205441 1.046000
-0.102117 0.205441 1.046000
-0.100406 0.205245 1.045000
-0.098698 0.205049 1.044000
-0.097087 0.205049 1.044000
-0.095475 0.205049 1.044000
-0.093774 0.204852 1.043000
-0.092075 0.204656 1.042000
-0.090467 0.204656 1.042000
-0.088858 0.204656 1.042000
-0.087249 0.204656 1.042000
-0.085641 0.204656 1.042000
-0.084032 0.204656 1.042000
-0.082424 0.204656 1.042000
-0.080893 0.204852 1.043000
-0.079359 0.205049 1.044000
-0.077822 0.205245 1.045000
-0.076354 0.205638 1.047000
-0.074881 0.206031 1.049000
-0.073471 0.206620 1.052000
-0.072052 0.207209 1.055000
-0.070557 0.207602 1.057000
-0.069186 0.208388 1.061000
-0.067739 0.208977 1.064000
-0.064696 0.209762 1.068000
-0.063225 0.210352 1.071000
-0.061801 0.211137 1.075000
-0.060310 0.211727 1.078000
-0.058863 0.212512 1.082000
-0.057299 0.212905 1.084000
-0.055779 0.213494 1.087000
-0.054300 0.214280 1.091000
-0.052809 0.215065 1.095000
-0.049609 0.215851 1.099000
-0.048174 0.217029 1.105000
-0.046678 0.218012 1.110000
-0.045208 0.219190 1.116000
-0.043680 0.220172 1.121000
-0.042137 0.221154 1.126000
-0.040542 0.221940 1.130000
-0.037184 0.222725 1.134000
-0.035496 0.223118 1.136000
-0.033832 0.223707 1.139000
-0.032130 0.224100 1.141000
-0.030421 0.224493 1.143000
-0.028707 0.224886 1.145000
-0.026987 0.225279 1.147000
-0.025282 0.225868 1.150000
-0.023568 0.226457 1.153000
-0.021864 0.227243 1.157000
-0.020147 0.228028 1.161000
-0.018418 0.228814 1.165000
-0.016677 0.229600 1.169000
-0.013112 0.230385 1.173000
-0.011350 0.231367 1.178000
-0.009563 0.232153 1.182000
-0.007758 0.232742 1.185000
-0.166813 0.213393 1.078000
-0.165149 0.213393 1.078000
-0.163333 0.213195 1.077000
-0.161521 0.212997 1.076000
-0.159860 0.212997 1.076000
-0.158052 0.212799 1.075000
-0.156538 0.212997 1.076000
-0.154589 0.212601 1.074000
-0.152931 0.212601 1.074000
-0.151132 0.212403 1.073000
-0.149336 0.212205 1.072000
-0.147544 0.212007 1.071000
-0.145754 0.211809 1.070000
-0.143833 0.211413 1.068000
-0.142051 0.211215 1.067000
-0.140141 0.210819 1.065000
-0.138367 0.210621 1.064000
-0.136596 0.210424 1.063000
-0.134701 0.210028 1.061000
-0.133063 0.210028 1.061000
-0.131301 0.209830 1.060000
-0.129543 0.209632 1.059000
-0.127908 0.209632 1.059000
-0.126154 0.209434 1.058000
-0.124403 0.209236 1.057000
-0.122771 0.209236 1.057000
-0.121025 0.209038 1.056000
-0.119282 0.208840 1.055000
-0.117653 0.208840 1.055000
-0.115914 0.208642 1.054000
-0.114179 0.208444 1.053000
-0.112447 0.208246 1.052000
-0.110717 0.208048 1.051000
-0.108991 0.207850 1.050000
-0.107268 0.207652 1.049000
-0.105548 0.207454 1.048000
-0.103831 0.207256 1.047000
-0.102117 0.207058 1.046000
-0.100406 0.206860 1.045000
-0.098793 0.206860 1.045000
-0.097087 0.206662 1.044000
-0.095475 0.206662 1.044000
-0.093774 0.206464 1.043000
-0.092164 0.206464 1.043000
-0.090467 0.206267 1.042000
-0.088858 0.206267 1.042000
-0.087249 0.206267 1.042000
-0.085641 0.206267 1.042000
-0.084032 0.206267 1.042000
-0.082424 0.206267 1.042000
-0.080893 0.206464 1.043000
-0.079359 0.206662 1.044000
-0.077896 0.207058 1.046000
-0.076354 0.207256 1.047000
-0.074881 0.207652 1.049000
-0.073401 0.208048 1.051000
-0.071984 0.208642 1.054000
-0.070557 0.209236 1.057000
-0.069121 0.209830 1.060000
-0.067739 0.210621 1.064000
-0.064636 0.211215 1.067000
-0.063225 0.212007 1.071000
-0.061801 0.212799 1.075000
-0.060310 0.213393 1.078000
-0.058809 0.213987 1.081000
-0.057299 0.214581 1.084000
-0.055831 0.215372 1.088000
-0.054350 0.216164 1.092000
-0.052857 0.216956 1.096000
-0.049699 0.217946 1.101000
-0.048217 0.218935 1.106000
-0.046762 0.220123 1.112000
-0.045289 0.221311 1.118000
-0.043719 0.222103 1.122000
-0.042174 0.223092 1.127000
-0.040578 0.223884 1.131000
-0.037217 0.224676 1.135000
-0.035527 0.225072 1.137000
-0.033832 0.225468 1.139000
-0.032130 0.225864 1.141000
-0.030421 0.226260 1.143000
-0.028707 0.226656 1.145000
-0.026987 0.227052 1.147000
-0.025282 0.227645 1.150000
-0.023568 0.228239 1.153000
-0.021845 0.228833 1.156000
-0.020130 0.229625 1.160000
-0.018402 0.230417 1.164000
-0.016648 0.231011 1.167000
-0.013101 0.232000 1.172000
-0.011330 0.232792 1.176000
-0.009539 0.233386 1.179000
-0.007739 0.233980 1.182000
-0.166813 0.215059 1.078000
-0.164996 0.214860 1.077000
-0.163182 0.214660 1.076000
-0.161371 0.214461 1.075000
-0.159711 0.214461 1.075000
-0.158052 0.214461 1.075000
-0.156247 0.214261 1.074000
-0.154445 0.214062 1.073000
-0.152646 0.213862 1.072000
-0.150991 0.213862 1.072000
-0.149197 0.213663 1.071000
-0.147268 0.213264 1.069000
-0.145618 0.213264 1.069000
-0.143833 0.213064 1.068000
-0.142051 0.212865 1.067000
-0.140141 0.212466 1.065000
-0.138237 0.212067 1.063000
-0.136467 0.211867 1.062000
-0.134701 0.211668 1.061000
-0.132938 0.211468 1.060000
-0.131301 0.211468 1.060000
-0.129543 0.211269 1.059000
-0.127908 0.211269 1.059000
-0.126154 0.211069 1.058000
-0.124521 0.211069 1.058000
-0.122771 0.210870 1.057000
-0.121140 0.210870 1.057000
-0.119395 0.210670 1.056000
-0.117765 0.210670 1.056000
-0.116024 0.210471 1.055000
-0.114287 0.210271 1.054000
-0.112553 0.210072 1.053000
-0.110823 0.209872 1.052000
-0.109095 0.209673 1.051000
-0.107370 0.209473 1.050000
-0.105648 0.209274 1.049000
-0.103831 0.208875 1.047000
-0.102215 0.208875 1.047000
-0.100502 0.208675 1.046000
-0.098793 0.208476 1.045000
-0.097087 0.208276 1.044000
-0.095475 0.208276 1.044000
-0.093774 0.208077 1.043000
-0.092075 0.207877 1.042000
-0.090553 0.208077 1.043000
-0.088858 0.207877 1.042000
-0.087249 0.207877 1.042000
-0.085641 0.207877 1.042000
-0.084032 0.207877 1.042000
-0.082503 0.208077 1.043000
-0.080970 0.208276 1.044000
-0.079435 0.208476 1.045000
-0.077896 0.208675 1.046000
-0.076354 0.208875 1.047000
-0.074881 0.209274 1.049000
-0.073401 0.209673 1.051000
-0.071984 0.210271 1.054000
-0.070490 0.210670 1.056000
-0.069121 0.211468 1.060000
-0.067739 0.212266 1.064000
-0.064696 0.213064 1.068000
-0.063284 0.213862 1.072000
-0.061801 0.214461 1.075000
-0.060366 0.215259 1.079000
-0.058918 0.216057 1.083000
-0.057351 0.216456 1.085000
-0.055882 0.217254 1.089000
-0.054400 0.218052 1.093000
-0.051259 0.219049 1.098000
-0.049789 0.220047 1.103000
-0.048305 0.221044 1.108000
-0.046804 0.222042 1.113000
-0.045329 0.223239 1.119000
-0.043758 0.224037 1.123000
-0.042211 0.225034 1.128000
-0.040578 0.225633 1.131000
-0.037217 0.226431 1.135000
-0.035527 0.226829 1.137000
-0.033832 0.227228 1.139000
-0.032130 0.227627 1.141000
-0.030421 0.228026 1.143000
-0.028707 0.228425 1.145000
-0.026987 0.228824 1.147000
-0.025282 0.229423 1.150000
-0.023568 0.230021 1.153000
-0.021845 0.230620 1.156000
-0.020112 0.231218 1.159000
-0.018386 0.232016 1.163000
-0.016634 0.232615 1.166000
-0.013079 0.233413 1.170000
-0.011311 0.234211 1.174000
-0.009515 0.234610 1.176000
-0.007719 0.235208 1.179000
-0.005904 0.235408 1.180000
-0.004086 0.235607 1.181000
-0.166504 0.216323 1.076000
-0.164843 0.216323 1.076000
-0.163030 0.216122 1.075000
-0.161371 0.216122 1.075000
-0.159711 0.216122 1.075000
-0.157758 0.215720 1.073000
-0.156101 0.215720 1.073000
-0.154301 0.215519 1.072000
-0.152646 0.215519 1.072000
-0.150850 0.215318 1.071000
-0.149058 0.215117 1.070000
-0.147130 0.214715 1.068000
-0.145482 0.214715 1.068000
-0.143564 0.214313 1.066000
-0.141785 0.214112 1.065000
-0.140009 0.213911 1.064000
-0.138237 0.213710 1.063000
-0.136339 0.213308 1.061000
-0.134574 0.213107 1.060000
-0.132938 0.213107 1.060000
-0.131177 0.212906 1.059000
-0.129543 0.212906 1.059000
-0.127787 0.212705 1.058000
-0.126035 0.212503 1.057000
-0.124403 0.212503 1.057000
-0.122771 0.212503 1.057000
-0.121140 0.212503 1.057000
-0.119395 0.212302 1.056000
-0.117765 0.212302 1.056000
-0.116024 0.212101 1.055000
-0.114396 0.212101 1.055000
-0.112660 0.211900 1.054000
-0.110928 0.211699 1.053000
-0.109199 0.211498 1.052000
-0.107370 0.211096 1.050000
-0.105648 0.210895 1.049000
-0.103930 0.210694 1.048000
-0.102215 0.210493 1.047000
-0.100502 0.210292 1.046000
-0.098793 0.210091 1.045000
-0.097087 0.209890 1.044000
-0.095475 0.209890 1.044000
-0.093774 0.209689 1.043000
-0.092075 0.209488 1.042000
-0.090467 0.209488 1.042000
-0.088858 0.209488 1.042000
-0.087249 0.209488 1.042000
-0.085641 0.209488 1.042000
-0.084032 0.209488 1.042000
-0.082503 0.209689 1.043000
-0.080970 0.209890 1.044000
-0.079435 0.210091 1.045000
-0.077896 0.210292 1.046000
-0.076354 0.210493 1.047000
-0.074881 0.210895 1.049000
-0.073401 0.211297 1.051000
-0.071984 0.211900 1.054000
-0.070557 0.212503 1.057000
-0.069121 0.213107 1.060000
-0.067739 0.213911 1.064000
-0.064696 0.214715 1.068000
-0.063343 0.215720 1.073000
-0.061916 0.216524 1.077000
-0.060422 0.217127 1.080000
-0.058918 0.217731 1.083000
-0.057404 0.218334 1.086000
-0.055933 0.219138 1.090000
-0.054450 0.219942 1.094000
-0.051305 0.220947 1.099000
-0.049835 0.221953 1.104000
-0.048348 0.222958 1.109000
-0.046847 0.223963 1.114000
-0.045329 0.224968 1.119000
-0.043797 0.225973 1.124000
-0.042211 0.226778 1.128000
-0.038866 0.227582 1.132000
-0.037184 0.227984 1.134000
-0.035527 0.228587 1.137000
-0.033832 0.228989 1.139000
-0.032130 0.229391 1.141000
-0.030421 0.229793 1.143000
-0.028707 0.230195 1.145000
-0.026987 0.230597 1.147000
-0.025282 0.231201 1.150000
-0.023548 0.231603 1.152000
-0.021826 0.232206 1.155000
-0.020095 0.232809 1.158000
-0.018355 0.233412 1.161000
-0.016605 0.234015 1.164000
-0.014859 0.234819 1.168000
-0.011282 0.235422 1.171000
-0.009499 0.236026 1.174000
-0.007693 0.236227 1.175000
-0.005884 0.236428 1.176000
-0.004076 0.236830 1.178000
-0.002259 0.237031 1.179000
-0.166349 0.217784 1.075000
-0.164690 0.217784 1.075000
-0.162879 0.217581 1.074000
-0.161070 0.217379 1.073000
-0.159414 0.217379 1.073000
-0.157611 0.217176 1.072000
-0.155956 0.217176 1.072000
-0.154157 0.216974 1.071000
-0.152504 0.216974 1.071000
-0.150569 0.216568 1.069000
-0.148918 0.216568 1.069000
-0.147130 0.216366 1.068000
-0.145346 0.216163 1.067000
-0.143429 0.215758 1.065000
-0.141652 0.215555 1.064000
-0.139878 0.215353 1.063000
-0.137977 0.214948 1.061000
-0.136210 0.214745 1.060000
-0.134574 0.214745 1.060000
-0.132812 0.214542 1.059000
-0.131177 0.214542 1.059000
-0.129420 0.214340 1.058000
-0.127666 0.214137 1.057000
-0.125915 0.213935 1.056000
-0.124285 0.213935 1.056000
-0.121025 0.213935 1.056000
-0.117765 0.213935 1.056000
-0.116134 0.213935 1.056000
-0.114504 0.213935 1.056000
-0.112767 0.213732 1.055000
-0.111033 0.213530 1.054000
-0.109199 0.213124 1.052000
-0.107472 0.212922 1.051000
-0.105749 0.212719 1.050000
-0.103930 0.212314 1.048000
-0.102215 0.212111 1.047000
-0.100502 0.211909 1.046000
-0.098793 0.211706 1.045000
-0.097180 0.211706 1.045000
-0.095475 0.211504 1.044000
-0.093863 0.211504 1.044000
-0.092164 0.211301 1.043000
-0.090553 0.211301 1.043000
-0.088943 0.211301 1.043000
-0.087333 0.211301 1.043000
-0.085805 0.211504 1.044000
-0.084113 0.211301 1.043000
-0.082582 0.211504 1.044000
-0.081048 0.211706 1.045000
-0.079511 0.211909 1.046000
-0.077971 0.212111 1.047000
-0.076500 0.212517 1.049000
-0.074952 0.212719 1.050000
-0.073471 0.213124 1.052000
-0.072052 0.213732 1.055000
-0.070557 0.214137 1.057000
-0.069186 0.214948 1.061000
-0.066159 0.215758 1.065000
-0.064757 0.216568 1.069000
-0.063402 0.217581 1.074000
-0.061974 0.218392 1.078000
-0.060534 0.219202 1.082000
-0.059026 0.219810 1.085000
-0.057510 0.220418 1.088000
-0.055984 0.221025 1.091000
-0.054499 0.221836 1.095000
-0.051352 0.222849 1.100000
-0.049835 0.223659 1.104000
-0.048348 0.224672 1.109000
-0.046847 0.225685 1.114000
-0.045329 0.226698 1.119000
-0.043758 0.227508 1.123000
-0.042211 0.228521 1.128000
-0.040542 0.228926 1.130000
-0.037151 0.229534 1.133000
-0.035465 0.229939 1.135000
-0.033802 0.230547 1.138000
-0.032101 0.230952 1.140000
-0.030395 0.231357 1.142000
-0.028682 0.231763 1.144000
-0.026963 0.232168 1.146000
-0.025260 0.232776 1.149000
-0.023527 0.233181 1.151000
-0.021788 0.233586 1.153000
-0.020060 0.234194 1.156000
-0.018323 0.234801 1.159000
-0.016577 0.235409 1.162000
-0.014821 0.236017 1.165000
-0.013056 0.236625 1.168000
-0.009474 0.237233 1.171000
-0.007680 0.237638 1.173000
-0.005869 0.237638 1.173000
-0.004065 0.238043 1.175000
-0.002253 0.238245 1.176000
-0.000438 0.238448 1.177000
-0.166040 0.219037 1.073000
-0.164383 0.219037 1.073000
-0.162575 0.218833 1.072000
-0.160920 0.218833 1.072000
-0.159265 0.218833 1.072000
-0.157464 0.218629 1.071000
-0.155810 0.218629 1.071000
-0.154013 0.218425 1.070000
-0.152219 0.218221 1.069000
-0.150569 0.218221 1.069000
-0.148779 0.218017 1.068000
-0.146993 0.217812 1.067000
-0.145073 0.217404 1.065000
-0.143294 0.217200 1.064000
-0.141652 0.217200 1.064000
-0.139878 0.216996 1.063000
-0.137977 0.216588 1.061000
-0.136339 0.216588 1.061000
-0.134574 0.216384 1.060000
-0.132812 0.216179 1.059000
-0.130930 0.215771 1.057000
-0.129298 0.215771 1.057000
-0.127546 0.215567 1.056000
-0.125796 0.215363 1.055000
-0.124168 0.215363 1.055000
-0.122539 0.215363 1.055000
-0.120910 0.215363 1.055000
-0.119282 0.215363 1.055000
-0.117653 0.215363 1.055000
-0.116134 0.215567 1.056000
-0.114504 0.215567 1.056000
-0.112767 0.215363 1.055000
-0.111033 0.215159 1.054000
-0.109199 0.214750 1.052000
-0.107472 0.214546 1.051000
-0.105749 0.214342 1.050000
-0.104029 0.214138 1.049000
-0.102215 0.213730 1.047000
-0.100502 0.213526 1.046000
-0.098793 0.213322 1.045000
-0.097180 0.213322 1.045000
-0.095475 0.213117 1.044000
-0.093863 0.213117 1.044000
-0.092252 0.213117 1.044000
-0.090640 0.213117 1.044000
-0.088943 0.212913 1.043000
-0.087417 0.213117 1.044000
-0.085805 0.213117 1.044000
-0.084194 0.213117 1.044000
-0.082661 0.213322 1.045000
-0.081126 0.213526 1.046000
-0.079587 0.213730 1.047000
-0.078045 0.213934 1.048000
-0.076573 0.214342 1.050000
-0.075095 0.214750 1.052000
-0.073611 0.215159 1.054000
-0.072188 0.215771 1.057000
-0.070757 0.216384 1.060000
-0.069316 0.216996 1.063000
-0.066283 0.217812 1.067000
-0.064878 0.218629 1.071000
-0.063461 0.219446 1.075000
-0.062031 0.220262 1.079000
-0.060534 0.220875 1.082000
-0.059026 0.221487 1.085000
-0.057457 0.221895 1.087000
-0.055984 0.222712 1.091000
-0.054499 0.223528 1.095000
-0.051259 0.224141 1.098000
-0.049789 0.225161 1.103000
-0.048305 0.226182 1.108000
-0.046804 0.227203 1.113000
-0.045289 0.228223 1.118000
-0.043719 0.229040 1.122000
-0.042137 0.229856 1.126000
-0.040506 0.230469 1.129000
-0.037119 0.231081 1.132000
-0.035434 0.231490 1.134000
-0.033772 0.232102 1.137000
-0.032073 0.232510 1.139000
-0.030368 0.232919 1.141000
-0.028657 0.233327 1.143000
-0.026940 0.233735 1.145000
-0.025216 0.234143 1.147000
-0.023486 0.234552 1.149000
-0.021769 0.235164 1.152000
-0.020043 0.235776 1.155000
-0.018292 0.236185 1.157000
-0.016548 0.236797 1.160000
-0.014796 0.237410 1.163000
-0.013023 0.237818 1.165000
-0.011253 0.238430 1.168000
-0.009466 0.238838 1.170000
-0.005864 0.239247 1.172000
-0.004055 0.239247 1.172000
-0.002249 0.239655 1.174000
-0.000437 0.239655 1.174000
-0.165885 0.220490 1.072000
-0.164230 0.220490 1.072000
-0.162424 0.220285 1.071000
-0.160920 0.220490 1.072000
-0.159117 0.220285 1.071000
-0.157317 0.220079 1.070000
-0.155519 0.219873 1.069000
-0.153869 0.219873 1.069000
-0.152076 0.219667 1.068000
-0.150428 0.219667 1.068000
-0.148640 0.219462 1.067000
-0.146855 0.219256 1.066000
-0.145073 0.219050 1.065000
-0.143294 0.218845 1.064000
-0.141519 0.218639 1.063000
-0.139746 0.218433 1.062000
-0.137977 0.218228 1.061000
-0.136210 0.218022 1.060000
-0.134447 0.217816 1.059000
-0.132687 0.217611 1.058000
-0.130930 0.217405 1.057000
-0.129053 0.216994 1.055000
-0.127425 0.216994 1.055000
-0.125796 0.216994 1.055000
-0.124168 0.216994 1.055000
-0.122423 0.216788 1.054000
-0.120796 0.216788 1.054000
-0.119169 0.216788 1.054000
-0.117542 0.216788 1.054000
-0.115914 0.216788 1.054000
-0.114287 0.216788 1.054000
-0.112660 0.216788 1.054000
-0.110823 0.216377 1.052000
-0.109095 0.216171 1.051000
-0.107370 0.215965 1.050000
-0.105749 0.215965 1.050000
-0.104029 0.215760 1.049000
-0.102215 0.215348 1.047000
-0.100502 0.215142 1.046000
-0.098793 0.214937 1.045000
-0.097087 0.214731 1.044000
-0.095475 0.214731 1.044000
-0.093863 0.214731 1.044000
-0.092252 0.214731 1.044000
-0.090553 0.214525 1.043000
-0.089029 0.214731 1.044000
-0.087417 0.214731 1.044000
-0.085805 0.214731 1.044000
-0.084274 0.214937 1.045000
-0.082740 0.215142 1.046000
-0.081203 0.215348 1.047000
-0.079663 0.215554 1.048000
-0.078194 0.215965 1.050000
-0.076646 0.216171 1.051000
-0.075238 0.216788 1.054000
-0.073750 0.217199 1.056000
-0.072325 0.217816 1.059000
-0.070891 0.218433 1.062000
-0.067803 0.219050 1.065000
-0.066345 0.219667 1.068000
-0.064939 0.220490 1.072000
-0.063520 0.221313 1.076000
-0.062031 0.221930 1.079000
-0.060589 0.222753 1.083000
-0.059026 0.223164 1.085000
-0.057457 0.223575 1.087000
-0.055933 0.224192 1.090000
-0.054450 0.225015 1.094000
-0.051259 0.225838 1.098000
-0.049744 0.226661 1.102000
-0.048261 0.227689 1.107000
-0.046720 0.228512 1.111000
-0.045208 0.229540 1.116000
-0.043680 0.230569 1.121000
-0.042062 0.231186 1.124000
-0.040434 0.231803 1.127000
-0.038797 0.232420 1.130000
-0.035402 0.233037 1.133000
-0.033713 0.233448 1.135000
-0.032017 0.233859 1.137000
-0.030315 0.234271 1.139000
-0.028607 0.234682 1.141000
-0.026893 0.235094 1.143000
-0.025194 0.235711 1.146000
-0.023486 0.236328 1.149000
-0.021750 0.236739 1.151000
-0.020008 0.237150 1.153000
-0.018260 0.237562 1.155000
-0.016520 0.238179 1.158000
-0.014770 0.238796 1.161000
-0.013012 0.239413 1.164000
-0.011234 0.239824 1.166000
-0.009442 0.240030 1.167000
-0.007654 0.240441 1.169000
-0.005854 0.240647 1.170000
-0.004051 0.240853 1.171000
-0.002246 0.241058 1.172000
